%
M48
M72
T01C0.0236
T02C0.0315
T03C0.0400
T04C0.0450
T05C0.0520
T06C0.0700
T07C0.0720
T08C0.1260
%
T01
X18888Y23730
X26688Y26930
X26988Y28430
X28738Y31430
X39738Y20680
T02
X24488Y25930
X23488Y25930
X22488Y25930
X21488Y25930
X20488Y25930
X19488Y25930
X18488Y25930
X17488Y25930
X16488Y25930
X15488Y25930
X14488Y25930
X13488Y25930
X12488Y25930
X11488Y25930
X10488Y25930
X10488Y31930
X11488Y31930
X12488Y31930
X13488Y31930
X14488Y31930
X15488Y31930
X16488Y31930
X17488Y31930
X18488Y31930
X19488Y31930
X20488Y31930
X21488Y31930
X22488Y31930
X23488Y31930
X24488Y31930
T03
X24486Y34428
X23486Y34428
X22486Y34428
X21486Y34428
X20486Y34428
X19486Y34428
X18486Y34428
X17486Y34428
X16486Y34428
X15486Y34428
X14486Y34428
X13486Y34428
X25486Y34428
X26486Y34428
X27486Y34428
X28486Y34428
X32738Y34430
X33738Y34430
X34738Y34430
X35738Y34430
X36738Y34430
X37738Y34430
X38738Y34430
X38238Y31180
X38238Y28180
X34738Y26430
X32738Y26430
X24838Y13180
X23138Y10180
T04
X29238Y12920
X35238Y12920
X32238Y23940
X29238Y23940
T05
X40788Y15780
X39988Y13430
X40788Y11080
X45588Y11080
X45588Y15780
X27988Y10530
X27988Y8530
X27988Y4330
X27988Y2330
T06
X25488Y25930
X25488Y31930
X9488Y31930
X9488Y25930
T07
X12738Y14680
X12738Y11430
X12738Y8180
X17188Y4430
X20438Y4430
X38488Y4680
X41738Y4680
X44988Y4680
T08
X10238Y2180
X10238Y21180
X10238Y34180
X50238Y34180
X50238Y21180
X50238Y2180
M30
