G75*
%MOIN*%
%OFA0B0*%
%FSLAX24Y24*%
%IPPOS*%
%LPD*%
%AMOC8*
5,1,8,0,0,1.08239X$1,22.5*
%
%ADD10C,0.0000*%
%ADD11C,0.0020*%
%ADD12C,0.0160*%
%ADD13C,0.0010*%
%ADD14C,0.0060*%
%ADD15C,0.0040*%
%ADD16C,0.0120*%
%ADD17C,0.0080*%
%ADD18C,0.0030*%
%ADD19R,0.0340X0.0300*%
%ADD20R,0.0450X0.0250*%
%ADD21R,0.0200X0.1750*%
%ADD22R,0.0200X0.3200*%
%ADD23R,0.0050X0.1250*%
%ADD24R,0.0200X0.1600*%
%ADD25C,0.0070*%
%ADD26C,0.0050*%
%ADD27C,0.0100*%
%ADD28R,0.0167X0.0128*%
%ADD29R,0.0138X0.0138*%
D10*
X008238Y001180D02*
X009238Y000180D01*
X051238Y000180D01*
X052238Y001180D01*
X052238Y017180D01*
X051238Y018180D01*
X051238Y019180D01*
X052238Y020180D01*
X052238Y035180D01*
X051238Y036180D01*
X009238Y036180D01*
X008238Y035180D01*
X008238Y020180D01*
X009238Y019180D01*
X009238Y018180D01*
X008238Y017180D01*
X008238Y001180D01*
X009608Y002180D02*
X009610Y002230D01*
X009616Y002280D01*
X009626Y002329D01*
X009640Y002377D01*
X009657Y002424D01*
X009678Y002469D01*
X009703Y002513D01*
X009731Y002554D01*
X009763Y002593D01*
X009797Y002630D01*
X009834Y002664D01*
X009874Y002694D01*
X009916Y002721D01*
X009960Y002745D01*
X010006Y002766D01*
X010053Y002782D01*
X010101Y002795D01*
X010151Y002804D01*
X010200Y002809D01*
X010251Y002810D01*
X010301Y002807D01*
X010350Y002800D01*
X010399Y002789D01*
X010447Y002774D01*
X010493Y002756D01*
X010538Y002734D01*
X010581Y002708D01*
X010622Y002679D01*
X010661Y002647D01*
X010697Y002612D01*
X010729Y002574D01*
X010759Y002534D01*
X010786Y002491D01*
X010809Y002447D01*
X010828Y002401D01*
X010844Y002353D01*
X010856Y002304D01*
X010864Y002255D01*
X010868Y002205D01*
X010868Y002155D01*
X010864Y002105D01*
X010856Y002056D01*
X010844Y002007D01*
X010828Y001959D01*
X010809Y001913D01*
X010786Y001869D01*
X010759Y001826D01*
X010729Y001786D01*
X010697Y001748D01*
X010661Y001713D01*
X010622Y001681D01*
X010581Y001652D01*
X010538Y001626D01*
X010493Y001604D01*
X010447Y001586D01*
X010399Y001571D01*
X010350Y001560D01*
X010301Y001553D01*
X010251Y001550D01*
X010200Y001551D01*
X010151Y001556D01*
X010101Y001565D01*
X010053Y001578D01*
X010006Y001594D01*
X009960Y001615D01*
X009916Y001639D01*
X009874Y001666D01*
X009834Y001696D01*
X009797Y001730D01*
X009763Y001767D01*
X009731Y001806D01*
X009703Y001847D01*
X009678Y001891D01*
X009657Y001936D01*
X009640Y001983D01*
X009626Y002031D01*
X009616Y002080D01*
X009610Y002130D01*
X009608Y002180D01*
X009608Y021180D02*
X009610Y021230D01*
X009616Y021280D01*
X009626Y021329D01*
X009640Y021377D01*
X009657Y021424D01*
X009678Y021469D01*
X009703Y021513D01*
X009731Y021554D01*
X009763Y021593D01*
X009797Y021630D01*
X009834Y021664D01*
X009874Y021694D01*
X009916Y021721D01*
X009960Y021745D01*
X010006Y021766D01*
X010053Y021782D01*
X010101Y021795D01*
X010151Y021804D01*
X010200Y021809D01*
X010251Y021810D01*
X010301Y021807D01*
X010350Y021800D01*
X010399Y021789D01*
X010447Y021774D01*
X010493Y021756D01*
X010538Y021734D01*
X010581Y021708D01*
X010622Y021679D01*
X010661Y021647D01*
X010697Y021612D01*
X010729Y021574D01*
X010759Y021534D01*
X010786Y021491D01*
X010809Y021447D01*
X010828Y021401D01*
X010844Y021353D01*
X010856Y021304D01*
X010864Y021255D01*
X010868Y021205D01*
X010868Y021155D01*
X010864Y021105D01*
X010856Y021056D01*
X010844Y021007D01*
X010828Y020959D01*
X010809Y020913D01*
X010786Y020869D01*
X010759Y020826D01*
X010729Y020786D01*
X010697Y020748D01*
X010661Y020713D01*
X010622Y020681D01*
X010581Y020652D01*
X010538Y020626D01*
X010493Y020604D01*
X010447Y020586D01*
X010399Y020571D01*
X010350Y020560D01*
X010301Y020553D01*
X010251Y020550D01*
X010200Y020551D01*
X010151Y020556D01*
X010101Y020565D01*
X010053Y020578D01*
X010006Y020594D01*
X009960Y020615D01*
X009916Y020639D01*
X009874Y020666D01*
X009834Y020696D01*
X009797Y020730D01*
X009763Y020767D01*
X009731Y020806D01*
X009703Y020847D01*
X009678Y020891D01*
X009657Y020936D01*
X009640Y020983D01*
X009626Y021031D01*
X009616Y021080D01*
X009610Y021130D01*
X009608Y021180D01*
X009138Y025930D02*
X009140Y025967D01*
X009146Y026004D01*
X009156Y026040D01*
X009169Y026075D01*
X009186Y026108D01*
X009207Y026139D01*
X009231Y026167D01*
X009258Y026193D01*
X009287Y026216D01*
X009318Y026236D01*
X009352Y026252D01*
X009387Y026265D01*
X009423Y026274D01*
X009460Y026279D01*
X009497Y026280D01*
X009534Y026277D01*
X009571Y026270D01*
X009607Y026259D01*
X009641Y026245D01*
X009674Y026227D01*
X009704Y026205D01*
X009732Y026181D01*
X009757Y026153D01*
X009780Y026123D01*
X009799Y026091D01*
X009814Y026057D01*
X009826Y026022D01*
X009834Y025986D01*
X009838Y025949D01*
X009838Y025911D01*
X009834Y025874D01*
X009826Y025838D01*
X009814Y025803D01*
X009799Y025769D01*
X009780Y025737D01*
X009757Y025707D01*
X009732Y025679D01*
X009704Y025655D01*
X009674Y025633D01*
X009641Y025615D01*
X009607Y025601D01*
X009571Y025590D01*
X009534Y025583D01*
X009497Y025580D01*
X009460Y025581D01*
X009423Y025586D01*
X009387Y025595D01*
X009352Y025608D01*
X009318Y025624D01*
X009287Y025644D01*
X009258Y025667D01*
X009231Y025693D01*
X009207Y025721D01*
X009186Y025752D01*
X009169Y025785D01*
X009156Y025820D01*
X009146Y025856D01*
X009140Y025893D01*
X009138Y025930D01*
X009138Y031930D02*
X009140Y031967D01*
X009146Y032004D01*
X009156Y032040D01*
X009169Y032075D01*
X009186Y032108D01*
X009207Y032139D01*
X009231Y032167D01*
X009258Y032193D01*
X009287Y032216D01*
X009318Y032236D01*
X009352Y032252D01*
X009387Y032265D01*
X009423Y032274D01*
X009460Y032279D01*
X009497Y032280D01*
X009534Y032277D01*
X009571Y032270D01*
X009607Y032259D01*
X009641Y032245D01*
X009674Y032227D01*
X009704Y032205D01*
X009732Y032181D01*
X009757Y032153D01*
X009780Y032123D01*
X009799Y032091D01*
X009814Y032057D01*
X009826Y032022D01*
X009834Y031986D01*
X009838Y031949D01*
X009838Y031911D01*
X009834Y031874D01*
X009826Y031838D01*
X009814Y031803D01*
X009799Y031769D01*
X009780Y031737D01*
X009757Y031707D01*
X009732Y031679D01*
X009704Y031655D01*
X009674Y031633D01*
X009641Y031615D01*
X009607Y031601D01*
X009571Y031590D01*
X009534Y031583D01*
X009497Y031580D01*
X009460Y031581D01*
X009423Y031586D01*
X009387Y031595D01*
X009352Y031608D01*
X009318Y031624D01*
X009287Y031644D01*
X009258Y031667D01*
X009231Y031693D01*
X009207Y031721D01*
X009186Y031752D01*
X009169Y031785D01*
X009156Y031820D01*
X009146Y031856D01*
X009140Y031893D01*
X009138Y031930D01*
X009608Y034180D02*
X009610Y034230D01*
X009616Y034280D01*
X009626Y034329D01*
X009640Y034377D01*
X009657Y034424D01*
X009678Y034469D01*
X009703Y034513D01*
X009731Y034554D01*
X009763Y034593D01*
X009797Y034630D01*
X009834Y034664D01*
X009874Y034694D01*
X009916Y034721D01*
X009960Y034745D01*
X010006Y034766D01*
X010053Y034782D01*
X010101Y034795D01*
X010151Y034804D01*
X010200Y034809D01*
X010251Y034810D01*
X010301Y034807D01*
X010350Y034800D01*
X010399Y034789D01*
X010447Y034774D01*
X010493Y034756D01*
X010538Y034734D01*
X010581Y034708D01*
X010622Y034679D01*
X010661Y034647D01*
X010697Y034612D01*
X010729Y034574D01*
X010759Y034534D01*
X010786Y034491D01*
X010809Y034447D01*
X010828Y034401D01*
X010844Y034353D01*
X010856Y034304D01*
X010864Y034255D01*
X010868Y034205D01*
X010868Y034155D01*
X010864Y034105D01*
X010856Y034056D01*
X010844Y034007D01*
X010828Y033959D01*
X010809Y033913D01*
X010786Y033869D01*
X010759Y033826D01*
X010729Y033786D01*
X010697Y033748D01*
X010661Y033713D01*
X010622Y033681D01*
X010581Y033652D01*
X010538Y033626D01*
X010493Y033604D01*
X010447Y033586D01*
X010399Y033571D01*
X010350Y033560D01*
X010301Y033553D01*
X010251Y033550D01*
X010200Y033551D01*
X010151Y033556D01*
X010101Y033565D01*
X010053Y033578D01*
X010006Y033594D01*
X009960Y033615D01*
X009916Y033639D01*
X009874Y033666D01*
X009834Y033696D01*
X009797Y033730D01*
X009763Y033767D01*
X009731Y033806D01*
X009703Y033847D01*
X009678Y033891D01*
X009657Y033936D01*
X009640Y033983D01*
X009626Y034031D01*
X009616Y034080D01*
X009610Y034130D01*
X009608Y034180D01*
X025138Y031930D02*
X025140Y031967D01*
X025146Y032004D01*
X025156Y032040D01*
X025169Y032075D01*
X025186Y032108D01*
X025207Y032139D01*
X025231Y032167D01*
X025258Y032193D01*
X025287Y032216D01*
X025318Y032236D01*
X025352Y032252D01*
X025387Y032265D01*
X025423Y032274D01*
X025460Y032279D01*
X025497Y032280D01*
X025534Y032277D01*
X025571Y032270D01*
X025607Y032259D01*
X025641Y032245D01*
X025674Y032227D01*
X025704Y032205D01*
X025732Y032181D01*
X025757Y032153D01*
X025780Y032123D01*
X025799Y032091D01*
X025814Y032057D01*
X025826Y032022D01*
X025834Y031986D01*
X025838Y031949D01*
X025838Y031911D01*
X025834Y031874D01*
X025826Y031838D01*
X025814Y031803D01*
X025799Y031769D01*
X025780Y031737D01*
X025757Y031707D01*
X025732Y031679D01*
X025704Y031655D01*
X025674Y031633D01*
X025641Y031615D01*
X025607Y031601D01*
X025571Y031590D01*
X025534Y031583D01*
X025497Y031580D01*
X025460Y031581D01*
X025423Y031586D01*
X025387Y031595D01*
X025352Y031608D01*
X025318Y031624D01*
X025287Y031644D01*
X025258Y031667D01*
X025231Y031693D01*
X025207Y031721D01*
X025186Y031752D01*
X025169Y031785D01*
X025156Y031820D01*
X025146Y031856D01*
X025140Y031893D01*
X025138Y031930D01*
X025138Y025930D02*
X025140Y025967D01*
X025146Y026004D01*
X025156Y026040D01*
X025169Y026075D01*
X025186Y026108D01*
X025207Y026139D01*
X025231Y026167D01*
X025258Y026193D01*
X025287Y026216D01*
X025318Y026236D01*
X025352Y026252D01*
X025387Y026265D01*
X025423Y026274D01*
X025460Y026279D01*
X025497Y026280D01*
X025534Y026277D01*
X025571Y026270D01*
X025607Y026259D01*
X025641Y026245D01*
X025674Y026227D01*
X025704Y026205D01*
X025732Y026181D01*
X025757Y026153D01*
X025780Y026123D01*
X025799Y026091D01*
X025814Y026057D01*
X025826Y026022D01*
X025834Y025986D01*
X025838Y025949D01*
X025838Y025911D01*
X025834Y025874D01*
X025826Y025838D01*
X025814Y025803D01*
X025799Y025769D01*
X025780Y025737D01*
X025757Y025707D01*
X025732Y025679D01*
X025704Y025655D01*
X025674Y025633D01*
X025641Y025615D01*
X025607Y025601D01*
X025571Y025590D01*
X025534Y025583D01*
X025497Y025580D01*
X025460Y025581D01*
X025423Y025586D01*
X025387Y025595D01*
X025352Y025608D01*
X025318Y025624D01*
X025287Y025644D01*
X025258Y025667D01*
X025231Y025693D01*
X025207Y025721D01*
X025186Y025752D01*
X025169Y025785D01*
X025156Y025820D01*
X025146Y025856D01*
X025140Y025893D01*
X025138Y025930D01*
X049608Y021180D02*
X049610Y021230D01*
X049616Y021280D01*
X049626Y021329D01*
X049640Y021377D01*
X049657Y021424D01*
X049678Y021469D01*
X049703Y021513D01*
X049731Y021554D01*
X049763Y021593D01*
X049797Y021630D01*
X049834Y021664D01*
X049874Y021694D01*
X049916Y021721D01*
X049960Y021745D01*
X050006Y021766D01*
X050053Y021782D01*
X050101Y021795D01*
X050151Y021804D01*
X050200Y021809D01*
X050251Y021810D01*
X050301Y021807D01*
X050350Y021800D01*
X050399Y021789D01*
X050447Y021774D01*
X050493Y021756D01*
X050538Y021734D01*
X050581Y021708D01*
X050622Y021679D01*
X050661Y021647D01*
X050697Y021612D01*
X050729Y021574D01*
X050759Y021534D01*
X050786Y021491D01*
X050809Y021447D01*
X050828Y021401D01*
X050844Y021353D01*
X050856Y021304D01*
X050864Y021255D01*
X050868Y021205D01*
X050868Y021155D01*
X050864Y021105D01*
X050856Y021056D01*
X050844Y021007D01*
X050828Y020959D01*
X050809Y020913D01*
X050786Y020869D01*
X050759Y020826D01*
X050729Y020786D01*
X050697Y020748D01*
X050661Y020713D01*
X050622Y020681D01*
X050581Y020652D01*
X050538Y020626D01*
X050493Y020604D01*
X050447Y020586D01*
X050399Y020571D01*
X050350Y020560D01*
X050301Y020553D01*
X050251Y020550D01*
X050200Y020551D01*
X050151Y020556D01*
X050101Y020565D01*
X050053Y020578D01*
X050006Y020594D01*
X049960Y020615D01*
X049916Y020639D01*
X049874Y020666D01*
X049834Y020696D01*
X049797Y020730D01*
X049763Y020767D01*
X049731Y020806D01*
X049703Y020847D01*
X049678Y020891D01*
X049657Y020936D01*
X049640Y020983D01*
X049626Y021031D01*
X049616Y021080D01*
X049610Y021130D01*
X049608Y021180D01*
X049608Y034180D02*
X049610Y034230D01*
X049616Y034280D01*
X049626Y034329D01*
X049640Y034377D01*
X049657Y034424D01*
X049678Y034469D01*
X049703Y034513D01*
X049731Y034554D01*
X049763Y034593D01*
X049797Y034630D01*
X049834Y034664D01*
X049874Y034694D01*
X049916Y034721D01*
X049960Y034745D01*
X050006Y034766D01*
X050053Y034782D01*
X050101Y034795D01*
X050151Y034804D01*
X050200Y034809D01*
X050251Y034810D01*
X050301Y034807D01*
X050350Y034800D01*
X050399Y034789D01*
X050447Y034774D01*
X050493Y034756D01*
X050538Y034734D01*
X050581Y034708D01*
X050622Y034679D01*
X050661Y034647D01*
X050697Y034612D01*
X050729Y034574D01*
X050759Y034534D01*
X050786Y034491D01*
X050809Y034447D01*
X050828Y034401D01*
X050844Y034353D01*
X050856Y034304D01*
X050864Y034255D01*
X050868Y034205D01*
X050868Y034155D01*
X050864Y034105D01*
X050856Y034056D01*
X050844Y034007D01*
X050828Y033959D01*
X050809Y033913D01*
X050786Y033869D01*
X050759Y033826D01*
X050729Y033786D01*
X050697Y033748D01*
X050661Y033713D01*
X050622Y033681D01*
X050581Y033652D01*
X050538Y033626D01*
X050493Y033604D01*
X050447Y033586D01*
X050399Y033571D01*
X050350Y033560D01*
X050301Y033553D01*
X050251Y033550D01*
X050200Y033551D01*
X050151Y033556D01*
X050101Y033565D01*
X050053Y033578D01*
X050006Y033594D01*
X049960Y033615D01*
X049916Y033639D01*
X049874Y033666D01*
X049834Y033696D01*
X049797Y033730D01*
X049763Y033767D01*
X049731Y033806D01*
X049703Y033847D01*
X049678Y033891D01*
X049657Y033936D01*
X049640Y033983D01*
X049626Y034031D01*
X049616Y034080D01*
X049610Y034130D01*
X049608Y034180D01*
X049608Y002180D02*
X049610Y002230D01*
X049616Y002280D01*
X049626Y002329D01*
X049640Y002377D01*
X049657Y002424D01*
X049678Y002469D01*
X049703Y002513D01*
X049731Y002554D01*
X049763Y002593D01*
X049797Y002630D01*
X049834Y002664D01*
X049874Y002694D01*
X049916Y002721D01*
X049960Y002745D01*
X050006Y002766D01*
X050053Y002782D01*
X050101Y002795D01*
X050151Y002804D01*
X050200Y002809D01*
X050251Y002810D01*
X050301Y002807D01*
X050350Y002800D01*
X050399Y002789D01*
X050447Y002774D01*
X050493Y002756D01*
X050538Y002734D01*
X050581Y002708D01*
X050622Y002679D01*
X050661Y002647D01*
X050697Y002612D01*
X050729Y002574D01*
X050759Y002534D01*
X050786Y002491D01*
X050809Y002447D01*
X050828Y002401D01*
X050844Y002353D01*
X050856Y002304D01*
X050864Y002255D01*
X050868Y002205D01*
X050868Y002155D01*
X050864Y002105D01*
X050856Y002056D01*
X050844Y002007D01*
X050828Y001959D01*
X050809Y001913D01*
X050786Y001869D01*
X050759Y001826D01*
X050729Y001786D01*
X050697Y001748D01*
X050661Y001713D01*
X050622Y001681D01*
X050581Y001652D01*
X050538Y001626D01*
X050493Y001604D01*
X050447Y001586D01*
X050399Y001571D01*
X050350Y001560D01*
X050301Y001553D01*
X050251Y001550D01*
X050200Y001551D01*
X050151Y001556D01*
X050101Y001565D01*
X050053Y001578D01*
X050006Y001594D01*
X049960Y001615D01*
X049916Y001639D01*
X049874Y001666D01*
X049834Y001696D01*
X049797Y001730D01*
X049763Y001767D01*
X049731Y001806D01*
X049703Y001847D01*
X049678Y001891D01*
X049657Y001936D01*
X049640Y001983D01*
X049626Y002031D01*
X049616Y002080D01*
X049610Y002130D01*
X049608Y002180D01*
D11*
X029138Y004330D02*
X029138Y008530D01*
X026838Y008530D02*
X026838Y004330D01*
X024938Y008930D02*
X024938Y011680D01*
X024788Y011680D02*
X024788Y010680D01*
X023188Y011680D02*
X023188Y012680D01*
X023038Y011680D02*
X023038Y014430D01*
X010728Y014587D02*
X010681Y014540D01*
X010494Y014727D01*
X010681Y014727D01*
X010728Y014680D01*
X010728Y014587D01*
X010681Y014540D02*
X010494Y014540D01*
X010448Y014587D01*
X010448Y014680D01*
X010494Y014727D01*
X010494Y014816D02*
X010541Y014816D01*
X010588Y014863D01*
X010588Y014956D01*
X010635Y015003D01*
X010681Y015003D01*
X010728Y014956D01*
X010728Y014863D01*
X010681Y014816D01*
X010635Y014816D01*
X010588Y014863D01*
X010588Y014956D02*
X010541Y015003D01*
X010494Y015003D01*
X010448Y014956D01*
X010448Y014863D01*
X010494Y014816D01*
X010278Y014887D02*
X010231Y014840D01*
X010044Y014840D01*
X010091Y014793D02*
X010091Y014887D01*
X010138Y014977D02*
X010231Y014977D01*
X010278Y015024D01*
X010278Y015117D01*
X010231Y015164D01*
X010138Y015164D01*
X010091Y015117D01*
X010091Y015024D01*
X010138Y014977D01*
X010138Y015254D02*
X010138Y015347D01*
X010091Y015438D02*
X010091Y015484D01*
X010138Y015531D01*
X010091Y015578D01*
X010138Y015625D01*
X010278Y015625D01*
X010278Y015531D02*
X010138Y015531D01*
X010091Y015438D02*
X010278Y015438D01*
X010278Y015300D02*
X010044Y015300D01*
X009998Y015347D01*
X009828Y015369D02*
X009781Y015323D01*
X009688Y015323D01*
X009641Y015369D01*
X009641Y015463D01*
X009688Y015509D01*
X009781Y015509D01*
X009828Y015463D01*
X009828Y015369D01*
X009828Y015599D02*
X009828Y015692D01*
X009828Y015646D02*
X009548Y015646D01*
X009548Y015599D01*
X009641Y015233D02*
X009641Y015186D01*
X009735Y015092D01*
X009828Y015092D02*
X009641Y015092D01*
X009641Y015002D02*
X009641Y014908D01*
X009594Y014955D02*
X009781Y014955D01*
X009828Y015002D01*
X009828Y014819D02*
X009688Y014819D01*
X009641Y014772D01*
X009641Y014632D01*
X009828Y014632D01*
X009781Y014543D02*
X009688Y014543D01*
X009641Y014496D01*
X009641Y014403D01*
X009688Y014356D01*
X009781Y014356D01*
X009828Y014403D01*
X009828Y014496D01*
X009781Y014543D01*
X009781Y014266D02*
X009828Y014220D01*
X009828Y014126D01*
X009781Y014080D01*
X009594Y014080D01*
X009548Y014126D01*
X009548Y014220D01*
X009594Y014266D01*
X009998Y014011D02*
X010278Y014011D01*
X010278Y014151D01*
X010231Y014197D01*
X010138Y014197D01*
X010091Y014151D01*
X010091Y014011D01*
X010138Y013921D02*
X010278Y013921D01*
X010278Y013828D02*
X010138Y013828D01*
X010091Y013874D01*
X010138Y013921D01*
X010138Y013828D02*
X010091Y013781D01*
X010091Y013734D01*
X010278Y013734D01*
X010278Y013645D02*
X010278Y013505D01*
X010231Y013458D01*
X010185Y013505D01*
X010185Y013645D01*
X010138Y013645D02*
X010278Y013645D01*
X010138Y013645D02*
X010091Y013598D01*
X010091Y013505D01*
X009998Y013321D02*
X010278Y013321D01*
X010278Y013367D02*
X010278Y013274D01*
X010231Y013185D02*
X010278Y013138D01*
X010278Y013044D01*
X010231Y012998D01*
X010044Y012998D01*
X009998Y013044D01*
X009998Y013138D01*
X010044Y013185D01*
X010138Y013185D01*
X010185Y013138D01*
X010091Y013138D01*
X010091Y013044D01*
X010185Y013044D01*
X010185Y013138D01*
X009998Y013274D02*
X009998Y013321D01*
X009828Y013344D02*
X009781Y013297D01*
X009688Y013297D01*
X009641Y013344D01*
X009641Y013437D01*
X009688Y013484D01*
X009735Y013484D01*
X009735Y013297D01*
X009781Y013208D02*
X009641Y013208D01*
X009781Y013208D02*
X009828Y013161D01*
X009781Y013114D01*
X009828Y013067D01*
X009781Y013021D01*
X009641Y013021D01*
X009688Y012931D02*
X009641Y012885D01*
X009641Y012791D01*
X009688Y012744D01*
X009781Y012744D01*
X009828Y012791D01*
X009828Y012885D01*
X009781Y012931D01*
X009688Y012931D01*
X009688Y012655D02*
X009735Y012608D01*
X009735Y012468D01*
X009828Y012468D02*
X009548Y012468D01*
X009548Y012608D01*
X009594Y012655D01*
X009688Y012655D01*
X009828Y013344D02*
X009828Y013437D01*
X009828Y013573D02*
X009641Y013573D01*
X009641Y013667D02*
X009641Y013713D01*
X009641Y013667D02*
X009735Y013573D01*
X010448Y013575D02*
X010448Y013482D01*
X010494Y013435D01*
X010681Y013435D01*
X010494Y013622D01*
X010681Y013622D01*
X010728Y013575D01*
X010728Y013482D01*
X010681Y013435D01*
X010728Y013346D02*
X010728Y013159D01*
X010541Y013346D01*
X010494Y013346D01*
X010448Y013299D01*
X010448Y013206D01*
X010494Y013159D01*
X010448Y013575D02*
X010494Y013622D01*
X010541Y013711D02*
X010448Y013805D01*
X010728Y013805D01*
X010728Y013898D02*
X010728Y013711D01*
X010681Y013988D02*
X010728Y014034D01*
X010728Y014128D01*
X010681Y014174D01*
X010635Y014174D01*
X010588Y014128D01*
X010588Y013988D01*
X010681Y013988D01*
X010588Y013988D02*
X010494Y014081D01*
X010448Y014174D01*
X010588Y014264D02*
X010588Y014451D01*
X010278Y014427D02*
X010278Y014333D01*
X010231Y014287D01*
X010138Y014287D01*
X010091Y014333D01*
X010091Y014427D01*
X010138Y014474D01*
X010185Y014474D01*
X010185Y014287D01*
X010185Y014563D02*
X010091Y014656D01*
X010091Y014703D01*
X010091Y014563D02*
X010278Y014563D01*
X010588Y015092D02*
X010588Y015279D01*
X010541Y015369D02*
X010448Y015462D01*
X010728Y015462D01*
X010728Y015369D02*
X010728Y015556D01*
X010681Y015645D02*
X010728Y015692D01*
X010728Y015785D01*
X010681Y015832D01*
X010635Y015832D01*
X010588Y015785D01*
X010588Y015645D01*
X010681Y015645D01*
X010588Y015645D02*
X010494Y015738D01*
X010448Y015832D01*
X010278Y015807D02*
X010231Y015761D01*
X010044Y015761D01*
X010091Y015807D02*
X010091Y015714D01*
X009998Y015898D02*
X009998Y015945D01*
X010278Y015945D01*
X010278Y015898D02*
X010278Y015992D01*
X009828Y016153D02*
X009735Y016246D01*
X009548Y016246D01*
X009641Y016336D02*
X009548Y016429D01*
X009828Y016429D01*
X009828Y016336D02*
X009828Y016522D01*
X009828Y016153D02*
X009735Y016059D01*
X009548Y016059D01*
D12*
X008488Y016930D02*
X008738Y017180D01*
X011488Y017180D01*
X011738Y016930D01*
X011738Y012180D01*
X011488Y011930D01*
X008738Y011930D01*
X008488Y012180D01*
X008488Y016930D01*
X014238Y016680D02*
X019238Y016680D01*
X020738Y016680D01*
X020738Y006180D01*
X019238Y006180D01*
X014238Y006180D01*
X014238Y009680D02*
X019238Y009680D01*
X019238Y006180D01*
X019238Y009680D02*
X019238Y013180D01*
X019238Y016680D01*
X019238Y013180D02*
X014238Y013180D01*
X023738Y008180D02*
X025738Y008180D01*
X025738Y010680D01*
X026238Y010680D01*
X023738Y008180D02*
X023738Y002180D01*
X026238Y002180D01*
X029738Y000680D02*
X029738Y011180D01*
X036238Y011180D01*
X036238Y000680D01*
X029738Y000680D01*
X030738Y001680D02*
X030238Y002180D01*
X030238Y002680D01*
X032738Y005180D01*
X033238Y005180D01*
X035738Y002680D01*
X035738Y002180D01*
X035238Y001680D01*
X030738Y001680D01*
X032738Y002180D02*
X032738Y002680D01*
X033238Y002680D01*
X033238Y002180D01*
X032738Y002180D01*
X032738Y003180D02*
X033238Y003180D01*
X033238Y004680D01*
X032738Y004680D01*
X032738Y003180D01*
X036738Y006180D02*
X036738Y009680D01*
X046738Y009680D01*
X046738Y006180D01*
X043238Y006180D02*
X043238Y009680D01*
X040238Y009680D02*
X040238Y006180D01*
D13*
X038238Y018180D02*
X038238Y019180D01*
X048238Y019180D01*
X048238Y018180D01*
X038238Y018180D01*
X035238Y018180D02*
X035238Y019180D01*
X025238Y019180D01*
X025238Y018180D01*
X035238Y018180D01*
X022238Y018180D02*
X022238Y019180D01*
X012238Y019180D01*
X012238Y018180D01*
X022238Y018180D01*
D14*
X023088Y014930D02*
X024888Y014930D01*
X024918Y014928D01*
X024948Y014923D01*
X024977Y014914D01*
X025004Y014901D01*
X025030Y014886D01*
X025054Y014867D01*
X025075Y014846D01*
X025094Y014822D01*
X025109Y014796D01*
X025122Y014769D01*
X025131Y014740D01*
X025136Y014710D01*
X025138Y014680D01*
X025138Y013630D01*
X025388Y013130D02*
X025388Y010930D01*
X025386Y010900D01*
X025381Y010870D01*
X025372Y010841D01*
X025359Y010814D01*
X025344Y010788D01*
X025325Y010764D01*
X025304Y010743D01*
X025280Y010724D01*
X025254Y010709D01*
X025227Y010696D01*
X025198Y010687D01*
X025168Y010682D01*
X025138Y010680D01*
X026538Y010780D02*
X026538Y010530D01*
X026538Y008780D01*
X026988Y008780D01*
X026988Y010530D01*
X026638Y010530D01*
X026638Y010680D01*
X027188Y010680D01*
X027188Y010780D02*
X026538Y010780D01*
X026538Y010530D02*
X026638Y010530D01*
X028788Y010680D02*
X029338Y010680D01*
X029338Y010530D01*
X028988Y010530D01*
X028988Y008780D01*
X029438Y008780D01*
X029438Y010530D01*
X029438Y010780D01*
X028788Y010780D01*
X029338Y010530D02*
X029438Y010530D01*
X027988Y007730D02*
X027988Y005130D01*
X026988Y004080D02*
X026538Y004080D01*
X026538Y002330D01*
X026538Y002080D01*
X027188Y002080D01*
X027188Y002180D02*
X026638Y002180D01*
X026638Y002330D01*
X026988Y002330D01*
X026988Y004080D01*
X025708Y004134D02*
X025495Y004348D01*
X025067Y004348D01*
X025281Y004565D02*
X025067Y004779D01*
X025281Y004992D01*
X025708Y004992D01*
X025601Y005210D02*
X025708Y005317D01*
X025708Y005530D01*
X025601Y005637D01*
X025174Y005637D02*
X025067Y005530D01*
X025067Y005317D01*
X025174Y005210D01*
X025601Y005210D01*
X025388Y004992D02*
X025388Y004565D01*
X025281Y004565D02*
X025708Y004565D01*
X025708Y004134D02*
X025495Y003921D01*
X025067Y003921D01*
X025174Y003703D02*
X025067Y003597D01*
X025067Y003383D01*
X025174Y003276D01*
X025601Y003276D01*
X025174Y003703D01*
X025601Y003703D01*
X025708Y003597D01*
X025708Y003383D01*
X025601Y003276D01*
X025708Y003059D02*
X025708Y002632D01*
X025708Y002845D02*
X025067Y002845D01*
X025281Y002632D01*
X025708Y002414D02*
X025708Y001987D01*
X025708Y002201D02*
X025067Y002201D01*
X025281Y001987D01*
X026538Y002330D02*
X026638Y002330D01*
X024658Y003599D02*
X024017Y003599D01*
X024017Y004026D01*
X024017Y004243D02*
X024551Y004243D01*
X024658Y004350D01*
X024658Y004563D01*
X024551Y004670D01*
X024017Y004670D01*
X024124Y004888D02*
X024017Y004994D01*
X024017Y005208D01*
X024124Y005315D01*
X024338Y005208D02*
X024445Y005315D01*
X024551Y005315D01*
X024658Y005208D01*
X024658Y004994D01*
X024551Y004888D01*
X024338Y004994D02*
X024338Y005208D01*
X024338Y004994D02*
X024231Y004888D01*
X024124Y004888D01*
X024017Y005532D02*
X024658Y005532D01*
X024658Y005959D01*
X024338Y005746D02*
X024338Y005532D01*
X024017Y005532D02*
X024017Y005959D01*
X025067Y006713D02*
X025708Y006713D01*
X025708Y006926D02*
X025708Y006499D01*
X025281Y006499D02*
X025067Y006713D01*
X025174Y007144D02*
X025067Y007250D01*
X025067Y007464D01*
X025174Y007571D01*
X025601Y007144D01*
X025708Y007250D01*
X025708Y007464D01*
X025601Y007571D01*
X025174Y007571D01*
X025281Y007788D02*
X025067Y008002D01*
X025281Y008215D01*
X025708Y008215D01*
X025388Y008215D02*
X025388Y007788D01*
X025281Y007788D02*
X025708Y007788D01*
X025601Y007144D02*
X025174Y007144D01*
X024888Y008430D02*
X023088Y008430D01*
X023058Y008432D01*
X023028Y008437D01*
X022999Y008446D01*
X022972Y008459D01*
X022946Y008474D01*
X022922Y008493D01*
X022901Y008514D01*
X022882Y008538D01*
X022867Y008564D01*
X022854Y008591D01*
X022845Y008620D01*
X022840Y008650D01*
X022838Y008680D01*
X022838Y009730D01*
X022588Y010230D02*
X022588Y012430D01*
X022590Y012460D01*
X022595Y012490D01*
X022604Y012519D01*
X022617Y012546D01*
X022632Y012572D01*
X022651Y012596D01*
X022672Y012617D01*
X022696Y012636D01*
X022722Y012651D01*
X022749Y012664D01*
X022778Y012673D01*
X022808Y012678D01*
X022838Y012680D01*
X022838Y014680D02*
X022838Y010630D01*
X024888Y008430D02*
X024918Y008432D01*
X024948Y008437D01*
X024977Y008446D01*
X025004Y008459D01*
X025030Y008474D01*
X025054Y008493D01*
X025075Y008514D01*
X025094Y008538D01*
X025109Y008564D01*
X025122Y008591D01*
X025131Y008620D01*
X025136Y008650D01*
X025138Y008680D01*
X025138Y012730D01*
X023088Y014930D02*
X023058Y014928D01*
X023028Y014923D01*
X022999Y014914D01*
X022972Y014901D01*
X022946Y014886D01*
X022922Y014867D01*
X022901Y014846D01*
X022882Y014822D01*
X022867Y014796D01*
X022854Y014769D01*
X022845Y014740D01*
X022840Y014710D01*
X022838Y014680D01*
X020208Y014799D02*
X019567Y014799D01*
X019567Y015012D02*
X019567Y014585D01*
X019567Y014368D02*
X020101Y014368D01*
X020208Y014261D01*
X020208Y014047D01*
X020101Y013941D01*
X019567Y013941D01*
X019674Y013723D02*
X019888Y013723D01*
X019995Y013616D01*
X019995Y013296D01*
X020208Y013296D02*
X019567Y013296D01*
X019567Y013616D01*
X019674Y013723D01*
X019567Y013079D02*
X020208Y013079D01*
X019567Y012652D01*
X020208Y012652D01*
X020208Y012435D02*
X020208Y012222D01*
X020208Y012329D02*
X019567Y012329D01*
X019567Y012435D02*
X019567Y012222D01*
X019674Y011360D02*
X019567Y011253D01*
X019567Y011040D01*
X019674Y010933D01*
X020101Y010933D01*
X020208Y011040D01*
X020208Y011253D01*
X020101Y011360D01*
X020208Y010715D02*
X019781Y010715D01*
X019567Y010502D01*
X019781Y010288D01*
X020208Y010288D01*
X019995Y010071D02*
X019567Y010071D01*
X019888Y010288D02*
X019888Y010715D01*
X019995Y010071D02*
X020208Y009857D01*
X019995Y009644D01*
X019567Y009644D01*
X019674Y009426D02*
X020101Y008999D01*
X020208Y009106D01*
X020208Y009319D01*
X020101Y009426D01*
X019674Y009426D01*
X019567Y009319D01*
X019567Y009106D01*
X019674Y008999D01*
X020101Y008999D01*
X020208Y008782D02*
X020208Y008355D01*
X019781Y008782D01*
X019674Y008782D01*
X019567Y008675D01*
X019567Y008461D01*
X019674Y008355D01*
X019567Y007924D02*
X020208Y007924D01*
X020208Y008137D02*
X020208Y007710D01*
X019781Y007710D02*
X019567Y007924D01*
X016414Y007710D02*
X015987Y007710D01*
X015987Y008351D01*
X016414Y008351D01*
X016200Y008030D02*
X015987Y008030D01*
X015769Y007924D02*
X015769Y008351D01*
X015342Y008351D02*
X015342Y007924D01*
X015556Y007710D01*
X015769Y007924D01*
X015126Y007710D02*
X014913Y007710D01*
X015019Y007710D02*
X015019Y008351D01*
X014913Y008351D02*
X015126Y008351D01*
X014268Y008351D02*
X014268Y007710D01*
X014695Y007710D01*
X014695Y011210D02*
X014268Y011210D01*
X014268Y011851D01*
X014695Y011851D01*
X014913Y011637D02*
X015126Y011851D01*
X015340Y011637D01*
X015340Y011210D01*
X015557Y011210D02*
X015557Y011851D01*
X015877Y011851D01*
X015984Y011744D01*
X015984Y011530D01*
X015877Y011424D01*
X015557Y011424D01*
X015771Y011424D02*
X015984Y011210D01*
X016415Y011210D02*
X016415Y011851D01*
X016202Y011851D02*
X016629Y011851D01*
X016846Y011851D02*
X016846Y011210D01*
X016846Y011530D02*
X017273Y011530D01*
X017273Y011210D02*
X017273Y011851D01*
X015340Y011530D02*
X014913Y011530D01*
X014913Y011637D02*
X014913Y011210D01*
X014482Y011530D02*
X014268Y011530D01*
X014268Y014210D02*
X014268Y014851D01*
X014695Y014210D01*
X014695Y014851D01*
X014913Y014851D02*
X014913Y014210D01*
X015340Y014210D01*
X015557Y014317D02*
X015664Y014210D01*
X015877Y014210D01*
X015984Y014317D01*
X015984Y014851D01*
X016202Y014851D02*
X016629Y014851D01*
X016415Y014851D02*
X016415Y014210D01*
X016846Y014210D02*
X016846Y014851D01*
X017167Y014851D01*
X017273Y014744D01*
X017273Y014530D01*
X017167Y014424D01*
X016846Y014424D01*
X017060Y014424D02*
X017273Y014210D01*
X017491Y014210D02*
X017491Y014637D01*
X017704Y014851D01*
X017918Y014637D01*
X017918Y014210D01*
X018135Y014210D02*
X018562Y014210D01*
X018135Y014210D02*
X018135Y014851D01*
X017918Y014530D02*
X017491Y014530D01*
X015557Y014317D02*
X015557Y014851D01*
X015340Y014851D02*
X014913Y014851D01*
X014913Y014530D02*
X015126Y014530D01*
X008888Y021180D02*
X008890Y021253D01*
X008896Y021326D01*
X008906Y021398D01*
X008920Y021470D01*
X008937Y021541D01*
X008959Y021611D01*
X008984Y021680D01*
X009013Y021747D01*
X009045Y021812D01*
X009081Y021876D01*
X009121Y021938D01*
X009163Y021997D01*
X009209Y022054D01*
X009258Y022108D01*
X009310Y022160D01*
X009364Y022209D01*
X009421Y022255D01*
X009480Y022297D01*
X009542Y022337D01*
X009606Y022373D01*
X009671Y022405D01*
X009738Y022434D01*
X009807Y022459D01*
X009877Y022481D01*
X009948Y022498D01*
X010020Y022512D01*
X010092Y022522D01*
X010165Y022528D01*
X010238Y022530D01*
X010311Y022528D01*
X010384Y022522D01*
X010456Y022512D01*
X010528Y022498D01*
X010599Y022481D01*
X010669Y022459D01*
X010738Y022434D01*
X010805Y022405D01*
X010870Y022373D01*
X010934Y022337D01*
X010996Y022297D01*
X011055Y022255D01*
X011112Y022209D01*
X011166Y022160D01*
X011218Y022108D01*
X011267Y022054D01*
X011313Y021997D01*
X011355Y021938D01*
X011395Y021876D01*
X011431Y021812D01*
X011463Y021747D01*
X011492Y021680D01*
X011517Y021611D01*
X011539Y021541D01*
X011556Y021470D01*
X011570Y021398D01*
X011580Y021326D01*
X011586Y021253D01*
X011588Y021180D01*
X011586Y021107D01*
X011580Y021034D01*
X011570Y020962D01*
X011556Y020890D01*
X011539Y020819D01*
X011517Y020749D01*
X011492Y020680D01*
X011463Y020613D01*
X011431Y020548D01*
X011395Y020484D01*
X011355Y020422D01*
X011313Y020363D01*
X011267Y020306D01*
X011218Y020252D01*
X011166Y020200D01*
X011112Y020151D01*
X011055Y020105D01*
X010996Y020063D01*
X010934Y020023D01*
X010870Y019987D01*
X010805Y019955D01*
X010738Y019926D01*
X010669Y019901D01*
X010599Y019879D01*
X010528Y019862D01*
X010456Y019848D01*
X010384Y019838D01*
X010311Y019832D01*
X010238Y019830D01*
X010165Y019832D01*
X010092Y019838D01*
X010020Y019848D01*
X009948Y019862D01*
X009877Y019879D01*
X009807Y019901D01*
X009738Y019926D01*
X009671Y019955D01*
X009606Y019987D01*
X009542Y020023D01*
X009480Y020063D01*
X009421Y020105D01*
X009364Y020151D01*
X009310Y020200D01*
X009258Y020252D01*
X009209Y020306D01*
X009163Y020363D01*
X009121Y020422D01*
X009081Y020484D01*
X009045Y020548D01*
X009013Y020613D01*
X008984Y020680D01*
X008959Y020749D01*
X008937Y020819D01*
X008920Y020890D01*
X008906Y020962D01*
X008896Y021034D01*
X008890Y021107D01*
X008888Y021180D01*
X008888Y034180D02*
X008890Y034253D01*
X008896Y034326D01*
X008906Y034398D01*
X008920Y034470D01*
X008937Y034541D01*
X008959Y034611D01*
X008984Y034680D01*
X009013Y034747D01*
X009045Y034812D01*
X009081Y034876D01*
X009121Y034938D01*
X009163Y034997D01*
X009209Y035054D01*
X009258Y035108D01*
X009310Y035160D01*
X009364Y035209D01*
X009421Y035255D01*
X009480Y035297D01*
X009542Y035337D01*
X009606Y035373D01*
X009671Y035405D01*
X009738Y035434D01*
X009807Y035459D01*
X009877Y035481D01*
X009948Y035498D01*
X010020Y035512D01*
X010092Y035522D01*
X010165Y035528D01*
X010238Y035530D01*
X010311Y035528D01*
X010384Y035522D01*
X010456Y035512D01*
X010528Y035498D01*
X010599Y035481D01*
X010669Y035459D01*
X010738Y035434D01*
X010805Y035405D01*
X010870Y035373D01*
X010934Y035337D01*
X010996Y035297D01*
X011055Y035255D01*
X011112Y035209D01*
X011166Y035160D01*
X011218Y035108D01*
X011267Y035054D01*
X011313Y034997D01*
X011355Y034938D01*
X011395Y034876D01*
X011431Y034812D01*
X011463Y034747D01*
X011492Y034680D01*
X011517Y034611D01*
X011539Y034541D01*
X011556Y034470D01*
X011570Y034398D01*
X011580Y034326D01*
X011586Y034253D01*
X011588Y034180D01*
X011586Y034107D01*
X011580Y034034D01*
X011570Y033962D01*
X011556Y033890D01*
X011539Y033819D01*
X011517Y033749D01*
X011492Y033680D01*
X011463Y033613D01*
X011431Y033548D01*
X011395Y033484D01*
X011355Y033422D01*
X011313Y033363D01*
X011267Y033306D01*
X011218Y033252D01*
X011166Y033200D01*
X011112Y033151D01*
X011055Y033105D01*
X010996Y033063D01*
X010934Y033023D01*
X010870Y032987D01*
X010805Y032955D01*
X010738Y032926D01*
X010669Y032901D01*
X010599Y032879D01*
X010528Y032862D01*
X010456Y032848D01*
X010384Y032838D01*
X010311Y032832D01*
X010238Y032830D01*
X010165Y032832D01*
X010092Y032838D01*
X010020Y032848D01*
X009948Y032862D01*
X009877Y032879D01*
X009807Y032901D01*
X009738Y032926D01*
X009671Y032955D01*
X009606Y032987D01*
X009542Y033023D01*
X009480Y033063D01*
X009421Y033105D01*
X009364Y033151D01*
X009310Y033200D01*
X009258Y033252D01*
X009209Y033306D01*
X009163Y033363D01*
X009121Y033422D01*
X009081Y033484D01*
X009045Y033548D01*
X009013Y033613D01*
X008984Y033680D01*
X008959Y033749D01*
X008937Y033819D01*
X008920Y033890D01*
X008906Y033962D01*
X008896Y034034D01*
X008890Y034107D01*
X008888Y034180D01*
X032238Y034180D02*
X032488Y033930D01*
X032988Y033930D01*
X033238Y034180D01*
X033488Y033930D01*
X033988Y033930D01*
X034238Y034180D01*
X034488Y033930D01*
X034988Y033930D01*
X035238Y034180D01*
X035488Y033930D01*
X035988Y033930D01*
X036238Y034180D01*
X036488Y033930D01*
X036988Y033930D01*
X037238Y034180D01*
X037488Y033930D01*
X037988Y033930D01*
X038238Y034180D01*
X038488Y033930D01*
X038988Y033930D01*
X039238Y034180D01*
X039238Y034680D01*
X038988Y034930D01*
X038488Y034930D01*
X038238Y034680D01*
X037988Y034930D01*
X037488Y034930D01*
X037238Y034680D01*
X036988Y034930D01*
X036488Y034930D01*
X036238Y034680D01*
X035988Y034930D01*
X035488Y034930D01*
X035238Y034680D01*
X034988Y034930D01*
X034488Y034930D01*
X034238Y034680D01*
X033988Y034930D01*
X033488Y034930D01*
X033238Y034680D01*
X032988Y034930D01*
X032488Y034930D01*
X032238Y034680D01*
X032238Y034180D01*
X037738Y029680D02*
X037740Y029724D01*
X037746Y029768D01*
X037756Y029811D01*
X037769Y029853D01*
X037786Y029894D01*
X037807Y029933D01*
X037831Y029970D01*
X037858Y030005D01*
X037888Y030037D01*
X037921Y030067D01*
X037957Y030093D01*
X037994Y030117D01*
X038034Y030136D01*
X038075Y030153D01*
X038118Y030165D01*
X038161Y030174D01*
X038205Y030179D01*
X038249Y030180D01*
X038293Y030177D01*
X038337Y030170D01*
X038380Y030159D01*
X038422Y030145D01*
X038462Y030127D01*
X038501Y030105D01*
X038537Y030081D01*
X038571Y030053D01*
X038603Y030022D01*
X038632Y029988D01*
X038658Y029952D01*
X038680Y029914D01*
X038699Y029874D01*
X038714Y029832D01*
X038726Y029790D01*
X038734Y029746D01*
X038738Y029702D01*
X038738Y029658D01*
X038734Y029614D01*
X038726Y029570D01*
X038714Y029528D01*
X038699Y029486D01*
X038680Y029446D01*
X038658Y029408D01*
X038632Y029372D01*
X038603Y029338D01*
X038571Y029307D01*
X038537Y029279D01*
X038501Y029255D01*
X038462Y029233D01*
X038422Y029215D01*
X038380Y029201D01*
X038337Y029190D01*
X038293Y029183D01*
X038249Y029180D01*
X038205Y029181D01*
X038161Y029186D01*
X038118Y029195D01*
X038075Y029207D01*
X038034Y029224D01*
X037994Y029243D01*
X037957Y029267D01*
X037921Y029293D01*
X037888Y029323D01*
X037858Y029355D01*
X037831Y029390D01*
X037807Y029427D01*
X037786Y029466D01*
X037769Y029507D01*
X037756Y029549D01*
X037746Y029592D01*
X037740Y029636D01*
X037738Y029680D01*
X035488Y029680D02*
X035490Y029785D01*
X035496Y029889D01*
X035506Y029993D01*
X035520Y030097D01*
X035538Y030200D01*
X035559Y030303D01*
X035585Y030404D01*
X035615Y030505D01*
X035648Y030604D01*
X035685Y030702D01*
X035726Y030799D01*
X035770Y030893D01*
X035818Y030986D01*
X035870Y031078D01*
X035925Y031167D01*
X035983Y031254D01*
X036044Y031338D01*
X036109Y031421D01*
X036177Y031501D01*
X036248Y031578D01*
X036321Y031652D01*
X036398Y031724D01*
X036477Y031792D01*
X036559Y031858D01*
X036643Y031920D01*
X036729Y031979D01*
X036818Y032035D01*
X036909Y032087D01*
X037001Y032136D01*
X037096Y032181D01*
X037192Y032223D01*
X037289Y032261D01*
X037388Y032295D01*
X037488Y032326D01*
X037590Y032352D01*
X037692Y032375D01*
X037795Y032394D01*
X037899Y032409D01*
X038003Y032420D01*
X038107Y032427D01*
X038212Y032430D01*
X038317Y032429D01*
X038421Y032424D01*
X038525Y032415D01*
X038629Y032402D01*
X038733Y032385D01*
X038835Y032364D01*
X038937Y032340D01*
X039038Y032311D01*
X039137Y032279D01*
X039236Y032243D01*
X039333Y032203D01*
X039428Y032159D01*
X039521Y032112D01*
X039613Y032062D01*
X039703Y032007D01*
X039790Y031950D01*
X039876Y031889D01*
X039958Y031825D01*
X040039Y031758D01*
X040117Y031688D01*
X040192Y031615D01*
X040264Y031539D01*
X040333Y031461D01*
X040400Y031380D01*
X040463Y031296D01*
X040523Y031211D01*
X040579Y031122D01*
X040633Y031032D01*
X040682Y030940D01*
X040728Y030846D01*
X040771Y030750D01*
X040810Y030653D01*
X040845Y030555D01*
X040877Y030455D01*
X040904Y030354D01*
X040928Y030252D01*
X040948Y030149D01*
X040964Y030045D01*
X040976Y029941D01*
X040984Y029837D01*
X040988Y029732D01*
X040988Y029628D01*
X040984Y029523D01*
X040976Y029419D01*
X040964Y029315D01*
X040948Y029211D01*
X040928Y029108D01*
X040904Y029006D01*
X040877Y028905D01*
X040845Y028805D01*
X040810Y028707D01*
X040771Y028610D01*
X040728Y028514D01*
X040682Y028420D01*
X040633Y028328D01*
X040579Y028238D01*
X040523Y028149D01*
X040463Y028064D01*
X040400Y027980D01*
X040333Y027899D01*
X040264Y027821D01*
X040192Y027745D01*
X040117Y027672D01*
X040039Y027602D01*
X039958Y027535D01*
X039876Y027471D01*
X039790Y027410D01*
X039703Y027353D01*
X039613Y027298D01*
X039521Y027248D01*
X039428Y027201D01*
X039333Y027157D01*
X039236Y027117D01*
X039137Y027081D01*
X039038Y027049D01*
X038937Y027020D01*
X038835Y026996D01*
X038733Y026975D01*
X038629Y026958D01*
X038525Y026945D01*
X038421Y026936D01*
X038317Y026931D01*
X038212Y026930D01*
X038107Y026933D01*
X038003Y026940D01*
X037899Y026951D01*
X037795Y026966D01*
X037692Y026985D01*
X037590Y027008D01*
X037488Y027034D01*
X037388Y027065D01*
X037289Y027099D01*
X037192Y027137D01*
X037096Y027179D01*
X037001Y027224D01*
X036909Y027273D01*
X036818Y027325D01*
X036729Y027381D01*
X036643Y027440D01*
X036559Y027502D01*
X036477Y027568D01*
X036398Y027636D01*
X036321Y027708D01*
X036248Y027782D01*
X036177Y027859D01*
X036109Y027939D01*
X036044Y028022D01*
X035983Y028106D01*
X035925Y028193D01*
X035870Y028282D01*
X035818Y028374D01*
X035770Y028467D01*
X035726Y028561D01*
X035685Y028658D01*
X035648Y028756D01*
X035615Y028855D01*
X035585Y028956D01*
X035559Y029057D01*
X035538Y029160D01*
X035520Y029263D01*
X035506Y029367D01*
X035496Y029471D01*
X035490Y029575D01*
X035488Y029680D01*
X035188Y027230D02*
X032288Y027230D01*
X032258Y027228D01*
X032228Y027223D01*
X032199Y027214D01*
X032172Y027201D01*
X032146Y027186D01*
X032122Y027167D01*
X032101Y027146D01*
X032082Y027122D01*
X032067Y027096D01*
X032054Y027069D01*
X032045Y027040D01*
X032040Y027010D01*
X032038Y026980D01*
X032038Y025880D01*
X032040Y025850D01*
X032045Y025820D01*
X032054Y025791D01*
X032067Y025764D01*
X032082Y025738D01*
X032101Y025714D01*
X032122Y025693D01*
X032146Y025674D01*
X032172Y025659D01*
X032199Y025646D01*
X032228Y025637D01*
X032258Y025632D01*
X032288Y025630D01*
X035188Y025630D01*
X035218Y025632D01*
X035248Y025637D01*
X035277Y025646D01*
X035304Y025659D01*
X035330Y025674D01*
X035354Y025693D01*
X035375Y025714D01*
X035394Y025738D01*
X035409Y025764D01*
X035422Y025791D01*
X035431Y025820D01*
X035436Y025850D01*
X035438Y025880D01*
X035438Y026980D01*
X035436Y027010D01*
X035431Y027040D01*
X035422Y027069D01*
X035409Y027096D01*
X035394Y027122D01*
X035375Y027146D01*
X035354Y027167D01*
X035330Y027186D01*
X035304Y027201D01*
X035277Y027214D01*
X035248Y027223D01*
X035218Y027228D01*
X035188Y027230D01*
X038938Y028180D02*
X038940Y028224D01*
X038946Y028268D01*
X038956Y028311D01*
X038969Y028353D01*
X038986Y028394D01*
X039007Y028433D01*
X039031Y028470D01*
X039058Y028505D01*
X039088Y028537D01*
X039121Y028567D01*
X039157Y028593D01*
X039194Y028617D01*
X039234Y028636D01*
X039275Y028653D01*
X039318Y028665D01*
X039361Y028674D01*
X039405Y028679D01*
X039449Y028680D01*
X039493Y028677D01*
X039537Y028670D01*
X039580Y028659D01*
X039622Y028645D01*
X039662Y028627D01*
X039701Y028605D01*
X039737Y028581D01*
X039771Y028553D01*
X039803Y028522D01*
X039832Y028488D01*
X039858Y028452D01*
X039880Y028414D01*
X039899Y028374D01*
X039914Y028332D01*
X039926Y028290D01*
X039934Y028246D01*
X039938Y028202D01*
X039938Y028158D01*
X039934Y028114D01*
X039926Y028070D01*
X039914Y028028D01*
X039899Y027986D01*
X039880Y027946D01*
X039858Y027908D01*
X039832Y027872D01*
X039803Y027838D01*
X039771Y027807D01*
X039737Y027779D01*
X039701Y027755D01*
X039662Y027733D01*
X039622Y027715D01*
X039580Y027701D01*
X039537Y027690D01*
X039493Y027683D01*
X039449Y027680D01*
X039405Y027681D01*
X039361Y027686D01*
X039318Y027695D01*
X039275Y027707D01*
X039234Y027724D01*
X039194Y027743D01*
X039157Y027767D01*
X039121Y027793D01*
X039088Y027823D01*
X039058Y027855D01*
X039031Y027890D01*
X039007Y027927D01*
X038986Y027966D01*
X038969Y028007D01*
X038956Y028049D01*
X038946Y028092D01*
X038940Y028136D01*
X038938Y028180D01*
X048517Y027461D02*
X049158Y027461D01*
X049158Y027355D02*
X049158Y027568D01*
X049051Y027784D02*
X048945Y027891D01*
X048945Y028211D01*
X048838Y028211D02*
X049158Y028211D01*
X049158Y027891D01*
X049051Y027784D01*
X048731Y027891D02*
X048731Y028105D01*
X048838Y028211D01*
X048838Y028429D02*
X049051Y028429D01*
X049158Y028536D01*
X049158Y028856D01*
X049158Y029073D02*
X048517Y029073D01*
X048731Y028856D02*
X048731Y028536D01*
X048838Y028429D01*
X049567Y027999D02*
X050208Y027999D01*
X050208Y028319D01*
X050101Y028426D01*
X049888Y028426D01*
X049781Y028319D01*
X049781Y027999D01*
X049888Y027782D02*
X049781Y027675D01*
X049781Y027461D01*
X049888Y027355D01*
X050101Y027355D01*
X050208Y027461D01*
X050208Y027675D01*
X050101Y027782D01*
X049888Y027782D01*
X049888Y027137D02*
X049674Y027137D01*
X049567Y027030D01*
X049567Y026710D01*
X050208Y026710D01*
X049995Y026710D02*
X049995Y027030D01*
X049888Y027137D01*
X049995Y026924D02*
X050208Y027137D01*
X049158Y027030D02*
X049158Y026710D01*
X048517Y026710D01*
X048517Y027030D01*
X048624Y027137D01*
X048731Y027137D01*
X048838Y027030D01*
X048838Y026710D01*
X048838Y027030D02*
X048945Y027137D01*
X049051Y027137D01*
X049158Y027030D01*
X048517Y027355D02*
X048517Y027461D01*
X049781Y028750D02*
X049888Y028644D01*
X050101Y028644D01*
X050208Y028750D01*
X050208Y028964D01*
X050101Y029071D01*
X049888Y029071D01*
X049781Y028964D01*
X049781Y028750D01*
X049781Y029288D02*
X049781Y029502D01*
X049674Y029395D02*
X050101Y029395D01*
X050208Y029502D01*
X050208Y029718D02*
X050208Y029931D01*
X050208Y029825D02*
X049781Y029825D01*
X049781Y029718D01*
X049567Y029825D02*
X049461Y029825D01*
X049158Y029394D02*
X048945Y029073D01*
X048731Y029394D01*
X048624Y030255D02*
X049051Y030255D01*
X049158Y030362D01*
X049158Y030575D01*
X049051Y030682D01*
X049051Y030900D02*
X048945Y031006D01*
X048945Y031327D01*
X048838Y031327D02*
X049158Y031327D01*
X049158Y031006D01*
X049051Y030900D01*
X048731Y031006D02*
X048731Y031220D01*
X048838Y031327D01*
X048731Y031544D02*
X048731Y031758D01*
X048624Y031651D02*
X049051Y031651D01*
X049158Y031758D01*
X049781Y031219D02*
X049781Y030899D01*
X049888Y030792D01*
X049995Y030899D01*
X049995Y031112D01*
X050101Y031219D01*
X050208Y031112D01*
X050208Y030792D01*
X050208Y030575D02*
X050208Y030254D01*
X050101Y030148D01*
X049888Y030148D01*
X049781Y030254D01*
X049781Y030575D01*
X048624Y030682D02*
X048517Y030575D01*
X048517Y030362D01*
X048624Y030255D01*
X048888Y034180D02*
X048890Y034253D01*
X048896Y034326D01*
X048906Y034398D01*
X048920Y034470D01*
X048937Y034541D01*
X048959Y034611D01*
X048984Y034680D01*
X049013Y034747D01*
X049045Y034812D01*
X049081Y034876D01*
X049121Y034938D01*
X049163Y034997D01*
X049209Y035054D01*
X049258Y035108D01*
X049310Y035160D01*
X049364Y035209D01*
X049421Y035255D01*
X049480Y035297D01*
X049542Y035337D01*
X049606Y035373D01*
X049671Y035405D01*
X049738Y035434D01*
X049807Y035459D01*
X049877Y035481D01*
X049948Y035498D01*
X050020Y035512D01*
X050092Y035522D01*
X050165Y035528D01*
X050238Y035530D01*
X050311Y035528D01*
X050384Y035522D01*
X050456Y035512D01*
X050528Y035498D01*
X050599Y035481D01*
X050669Y035459D01*
X050738Y035434D01*
X050805Y035405D01*
X050870Y035373D01*
X050934Y035337D01*
X050996Y035297D01*
X051055Y035255D01*
X051112Y035209D01*
X051166Y035160D01*
X051218Y035108D01*
X051267Y035054D01*
X051313Y034997D01*
X051355Y034938D01*
X051395Y034876D01*
X051431Y034812D01*
X051463Y034747D01*
X051492Y034680D01*
X051517Y034611D01*
X051539Y034541D01*
X051556Y034470D01*
X051570Y034398D01*
X051580Y034326D01*
X051586Y034253D01*
X051588Y034180D01*
X051586Y034107D01*
X051580Y034034D01*
X051570Y033962D01*
X051556Y033890D01*
X051539Y033819D01*
X051517Y033749D01*
X051492Y033680D01*
X051463Y033613D01*
X051431Y033548D01*
X051395Y033484D01*
X051355Y033422D01*
X051313Y033363D01*
X051267Y033306D01*
X051218Y033252D01*
X051166Y033200D01*
X051112Y033151D01*
X051055Y033105D01*
X050996Y033063D01*
X050934Y033023D01*
X050870Y032987D01*
X050805Y032955D01*
X050738Y032926D01*
X050669Y032901D01*
X050599Y032879D01*
X050528Y032862D01*
X050456Y032848D01*
X050384Y032838D01*
X050311Y032832D01*
X050238Y032830D01*
X050165Y032832D01*
X050092Y032838D01*
X050020Y032848D01*
X049948Y032862D01*
X049877Y032879D01*
X049807Y032901D01*
X049738Y032926D01*
X049671Y032955D01*
X049606Y032987D01*
X049542Y033023D01*
X049480Y033063D01*
X049421Y033105D01*
X049364Y033151D01*
X049310Y033200D01*
X049258Y033252D01*
X049209Y033306D01*
X049163Y033363D01*
X049121Y033422D01*
X049081Y033484D01*
X049045Y033548D01*
X049013Y033613D01*
X048984Y033680D01*
X048959Y033749D01*
X048937Y033819D01*
X048920Y033890D01*
X048906Y033962D01*
X048896Y034034D01*
X048890Y034107D01*
X048888Y034180D01*
X048888Y021180D02*
X048890Y021253D01*
X048896Y021326D01*
X048906Y021398D01*
X048920Y021470D01*
X048937Y021541D01*
X048959Y021611D01*
X048984Y021680D01*
X049013Y021747D01*
X049045Y021812D01*
X049081Y021876D01*
X049121Y021938D01*
X049163Y021997D01*
X049209Y022054D01*
X049258Y022108D01*
X049310Y022160D01*
X049364Y022209D01*
X049421Y022255D01*
X049480Y022297D01*
X049542Y022337D01*
X049606Y022373D01*
X049671Y022405D01*
X049738Y022434D01*
X049807Y022459D01*
X049877Y022481D01*
X049948Y022498D01*
X050020Y022512D01*
X050092Y022522D01*
X050165Y022528D01*
X050238Y022530D01*
X050311Y022528D01*
X050384Y022522D01*
X050456Y022512D01*
X050528Y022498D01*
X050599Y022481D01*
X050669Y022459D01*
X050738Y022434D01*
X050805Y022405D01*
X050870Y022373D01*
X050934Y022337D01*
X050996Y022297D01*
X051055Y022255D01*
X051112Y022209D01*
X051166Y022160D01*
X051218Y022108D01*
X051267Y022054D01*
X051313Y021997D01*
X051355Y021938D01*
X051395Y021876D01*
X051431Y021812D01*
X051463Y021747D01*
X051492Y021680D01*
X051517Y021611D01*
X051539Y021541D01*
X051556Y021470D01*
X051570Y021398D01*
X051580Y021326D01*
X051586Y021253D01*
X051588Y021180D01*
X051586Y021107D01*
X051580Y021034D01*
X051570Y020962D01*
X051556Y020890D01*
X051539Y020819D01*
X051517Y020749D01*
X051492Y020680D01*
X051463Y020613D01*
X051431Y020548D01*
X051395Y020484D01*
X051355Y020422D01*
X051313Y020363D01*
X051267Y020306D01*
X051218Y020252D01*
X051166Y020200D01*
X051112Y020151D01*
X051055Y020105D01*
X050996Y020063D01*
X050934Y020023D01*
X050870Y019987D01*
X050805Y019955D01*
X050738Y019926D01*
X050669Y019901D01*
X050599Y019879D01*
X050528Y019862D01*
X050456Y019848D01*
X050384Y019838D01*
X050311Y019832D01*
X050238Y019830D01*
X050165Y019832D01*
X050092Y019838D01*
X050020Y019848D01*
X049948Y019862D01*
X049877Y019879D01*
X049807Y019901D01*
X049738Y019926D01*
X049671Y019955D01*
X049606Y019987D01*
X049542Y020023D01*
X049480Y020063D01*
X049421Y020105D01*
X049364Y020151D01*
X049310Y020200D01*
X049258Y020252D01*
X049209Y020306D01*
X049163Y020363D01*
X049121Y020422D01*
X049081Y020484D01*
X049045Y020548D01*
X049013Y020613D01*
X048984Y020680D01*
X048959Y020749D01*
X048937Y020819D01*
X048920Y020890D01*
X048906Y020962D01*
X048896Y021034D01*
X048890Y021107D01*
X048888Y021180D01*
X047888Y016680D02*
X047888Y010180D01*
X038988Y010180D01*
X038988Y016680D01*
X047888Y016680D01*
X045588Y014900D02*
X045588Y013680D01*
X045338Y013430D02*
X042738Y013430D01*
X042488Y013680D02*
X041488Y013180D01*
X041488Y013680D01*
X041238Y013430D02*
X040838Y013430D01*
X041988Y013180D02*
X041988Y011080D01*
X041738Y011080D01*
X041888Y008715D02*
X041888Y008288D01*
X042208Y008288D02*
X041567Y008288D01*
X041567Y008071D02*
X041567Y007644D01*
X041567Y007857D02*
X042208Y007857D01*
X042208Y007426D02*
X041995Y007213D01*
X041995Y007319D02*
X041995Y006999D01*
X042208Y006999D02*
X041567Y006999D01*
X041567Y007319D01*
X041674Y007426D01*
X041888Y007426D01*
X041995Y007319D01*
X041888Y006782D02*
X041888Y006355D01*
X041781Y006355D02*
X041567Y006568D01*
X041781Y006782D01*
X042208Y006782D01*
X042208Y006355D02*
X041781Y006355D01*
X041567Y006137D02*
X041567Y005710D01*
X042208Y005710D01*
X042208Y006137D01*
X041888Y005924D02*
X041888Y005710D01*
X044567Y005710D02*
X045208Y005710D01*
X045208Y006137D01*
X045208Y006355D02*
X045208Y006568D01*
X045208Y006461D02*
X044567Y006461D01*
X044567Y006355D02*
X044567Y006568D01*
X044567Y006784D02*
X044995Y006784D01*
X045208Y006998D01*
X044995Y007211D01*
X044567Y007211D01*
X044567Y007429D02*
X045208Y007429D01*
X045208Y007856D01*
X044888Y007642D02*
X044888Y007429D01*
X044567Y007429D02*
X044567Y007856D01*
X042208Y008715D02*
X041567Y008715D01*
X045588Y011950D02*
X045588Y013180D01*
X041988Y013680D02*
X041988Y015780D01*
X041738Y015780D01*
X029438Y004080D02*
X028988Y004080D01*
X028988Y002330D01*
X029338Y002330D01*
X029338Y002180D01*
X028788Y002180D01*
X028788Y002080D02*
X029438Y002080D01*
X029438Y002330D01*
X029438Y004080D01*
X029438Y002330D02*
X029338Y002330D01*
X024338Y003599D02*
X024338Y003812D01*
X008888Y002180D02*
X008890Y002253D01*
X008896Y002326D01*
X008906Y002398D01*
X008920Y002470D01*
X008937Y002541D01*
X008959Y002611D01*
X008984Y002680D01*
X009013Y002747D01*
X009045Y002812D01*
X009081Y002876D01*
X009121Y002938D01*
X009163Y002997D01*
X009209Y003054D01*
X009258Y003108D01*
X009310Y003160D01*
X009364Y003209D01*
X009421Y003255D01*
X009480Y003297D01*
X009542Y003337D01*
X009606Y003373D01*
X009671Y003405D01*
X009738Y003434D01*
X009807Y003459D01*
X009877Y003481D01*
X009948Y003498D01*
X010020Y003512D01*
X010092Y003522D01*
X010165Y003528D01*
X010238Y003530D01*
X010311Y003528D01*
X010384Y003522D01*
X010456Y003512D01*
X010528Y003498D01*
X010599Y003481D01*
X010669Y003459D01*
X010738Y003434D01*
X010805Y003405D01*
X010870Y003373D01*
X010934Y003337D01*
X010996Y003297D01*
X011055Y003255D01*
X011112Y003209D01*
X011166Y003160D01*
X011218Y003108D01*
X011267Y003054D01*
X011313Y002997D01*
X011355Y002938D01*
X011395Y002876D01*
X011431Y002812D01*
X011463Y002747D01*
X011492Y002680D01*
X011517Y002611D01*
X011539Y002541D01*
X011556Y002470D01*
X011570Y002398D01*
X011580Y002326D01*
X011586Y002253D01*
X011588Y002180D01*
X011586Y002107D01*
X011580Y002034D01*
X011570Y001962D01*
X011556Y001890D01*
X011539Y001819D01*
X011517Y001749D01*
X011492Y001680D01*
X011463Y001613D01*
X011431Y001548D01*
X011395Y001484D01*
X011355Y001422D01*
X011313Y001363D01*
X011267Y001306D01*
X011218Y001252D01*
X011166Y001200D01*
X011112Y001151D01*
X011055Y001105D01*
X010996Y001063D01*
X010934Y001023D01*
X010870Y000987D01*
X010805Y000955D01*
X010738Y000926D01*
X010669Y000901D01*
X010599Y000879D01*
X010528Y000862D01*
X010456Y000848D01*
X010384Y000838D01*
X010311Y000832D01*
X010238Y000830D01*
X010165Y000832D01*
X010092Y000838D01*
X010020Y000848D01*
X009948Y000862D01*
X009877Y000879D01*
X009807Y000901D01*
X009738Y000926D01*
X009671Y000955D01*
X009606Y000987D01*
X009542Y001023D01*
X009480Y001063D01*
X009421Y001105D01*
X009364Y001151D01*
X009310Y001200D01*
X009258Y001252D01*
X009209Y001306D01*
X009163Y001363D01*
X009121Y001422D01*
X009081Y001484D01*
X009045Y001548D01*
X009013Y001613D01*
X008984Y001680D01*
X008959Y001749D01*
X008937Y001819D01*
X008920Y001890D01*
X008906Y001962D01*
X008896Y002034D01*
X008890Y002107D01*
X008888Y002180D01*
X048888Y002180D02*
X048890Y002253D01*
X048896Y002326D01*
X048906Y002398D01*
X048920Y002470D01*
X048937Y002541D01*
X048959Y002611D01*
X048984Y002680D01*
X049013Y002747D01*
X049045Y002812D01*
X049081Y002876D01*
X049121Y002938D01*
X049163Y002997D01*
X049209Y003054D01*
X049258Y003108D01*
X049310Y003160D01*
X049364Y003209D01*
X049421Y003255D01*
X049480Y003297D01*
X049542Y003337D01*
X049606Y003373D01*
X049671Y003405D01*
X049738Y003434D01*
X049807Y003459D01*
X049877Y003481D01*
X049948Y003498D01*
X050020Y003512D01*
X050092Y003522D01*
X050165Y003528D01*
X050238Y003530D01*
X050311Y003528D01*
X050384Y003522D01*
X050456Y003512D01*
X050528Y003498D01*
X050599Y003481D01*
X050669Y003459D01*
X050738Y003434D01*
X050805Y003405D01*
X050870Y003373D01*
X050934Y003337D01*
X050996Y003297D01*
X051055Y003255D01*
X051112Y003209D01*
X051166Y003160D01*
X051218Y003108D01*
X051267Y003054D01*
X051313Y002997D01*
X051355Y002938D01*
X051395Y002876D01*
X051431Y002812D01*
X051463Y002747D01*
X051492Y002680D01*
X051517Y002611D01*
X051539Y002541D01*
X051556Y002470D01*
X051570Y002398D01*
X051580Y002326D01*
X051586Y002253D01*
X051588Y002180D01*
X051586Y002107D01*
X051580Y002034D01*
X051570Y001962D01*
X051556Y001890D01*
X051539Y001819D01*
X051517Y001749D01*
X051492Y001680D01*
X051463Y001613D01*
X051431Y001548D01*
X051395Y001484D01*
X051355Y001422D01*
X051313Y001363D01*
X051267Y001306D01*
X051218Y001252D01*
X051166Y001200D01*
X051112Y001151D01*
X051055Y001105D01*
X050996Y001063D01*
X050934Y001023D01*
X050870Y000987D01*
X050805Y000955D01*
X050738Y000926D01*
X050669Y000901D01*
X050599Y000879D01*
X050528Y000862D01*
X050456Y000848D01*
X050384Y000838D01*
X050311Y000832D01*
X050238Y000830D01*
X050165Y000832D01*
X050092Y000838D01*
X050020Y000848D01*
X049948Y000862D01*
X049877Y000879D01*
X049807Y000901D01*
X049738Y000926D01*
X049671Y000955D01*
X049606Y000987D01*
X049542Y001023D01*
X049480Y001063D01*
X049421Y001105D01*
X049364Y001151D01*
X049310Y001200D01*
X049258Y001252D01*
X049209Y001306D01*
X049163Y001363D01*
X049121Y001422D01*
X049081Y001484D01*
X049045Y001548D01*
X049013Y001613D01*
X048984Y001680D01*
X048959Y001749D01*
X048937Y001819D01*
X048920Y001890D01*
X048906Y001962D01*
X048896Y002034D01*
X048890Y002107D01*
X048888Y002180D01*
D15*
X047795Y002284D02*
X047795Y001977D01*
X047641Y001824D02*
X047718Y001747D01*
X047718Y001594D01*
X047641Y001517D01*
X047334Y001517D01*
X047258Y001594D01*
X047258Y001747D01*
X047334Y001824D01*
X047411Y001363D02*
X047718Y001363D01*
X047488Y001363D02*
X047488Y001056D01*
X047411Y001056D02*
X047258Y001210D01*
X047411Y001363D01*
X047411Y001056D02*
X047718Y001056D01*
X047641Y002438D02*
X047718Y002514D01*
X047718Y002668D01*
X047641Y002745D01*
X047334Y002745D01*
X047258Y002668D01*
X047258Y002514D01*
X047334Y002438D01*
X047641Y002438D01*
X047641Y002898D02*
X047718Y002975D01*
X047718Y003128D01*
X047641Y003205D01*
X047258Y003205D01*
X047258Y003358D02*
X047258Y003665D01*
X047258Y003512D02*
X047718Y003512D01*
X047718Y003819D02*
X047258Y003819D01*
X047258Y004049D01*
X047334Y004126D01*
X047488Y004126D01*
X047565Y004049D01*
X047565Y003819D01*
X047641Y004279D02*
X047718Y004356D01*
X047718Y004509D01*
X047641Y004586D01*
X047258Y004586D01*
X047258Y004740D02*
X047258Y005047D01*
X047258Y004893D02*
X047718Y004893D01*
X047641Y004279D02*
X047258Y004279D01*
X047258Y002898D02*
X047641Y002898D01*
X044419Y001084D02*
X044419Y001007D01*
X044342Y000930D01*
X044419Y000853D01*
X044419Y000777D01*
X044342Y000700D01*
X044189Y000700D01*
X044112Y000777D01*
X043958Y000777D02*
X043958Y001084D01*
X043652Y000777D01*
X043728Y000700D01*
X043882Y000700D01*
X043958Y000777D01*
X043652Y000777D02*
X043652Y001084D01*
X043728Y001160D01*
X043882Y001160D01*
X043958Y001084D01*
X044112Y001084D02*
X044189Y001160D01*
X044342Y001160D01*
X044419Y001084D01*
X044342Y000930D02*
X044265Y000930D01*
X043498Y000930D02*
X043191Y000930D01*
X043038Y000853D02*
X043038Y000777D01*
X042961Y000700D01*
X042808Y000700D01*
X042731Y000777D01*
X042731Y000853D01*
X042808Y000930D01*
X042961Y000930D01*
X043038Y000853D01*
X042961Y000930D02*
X043038Y001007D01*
X043038Y001084D01*
X042961Y001160D01*
X042808Y001160D01*
X042731Y001084D01*
X042731Y001007D01*
X042808Y000930D01*
X042577Y000777D02*
X042501Y000700D01*
X042347Y000700D01*
X042270Y000777D01*
X042577Y001084D01*
X042577Y000777D01*
X042270Y000777D02*
X042270Y001084D01*
X042347Y001160D01*
X042501Y001160D01*
X042577Y001084D01*
X042117Y000700D02*
X041810Y000700D01*
X041963Y000700D02*
X041963Y001160D01*
X041810Y001007D01*
X041657Y001084D02*
X041657Y000930D01*
X041580Y000853D01*
X041350Y000853D01*
X041350Y000700D02*
X041350Y001160D01*
X041580Y001160D01*
X041657Y001084D01*
X041196Y000930D02*
X040889Y000930D01*
X040736Y000853D02*
X040736Y000777D01*
X040659Y000700D01*
X040429Y000700D01*
X040429Y001160D01*
X040659Y001160D01*
X040736Y001084D01*
X040736Y001007D01*
X040659Y000930D01*
X040429Y000930D01*
X040275Y000777D02*
X040275Y001084D01*
X040199Y001160D01*
X039968Y001160D01*
X039968Y000700D01*
X040199Y000700D01*
X040275Y000777D01*
X040659Y000930D02*
X040736Y000853D01*
X039815Y000930D02*
X039508Y000930D01*
X039738Y001160D01*
X039738Y000700D01*
X038718Y005700D02*
X038198Y005700D01*
X038718Y006047D01*
X038198Y006047D01*
X038198Y006216D02*
X038718Y006216D01*
X038718Y006563D01*
X038631Y006731D02*
X038718Y006818D01*
X038718Y006992D01*
X038631Y007078D01*
X038198Y007078D01*
X038198Y007247D02*
X038198Y007594D01*
X038198Y007763D02*
X038198Y008023D01*
X038284Y008110D01*
X038458Y008110D01*
X038545Y008023D01*
X038545Y007763D01*
X038718Y007763D02*
X038198Y007763D01*
X038198Y007420D02*
X038718Y007420D01*
X038545Y007936D02*
X038718Y008110D01*
X038718Y008278D02*
X038371Y008278D01*
X038198Y008452D01*
X038371Y008625D01*
X038718Y008625D01*
X038718Y008794D02*
X038198Y008794D01*
X038458Y008625D02*
X038458Y008278D01*
X038718Y008794D02*
X038718Y009141D01*
X036666Y008007D02*
X036592Y008080D01*
X036445Y008080D01*
X036372Y008007D01*
X036372Y007713D01*
X036445Y007640D01*
X036592Y007640D01*
X036666Y007713D01*
X036224Y007640D02*
X036224Y007934D01*
X036077Y008080D01*
X035930Y007934D01*
X035930Y007640D01*
X035782Y007787D02*
X035782Y008080D01*
X035930Y007860D02*
X036224Y007860D01*
X035782Y007787D02*
X035635Y007640D01*
X035488Y007787D01*
X035488Y008080D01*
X034898Y008007D02*
X034604Y007713D01*
X034678Y007640D01*
X034824Y007640D01*
X034898Y007713D01*
X034898Y008007D01*
X034824Y008080D01*
X034678Y008080D01*
X034604Y008007D01*
X034604Y007713D01*
X034456Y007640D02*
X034162Y007640D01*
X034309Y007640D02*
X034309Y008080D01*
X034162Y007934D01*
X034014Y007640D02*
X033720Y007640D01*
X033867Y007640D02*
X033867Y008080D01*
X033720Y007934D01*
X033131Y007934D02*
X033131Y007860D01*
X033057Y007860D01*
X033057Y007934D01*
X033131Y007934D01*
X033131Y007713D02*
X033131Y007640D01*
X033057Y007640D01*
X033057Y007713D01*
X033131Y007713D01*
X032909Y007787D02*
X032615Y007787D01*
X032615Y007860D02*
X032689Y007934D01*
X032835Y007934D01*
X032909Y007860D01*
X032909Y007787D01*
X032835Y007640D02*
X032689Y007640D01*
X032615Y007713D01*
X032615Y007860D01*
X032467Y007934D02*
X032467Y007567D01*
X032393Y007493D01*
X032320Y007493D01*
X032247Y007640D02*
X032467Y007640D01*
X032247Y007640D02*
X032173Y007713D01*
X032173Y007860D01*
X032247Y007934D01*
X032467Y007934D01*
X032025Y007860D02*
X032025Y007640D01*
X031805Y007640D01*
X031731Y007713D01*
X031805Y007787D01*
X032025Y007787D01*
X032025Y007860D02*
X031951Y007934D01*
X031805Y007934D01*
X031583Y007934D02*
X031437Y007934D01*
X031510Y008007D02*
X031510Y007713D01*
X031583Y007640D01*
X031289Y007640D02*
X031142Y007640D01*
X031215Y007640D02*
X031215Y008080D01*
X031142Y008080D01*
X030994Y007860D02*
X030920Y007934D01*
X030773Y007934D01*
X030700Y007860D01*
X030700Y007713D01*
X030773Y007640D01*
X030920Y007640D01*
X030994Y007713D01*
X030994Y007860D01*
X030552Y007934D02*
X030405Y007640D01*
X030258Y007934D01*
X030331Y007214D02*
X030258Y007140D01*
X030258Y006993D01*
X030331Y006920D01*
X030552Y006920D01*
X030700Y006993D02*
X030773Y006920D01*
X030994Y006920D01*
X030994Y007214D01*
X031142Y007214D02*
X031142Y006920D01*
X031142Y007067D02*
X031289Y007214D01*
X031362Y007214D01*
X031510Y007214D02*
X031510Y006920D01*
X031510Y007067D02*
X031657Y007214D01*
X031730Y007214D01*
X031879Y007140D02*
X031952Y007214D01*
X032099Y007214D01*
X032172Y007140D01*
X032172Y007067D01*
X031879Y007067D01*
X031879Y007140D02*
X031879Y006993D01*
X031952Y006920D01*
X032099Y006920D01*
X032321Y006920D02*
X032321Y007214D01*
X032541Y007214D01*
X032614Y007140D01*
X032614Y006920D01*
X032836Y006993D02*
X032909Y006920D01*
X032836Y006993D02*
X032836Y007287D01*
X032763Y007214D02*
X032909Y007214D01*
X033057Y007214D02*
X033057Y007140D01*
X033131Y007140D01*
X033131Y007214D01*
X033057Y007214D01*
X033057Y006993D02*
X033057Y006920D01*
X033131Y006920D01*
X033131Y006993D01*
X033057Y006993D01*
X033204Y006640D02*
X033204Y006200D01*
X033057Y006200D02*
X033351Y006200D01*
X033499Y006200D02*
X033793Y006200D01*
X033646Y006200D02*
X033646Y006640D01*
X033499Y006494D01*
X033204Y006640D02*
X033057Y006494D01*
X033720Y006920D02*
X034014Y006920D01*
X033867Y006920D02*
X033867Y007360D01*
X033720Y007214D01*
X034162Y007287D02*
X034236Y007360D01*
X034382Y007360D01*
X034456Y007287D01*
X034162Y006993D01*
X034236Y006920D01*
X034382Y006920D01*
X034456Y006993D01*
X034456Y007287D01*
X034162Y007287D02*
X034162Y006993D01*
X034161Y006640D02*
X034015Y006640D01*
X033941Y006567D01*
X033941Y006273D01*
X034235Y006567D01*
X034235Y006273D01*
X034161Y006200D01*
X034015Y006200D01*
X033941Y006273D01*
X034235Y006567D02*
X034161Y006640D01*
X034383Y006567D02*
X034457Y006640D01*
X034603Y006640D01*
X034677Y006567D01*
X034383Y006273D01*
X034457Y006200D01*
X034603Y006200D01*
X034677Y006273D01*
X034677Y006567D01*
X034383Y006567D02*
X034383Y006273D01*
X035267Y006200D02*
X035414Y006347D01*
X035561Y006200D01*
X035561Y006640D01*
X035267Y006640D02*
X035267Y006200D01*
X035340Y006920D02*
X035340Y007214D01*
X035193Y007360D01*
X035046Y007214D01*
X035046Y006920D01*
X035046Y007140D02*
X035340Y007140D01*
X033789Y008700D02*
X033862Y008773D01*
X033862Y008920D01*
X033715Y008920D01*
X033568Y008773D02*
X033642Y008700D01*
X033789Y008700D01*
X033568Y008773D02*
X033568Y009067D01*
X033642Y009140D01*
X033789Y009140D01*
X033862Y009067D01*
X033789Y009420D02*
X033789Y009860D01*
X033936Y009714D01*
X034083Y009860D01*
X034083Y009420D01*
X033641Y009493D02*
X033641Y009860D01*
X033641Y010140D02*
X033641Y010580D01*
X033789Y010507D02*
X033789Y010213D01*
X033863Y010140D01*
X034009Y010140D01*
X034083Y010213D01*
X034083Y010360D01*
X033936Y010360D01*
X033789Y010507D02*
X033863Y010580D01*
X034009Y010580D01*
X034083Y010507D01*
X033641Y010140D02*
X033347Y010580D01*
X033347Y010140D01*
X033199Y010140D02*
X033053Y010140D01*
X033126Y010140D02*
X033126Y010580D01*
X033053Y010580D02*
X033199Y010580D01*
X032904Y010580D02*
X032904Y010140D01*
X032611Y010580D01*
X032611Y010140D01*
X032462Y010140D02*
X032316Y010287D01*
X032389Y010287D02*
X032169Y010287D01*
X032169Y010140D02*
X032169Y010580D01*
X032389Y010580D01*
X032462Y010507D01*
X032462Y010360D01*
X032389Y010287D01*
X032020Y010360D02*
X031727Y010360D01*
X031727Y010434D02*
X031874Y010580D01*
X032020Y010434D01*
X032020Y010140D01*
X031727Y010140D02*
X031727Y010434D01*
X031578Y010580D02*
X031578Y010140D01*
X031432Y010287D01*
X031285Y010140D01*
X031285Y010580D01*
X031285Y009860D02*
X031432Y009714D01*
X031578Y009860D01*
X031578Y009420D01*
X031727Y009420D02*
X031727Y009714D01*
X031874Y009860D01*
X032020Y009714D01*
X032020Y009420D01*
X032169Y009420D02*
X032462Y009860D01*
X032611Y009860D02*
X032757Y009860D01*
X032684Y009860D02*
X032684Y009420D01*
X032611Y009420D02*
X032757Y009420D01*
X032905Y009420D02*
X032905Y009860D01*
X033052Y009714D01*
X033199Y009860D01*
X033199Y009420D01*
X033347Y009493D02*
X033421Y009420D01*
X033568Y009420D01*
X033641Y009493D01*
X033347Y009493D02*
X033347Y009860D01*
X033420Y009140D02*
X033420Y008700D01*
X033126Y009140D01*
X033126Y008700D01*
X032978Y008700D02*
X032832Y008700D01*
X032905Y008700D02*
X032905Y009140D01*
X032832Y009140D02*
X032978Y009140D01*
X032683Y009140D02*
X032390Y009140D01*
X032537Y009140D02*
X032537Y008700D01*
X032241Y008700D02*
X032241Y008994D01*
X032095Y009140D01*
X031948Y008994D01*
X031948Y008700D01*
X031799Y008700D02*
X031653Y008847D01*
X031726Y008847D02*
X031506Y008847D01*
X031506Y008700D02*
X031506Y009140D01*
X031726Y009140D01*
X031799Y009067D01*
X031799Y008920D01*
X031726Y008847D01*
X031948Y008920D02*
X032241Y008920D01*
X032462Y009420D02*
X032169Y009860D01*
X032020Y009640D02*
X031727Y009640D01*
X031285Y009420D02*
X031285Y009860D01*
X030700Y007214D02*
X030700Y006993D01*
X030552Y007214D02*
X030331Y007214D01*
X030258Y006494D02*
X030478Y006494D01*
X030552Y006420D01*
X030552Y006273D01*
X030478Y006200D01*
X030258Y006200D01*
X030258Y006053D02*
X030258Y006494D01*
X030700Y006420D02*
X030700Y006273D01*
X030773Y006200D01*
X030920Y006200D01*
X030994Y006273D01*
X030994Y006420D01*
X030920Y006494D01*
X030773Y006494D01*
X030700Y006420D01*
X031142Y006494D02*
X031142Y006273D01*
X031215Y006200D01*
X031289Y006273D01*
X031362Y006200D01*
X031436Y006273D01*
X031436Y006494D01*
X031584Y006420D02*
X031584Y006273D01*
X031657Y006200D01*
X031804Y006200D01*
X031878Y006347D02*
X031584Y006347D01*
X031584Y006420D02*
X031657Y006494D01*
X031804Y006494D01*
X031878Y006420D01*
X031878Y006347D01*
X032026Y006347D02*
X032173Y006494D01*
X032246Y006494D01*
X032394Y006494D02*
X032394Y006420D01*
X032468Y006420D01*
X032468Y006494D01*
X032394Y006494D01*
X032394Y006273D02*
X032394Y006200D01*
X032468Y006200D01*
X032468Y006273D01*
X032394Y006273D01*
X032026Y006200D02*
X032026Y006494D01*
X038198Y006563D02*
X038198Y006216D01*
X038458Y006216D02*
X038458Y006389D01*
X038631Y006731D02*
X038198Y006731D01*
X035468Y013950D02*
X035161Y013950D01*
X035008Y014103D01*
X035161Y014257D01*
X035468Y014257D01*
X035391Y014410D02*
X035468Y014487D01*
X035468Y014641D01*
X035391Y014717D01*
X035468Y014871D02*
X035468Y015178D01*
X035468Y014871D02*
X035008Y014871D01*
X035084Y014717D02*
X035008Y014641D01*
X035008Y014487D01*
X035084Y014410D01*
X035391Y014410D01*
X035238Y014257D02*
X035238Y013950D01*
X029468Y013950D02*
X029161Y013950D01*
X029008Y014103D01*
X029161Y014257D01*
X029468Y014257D01*
X029391Y014410D02*
X029468Y014487D01*
X029468Y014641D01*
X029391Y014717D01*
X029468Y014871D02*
X029008Y014871D01*
X029468Y015178D01*
X029008Y015178D01*
X029084Y014717D02*
X029008Y014641D01*
X029008Y014487D01*
X029084Y014410D01*
X029391Y014410D01*
X029238Y014257D02*
X029238Y013950D01*
X027396Y020472D02*
X023695Y020472D01*
X023380Y020787D01*
X021896Y020472D02*
X021896Y022136D01*
X021896Y022815D02*
X021896Y024488D01*
X018195Y024488D01*
X017880Y024173D01*
X016928Y023960D02*
X016928Y023500D01*
X017005Y023730D02*
X016698Y023730D01*
X016928Y023960D01*
X016544Y023884D02*
X016544Y023730D01*
X016467Y023653D01*
X016237Y023653D01*
X016237Y023500D02*
X016237Y023960D01*
X016467Y023960D01*
X016544Y023884D01*
X016391Y023653D02*
X016544Y023500D01*
X015346Y023500D02*
X015039Y023500D01*
X015346Y023807D01*
X015346Y023884D01*
X015269Y023960D01*
X015116Y023960D01*
X015039Y023884D01*
X014886Y023884D02*
X014809Y023960D01*
X014579Y023960D01*
X014579Y023500D01*
X014809Y023500D01*
X014886Y023577D01*
X014886Y023884D01*
X014425Y023960D02*
X014118Y023960D01*
X014118Y023500D01*
X014425Y023500D01*
X014272Y023730D02*
X014118Y023730D01*
X013965Y023500D02*
X013658Y023500D01*
X013658Y023960D01*
X013658Y021460D02*
X013658Y021000D01*
X013965Y021000D01*
X014118Y021000D02*
X014425Y021000D01*
X014579Y021000D02*
X014809Y021000D01*
X014886Y021077D01*
X014886Y021384D01*
X014809Y021460D01*
X014579Y021460D01*
X014579Y021000D01*
X014272Y021230D02*
X014118Y021230D01*
X014118Y021460D02*
X014118Y021000D01*
X014118Y021460D02*
X014425Y021460D01*
X015039Y021307D02*
X015193Y021460D01*
X015193Y021000D01*
X015346Y021000D02*
X015039Y021000D01*
X016237Y021000D02*
X016237Y021460D01*
X016467Y021460D01*
X016544Y021384D01*
X016544Y021230D01*
X016467Y021153D01*
X016237Y021153D01*
X016391Y021153D02*
X016544Y021000D01*
X016698Y021000D02*
X017005Y021307D01*
X017005Y021384D01*
X016928Y021460D01*
X016774Y021460D01*
X016698Y021384D01*
X016698Y021000D02*
X017005Y021000D01*
X017880Y020787D02*
X018195Y020472D01*
X021896Y020472D01*
X021807Y022145D02*
X021790Y022059D01*
X021769Y021974D01*
X021745Y021889D01*
X021716Y021806D01*
X021684Y021724D01*
X021648Y021644D01*
X021609Y021566D01*
X021566Y021489D01*
X021519Y021414D01*
X021470Y021342D01*
X021417Y021272D01*
X021361Y021204D01*
X021302Y021139D01*
X021240Y021076D01*
X021175Y021017D01*
X021108Y020960D01*
X021038Y020907D01*
X020966Y020857D01*
X020892Y020810D01*
X020816Y020766D01*
X020737Y020726D01*
X020657Y020689D01*
X020576Y020656D01*
X020493Y020627D01*
X020409Y020602D01*
X020324Y020580D01*
X020238Y020563D01*
X020151Y020549D01*
X020064Y020539D01*
X019976Y020533D01*
X019888Y020531D01*
X019800Y020533D01*
X019712Y020539D01*
X019625Y020549D01*
X019538Y020563D01*
X019452Y020580D01*
X019367Y020602D01*
X019283Y020627D01*
X019200Y020656D01*
X019119Y020689D01*
X019039Y020726D01*
X018960Y020766D01*
X018884Y020810D01*
X018810Y020857D01*
X018738Y020907D01*
X018668Y020960D01*
X018601Y021017D01*
X018536Y021076D01*
X018474Y021139D01*
X018415Y021204D01*
X018359Y021272D01*
X018306Y021342D01*
X018257Y021414D01*
X018210Y021489D01*
X018167Y021566D01*
X018128Y021644D01*
X018092Y021724D01*
X018060Y021806D01*
X018031Y021889D01*
X018007Y021974D01*
X017986Y022059D01*
X017969Y022145D01*
X017969Y022815D02*
X017986Y022901D01*
X018007Y022986D01*
X018031Y023071D01*
X018060Y023154D01*
X018092Y023236D01*
X018128Y023316D01*
X018167Y023394D01*
X018210Y023471D01*
X018257Y023546D01*
X018306Y023618D01*
X018359Y023688D01*
X018415Y023756D01*
X018474Y023821D01*
X018536Y023884D01*
X018601Y023943D01*
X018668Y024000D01*
X018738Y024053D01*
X018810Y024103D01*
X018884Y024150D01*
X018960Y024194D01*
X019039Y024234D01*
X019119Y024271D01*
X019200Y024304D01*
X019283Y024333D01*
X019367Y024358D01*
X019452Y024380D01*
X019538Y024397D01*
X019625Y024411D01*
X019712Y024421D01*
X019800Y024427D01*
X019888Y024429D01*
X019976Y024427D01*
X020064Y024421D01*
X020151Y024411D01*
X020238Y024397D01*
X020324Y024380D01*
X020409Y024358D01*
X020493Y024333D01*
X020576Y024304D01*
X020657Y024271D01*
X020737Y024234D01*
X020816Y024194D01*
X020892Y024150D01*
X020966Y024103D01*
X021038Y024053D01*
X021108Y024000D01*
X021175Y023943D01*
X021240Y023884D01*
X021302Y023821D01*
X021361Y023756D01*
X021417Y023688D01*
X021470Y023618D01*
X021519Y023546D01*
X021566Y023471D01*
X021609Y023394D01*
X021648Y023316D01*
X021684Y023236D01*
X021716Y023154D01*
X021745Y023071D01*
X021769Y022986D01*
X021790Y022901D01*
X021807Y022815D01*
X023380Y024173D02*
X023695Y024488D01*
X027396Y024488D01*
X027396Y022815D01*
X027396Y022136D02*
X027396Y020472D01*
X029008Y021896D02*
X029084Y021819D01*
X029391Y021819D01*
X029468Y021896D01*
X029468Y022049D01*
X029391Y022126D01*
X029238Y022126D01*
X029238Y021972D01*
X029084Y022126D02*
X029008Y022049D01*
X029008Y021896D01*
X029008Y022279D02*
X029468Y022586D01*
X029008Y022586D01*
X029008Y022740D02*
X029008Y022970D01*
X029084Y023047D01*
X029391Y023047D01*
X029468Y022970D01*
X029468Y022740D01*
X029008Y022740D01*
X029008Y022279D02*
X029468Y022279D01*
X032008Y022279D02*
X032238Y022279D01*
X032161Y022433D01*
X032161Y022509D01*
X032238Y022586D01*
X032391Y022586D01*
X032468Y022509D01*
X032468Y022356D01*
X032391Y022279D01*
X032008Y022279D02*
X032008Y022586D01*
X032008Y022740D02*
X032315Y022740D01*
X032468Y022893D01*
X032315Y023047D01*
X032008Y023047D01*
X035758Y023089D02*
X035758Y022935D01*
X035834Y022858D01*
X035834Y022705D02*
X035758Y022628D01*
X035758Y022475D01*
X035834Y022398D01*
X035911Y022398D01*
X035988Y022475D01*
X035988Y022628D01*
X036065Y022705D01*
X036141Y022705D01*
X036218Y022628D01*
X036218Y022475D01*
X036141Y022398D01*
X035988Y022245D02*
X035988Y021938D01*
X036218Y021784D02*
X035988Y021554D01*
X036065Y021477D02*
X035758Y021784D01*
X035758Y021477D02*
X036218Y021477D01*
X036141Y021324D02*
X036218Y021247D01*
X036218Y021094D01*
X036141Y021017D01*
X035988Y021094D02*
X035988Y021247D01*
X036065Y021324D01*
X036141Y021324D01*
X035988Y021094D02*
X035911Y021017D01*
X035834Y021017D01*
X035758Y021094D01*
X035758Y021247D01*
X035834Y021324D01*
X035758Y020863D02*
X036065Y020863D01*
X036218Y020710D01*
X036065Y020556D01*
X035758Y020556D01*
X036218Y022858D02*
X035911Y023165D01*
X035834Y023165D01*
X035758Y023089D01*
X035988Y023319D02*
X035988Y023626D01*
X035988Y023779D02*
X035911Y023933D01*
X035911Y024009D01*
X035988Y024086D01*
X036141Y024086D01*
X036218Y024009D01*
X036218Y023856D01*
X036141Y023779D01*
X035988Y023779D02*
X035758Y023779D01*
X035758Y024086D01*
X035758Y024240D02*
X036141Y024240D01*
X036218Y024316D01*
X036218Y024470D01*
X036141Y024547D01*
X035758Y024547D01*
X036218Y023165D02*
X036218Y022858D01*
X033855Y028950D02*
X033548Y028950D01*
X033701Y028950D02*
X033701Y029410D01*
X033548Y029257D01*
X033394Y029334D02*
X033394Y029027D01*
X033317Y028950D01*
X033087Y028950D01*
X033087Y029410D01*
X033317Y029410D01*
X033394Y029334D01*
X034120Y029674D02*
X032356Y029674D01*
X032356Y031186D02*
X034120Y031186D01*
X029092Y029627D02*
X028541Y029076D01*
X028403Y029213D02*
X028955Y029765D01*
X028305Y029430D02*
X028307Y029471D01*
X028313Y029512D01*
X028323Y029552D01*
X028336Y029591D01*
X028353Y029628D01*
X028374Y029664D01*
X028398Y029698D01*
X028425Y029729D01*
X028454Y029757D01*
X028487Y029783D01*
X028521Y029805D01*
X028558Y029824D01*
X028596Y029839D01*
X028636Y029851D01*
X028676Y029859D01*
X028717Y029863D01*
X028759Y029863D01*
X028800Y029859D01*
X028840Y029851D01*
X028880Y029839D01*
X028918Y029824D01*
X028954Y029805D01*
X028989Y029783D01*
X029022Y029757D01*
X029051Y029729D01*
X029078Y029698D01*
X029102Y029664D01*
X029123Y029628D01*
X029140Y029591D01*
X029153Y029552D01*
X029163Y029512D01*
X029169Y029471D01*
X029171Y029430D01*
X029169Y029389D01*
X029163Y029348D01*
X029153Y029308D01*
X029140Y029269D01*
X029123Y029232D01*
X029102Y029196D01*
X029078Y029162D01*
X029051Y029131D01*
X029022Y029103D01*
X028989Y029077D01*
X028955Y029055D01*
X028918Y029036D01*
X028880Y029021D01*
X028840Y029009D01*
X028800Y029001D01*
X028759Y028997D01*
X028717Y028997D01*
X028676Y029001D01*
X028636Y029009D01*
X028596Y029021D01*
X028558Y029036D01*
X028522Y029055D01*
X028487Y029077D01*
X028454Y029103D01*
X028425Y029131D01*
X028398Y029162D01*
X028374Y029196D01*
X028353Y029232D01*
X028336Y029269D01*
X028323Y029308D01*
X028313Y029348D01*
X028307Y029389D01*
X028305Y029430D01*
X027275Y030200D02*
X026968Y030200D01*
X026815Y030200D02*
X026661Y030353D01*
X026738Y030353D02*
X026508Y030353D01*
X026508Y030200D02*
X026508Y030660D01*
X026738Y030660D01*
X026815Y030584D01*
X026815Y030430D01*
X026738Y030353D01*
X026968Y030507D02*
X027122Y030660D01*
X027122Y030200D01*
X028081Y027950D02*
X028311Y027950D01*
X028388Y027873D01*
X028388Y027720D01*
X028311Y027643D01*
X028081Y027643D01*
X028234Y027643D02*
X028388Y027489D01*
X028541Y027566D02*
X028618Y027489D01*
X028771Y027489D01*
X028848Y027566D01*
X028848Y027643D01*
X028771Y027720D01*
X028695Y027720D01*
X028771Y027720D02*
X028848Y027796D01*
X028848Y027873D01*
X028771Y027950D01*
X028618Y027950D01*
X028541Y027873D01*
X028081Y027950D02*
X028081Y027489D01*
X027528Y025660D02*
X027605Y025584D01*
X027605Y025507D01*
X027528Y025430D01*
X027605Y025353D01*
X027605Y025277D01*
X027528Y025200D01*
X027374Y025200D01*
X027298Y025277D01*
X027144Y025277D02*
X027067Y025200D01*
X026914Y025200D01*
X026837Y025277D01*
X026837Y025584D01*
X026914Y025660D01*
X027067Y025660D01*
X027144Y025584D01*
X027298Y025584D02*
X027374Y025660D01*
X027528Y025660D01*
X027528Y025430D02*
X027451Y025430D01*
X027307Y022815D02*
X027290Y022901D01*
X027269Y022986D01*
X027245Y023071D01*
X027216Y023154D01*
X027184Y023236D01*
X027148Y023316D01*
X027109Y023394D01*
X027066Y023471D01*
X027019Y023546D01*
X026970Y023618D01*
X026917Y023688D01*
X026861Y023756D01*
X026802Y023821D01*
X026740Y023884D01*
X026675Y023943D01*
X026608Y024000D01*
X026538Y024053D01*
X026466Y024103D01*
X026392Y024150D01*
X026316Y024194D01*
X026237Y024234D01*
X026157Y024271D01*
X026076Y024304D01*
X025993Y024333D01*
X025909Y024358D01*
X025824Y024380D01*
X025738Y024397D01*
X025651Y024411D01*
X025564Y024421D01*
X025476Y024427D01*
X025388Y024429D01*
X025300Y024427D01*
X025212Y024421D01*
X025125Y024411D01*
X025038Y024397D01*
X024952Y024380D01*
X024867Y024358D01*
X024783Y024333D01*
X024700Y024304D01*
X024619Y024271D01*
X024539Y024234D01*
X024460Y024194D01*
X024384Y024150D01*
X024310Y024103D01*
X024238Y024053D01*
X024168Y024000D01*
X024101Y023943D01*
X024036Y023884D01*
X023974Y023821D01*
X023915Y023756D01*
X023859Y023688D01*
X023806Y023618D01*
X023757Y023546D01*
X023710Y023471D01*
X023667Y023394D01*
X023628Y023316D01*
X023592Y023236D01*
X023560Y023154D01*
X023531Y023071D01*
X023507Y022986D01*
X023486Y022901D01*
X023469Y022815D01*
X023469Y022145D02*
X023486Y022059D01*
X023507Y021974D01*
X023531Y021889D01*
X023560Y021806D01*
X023592Y021724D01*
X023628Y021644D01*
X023667Y021566D01*
X023710Y021489D01*
X023757Y021414D01*
X023806Y021342D01*
X023859Y021272D01*
X023915Y021204D01*
X023974Y021139D01*
X024036Y021076D01*
X024101Y021017D01*
X024168Y020960D01*
X024238Y020907D01*
X024310Y020857D01*
X024384Y020810D01*
X024460Y020766D01*
X024539Y020726D01*
X024619Y020689D01*
X024700Y020656D01*
X024783Y020627D01*
X024867Y020602D01*
X024952Y020580D01*
X025038Y020563D01*
X025125Y020549D01*
X025212Y020539D01*
X025300Y020533D01*
X025388Y020531D01*
X025476Y020533D01*
X025564Y020539D01*
X025651Y020549D01*
X025738Y020563D01*
X025824Y020580D01*
X025909Y020602D01*
X025993Y020627D01*
X026076Y020656D01*
X026157Y020689D01*
X026237Y020726D01*
X026316Y020766D01*
X026392Y020810D01*
X026466Y020857D01*
X026538Y020907D01*
X026608Y020960D01*
X026675Y021017D01*
X026740Y021076D01*
X026802Y021139D01*
X026861Y021204D01*
X026917Y021272D01*
X026970Y021342D01*
X027019Y021414D01*
X027066Y021489D01*
X027109Y021566D01*
X027148Y021644D01*
X027184Y021724D01*
X027216Y021806D01*
X027245Y021889D01*
X027269Y021974D01*
X027290Y022059D01*
X027307Y022145D01*
X013105Y017410D02*
X012798Y017410D01*
X012951Y017410D02*
X012951Y016950D01*
X012644Y017027D02*
X012644Y017410D01*
X012337Y017410D02*
X012337Y017027D01*
X012414Y016950D01*
X012567Y016950D01*
X012644Y017027D01*
X012184Y017180D02*
X012107Y017103D01*
X011877Y017103D01*
X011877Y016950D02*
X011877Y017410D01*
X012107Y017410D01*
X012184Y017334D01*
X012184Y017180D01*
X011723Y016950D02*
X011723Y017410D01*
X011416Y017410D02*
X011416Y016950D01*
X011263Y016950D02*
X011110Y016950D01*
X011186Y016950D02*
X011186Y017410D01*
X011110Y017410D02*
X011263Y017410D01*
X011416Y017410D02*
X011723Y016950D01*
X010956Y016873D02*
X010649Y016873D01*
X010496Y017027D02*
X010419Y016950D01*
X010265Y016950D01*
X010189Y017027D01*
X010189Y017334D01*
X010265Y017410D01*
X010419Y017410D01*
X010496Y017334D01*
X010035Y017257D02*
X010035Y016950D01*
X010035Y017180D02*
X009728Y017180D01*
X009728Y017257D02*
X009882Y017410D01*
X010035Y017257D01*
X009728Y017257D02*
X009728Y016950D01*
X009391Y013297D02*
X009468Y013220D01*
X009468Y013066D01*
X009391Y012990D01*
X009391Y012836D02*
X009468Y012759D01*
X009468Y012606D01*
X009391Y012529D01*
X009084Y012836D01*
X009391Y012836D01*
X009084Y012836D02*
X009008Y012759D01*
X009008Y012606D01*
X009084Y012529D01*
X009391Y012529D01*
X009238Y012376D02*
X009238Y012069D01*
X009315Y011915D02*
X009391Y011915D01*
X009468Y011839D01*
X009468Y011685D01*
X009391Y011608D01*
X009315Y011608D01*
X009238Y011685D01*
X009238Y011839D01*
X009315Y011915D01*
X009238Y011839D02*
X009161Y011915D01*
X009084Y011915D01*
X009008Y011839D01*
X009008Y011685D01*
X009084Y011608D01*
X009161Y011608D01*
X009238Y011685D01*
X009391Y011455D02*
X009468Y011378D01*
X009468Y011225D01*
X009391Y011148D01*
X009084Y011455D01*
X009391Y011455D01*
X009084Y011455D02*
X009008Y011378D01*
X009008Y011225D01*
X009084Y011148D01*
X009391Y011148D01*
X009468Y010995D02*
X009468Y010688D01*
X009468Y010841D02*
X009008Y010841D01*
X009161Y010688D01*
X009084Y010534D02*
X009238Y010534D01*
X009315Y010457D01*
X009315Y010227D01*
X009468Y010227D02*
X009008Y010227D01*
X009008Y010457D01*
X009084Y010534D01*
X009238Y010074D02*
X009238Y009767D01*
X009315Y009613D02*
X009391Y009613D01*
X009468Y009537D01*
X009468Y009306D01*
X009008Y009306D01*
X009008Y009537D01*
X009084Y009613D01*
X009161Y009613D01*
X009238Y009537D01*
X009238Y009306D01*
X009391Y009153D02*
X009084Y009153D01*
X009008Y009076D01*
X009008Y008846D01*
X009468Y008846D01*
X009468Y009076D01*
X009391Y009153D01*
X009238Y009537D02*
X009315Y009613D01*
X009238Y008693D02*
X009238Y008386D01*
X009008Y008616D01*
X009468Y008616D01*
X009084Y012990D02*
X009008Y013066D01*
X009008Y013220D01*
X009084Y013297D01*
X009161Y013297D01*
X009238Y013220D01*
X009315Y013297D01*
X009391Y013297D01*
X009238Y013220D02*
X009238Y013143D01*
X021537Y005834D02*
X021537Y005757D01*
X021614Y005680D01*
X021767Y005680D01*
X021844Y005603D01*
X021844Y005527D01*
X021767Y005450D01*
X021614Y005450D01*
X021537Y005527D01*
X021537Y005834D02*
X021614Y005910D01*
X021767Y005910D01*
X021844Y005834D01*
X021998Y005910D02*
X021998Y005450D01*
X022151Y005603D01*
X022305Y005450D01*
X022305Y005910D01*
X022784Y004797D02*
X022708Y004720D01*
X022708Y004566D01*
X022784Y004490D01*
X022784Y004336D02*
X023091Y004029D01*
X023168Y004106D01*
X023168Y004259D01*
X023091Y004336D01*
X022784Y004336D01*
X022708Y004259D01*
X022708Y004106D01*
X022784Y004029D01*
X023091Y004029D01*
X022938Y003876D02*
X022938Y003569D01*
X023015Y003415D02*
X023091Y003415D01*
X023168Y003339D01*
X023168Y003185D01*
X023091Y003108D01*
X023015Y003108D01*
X022938Y003185D01*
X022938Y003339D01*
X023015Y003415D01*
X022938Y003339D02*
X022861Y003415D01*
X022784Y003415D01*
X022708Y003339D01*
X022708Y003185D01*
X022784Y003108D01*
X022861Y003108D01*
X022938Y003185D01*
X022784Y002955D02*
X023091Y002955D01*
X023168Y002878D01*
X023168Y002725D01*
X023091Y002648D01*
X022784Y002955D01*
X022708Y002878D01*
X022708Y002725D01*
X022784Y002648D01*
X023091Y002648D01*
X023168Y002495D02*
X023168Y002188D01*
X023168Y002341D02*
X022708Y002341D01*
X022861Y002188D01*
X022784Y002034D02*
X022938Y002034D01*
X023015Y001957D01*
X023015Y001727D01*
X023168Y001727D02*
X022708Y001727D01*
X022708Y001957D01*
X022784Y002034D01*
X022938Y001574D02*
X022938Y001267D01*
X023015Y001113D02*
X023091Y001113D01*
X023168Y001037D01*
X023168Y000806D01*
X022708Y000806D01*
X022708Y001037D01*
X022784Y001113D01*
X022861Y001113D01*
X022938Y001037D01*
X022938Y000806D01*
X023091Y000653D02*
X022784Y000653D01*
X022708Y000576D01*
X022708Y000346D01*
X023168Y000346D01*
X023168Y000576D01*
X023091Y000653D01*
X022938Y001037D02*
X023015Y001113D01*
X022938Y000193D02*
X022938Y-000114D01*
X022708Y000116D01*
X023168Y000116D01*
X023168Y004490D02*
X022861Y004797D01*
X022784Y004797D01*
X023168Y004797D02*
X023168Y004490D01*
D16*
X047238Y024180D02*
X047238Y031180D01*
X047738Y031680D01*
X050738Y031680D01*
X051238Y031180D01*
X051238Y024180D01*
X050738Y023680D01*
X047738Y023680D01*
X047238Y024180D01*
X048388Y025030D02*
X048390Y025061D01*
X048396Y025092D01*
X048406Y025122D01*
X048419Y025150D01*
X048436Y025177D01*
X048456Y025201D01*
X048479Y025223D01*
X048504Y025241D01*
X048532Y025256D01*
X048561Y025268D01*
X048591Y025276D01*
X048622Y025280D01*
X048654Y025280D01*
X048685Y025276D01*
X048715Y025268D01*
X048744Y025256D01*
X048772Y025241D01*
X048797Y025223D01*
X048820Y025201D01*
X048840Y025177D01*
X048857Y025150D01*
X048870Y025122D01*
X048880Y025092D01*
X048886Y025061D01*
X048888Y025030D01*
X048886Y024999D01*
X048880Y024968D01*
X048870Y024938D01*
X048857Y024910D01*
X048840Y024883D01*
X048820Y024859D01*
X048797Y024837D01*
X048772Y024819D01*
X048744Y024804D01*
X048715Y024792D01*
X048685Y024784D01*
X048654Y024780D01*
X048622Y024780D01*
X048591Y024784D01*
X048561Y024792D01*
X048532Y024804D01*
X048504Y024819D01*
X048479Y024837D01*
X048456Y024859D01*
X048436Y024883D01*
X048419Y024910D01*
X048406Y024938D01*
X048396Y024968D01*
X048390Y024999D01*
X048388Y025030D01*
X048938Y024430D02*
X048940Y024461D01*
X048946Y024492D01*
X048956Y024522D01*
X048969Y024550D01*
X048986Y024577D01*
X049006Y024601D01*
X049029Y024623D01*
X049054Y024641D01*
X049082Y024656D01*
X049111Y024668D01*
X049141Y024676D01*
X049172Y024680D01*
X049204Y024680D01*
X049235Y024676D01*
X049265Y024668D01*
X049294Y024656D01*
X049322Y024641D01*
X049347Y024623D01*
X049370Y024601D01*
X049390Y024577D01*
X049407Y024550D01*
X049420Y024522D01*
X049430Y024492D01*
X049436Y024461D01*
X049438Y024430D01*
X049436Y024399D01*
X049430Y024368D01*
X049420Y024338D01*
X049407Y024310D01*
X049390Y024283D01*
X049370Y024259D01*
X049347Y024237D01*
X049322Y024219D01*
X049294Y024204D01*
X049265Y024192D01*
X049235Y024184D01*
X049204Y024180D01*
X049172Y024180D01*
X049141Y024184D01*
X049111Y024192D01*
X049082Y024204D01*
X049054Y024219D01*
X049029Y024237D01*
X049006Y024259D01*
X048986Y024283D01*
X048969Y024310D01*
X048956Y024338D01*
X048946Y024368D01*
X048940Y024399D01*
X048938Y024430D01*
X048138Y025730D02*
X048140Y025761D01*
X048146Y025792D01*
X048156Y025822D01*
X048169Y025850D01*
X048186Y025877D01*
X048206Y025901D01*
X048229Y025923D01*
X048254Y025941D01*
X048282Y025956D01*
X048311Y025968D01*
X048341Y025976D01*
X048372Y025980D01*
X048404Y025980D01*
X048435Y025976D01*
X048465Y025968D01*
X048494Y025956D01*
X048522Y025941D01*
X048547Y025923D01*
X048570Y025901D01*
X048590Y025877D01*
X048607Y025850D01*
X048620Y025822D01*
X048630Y025792D01*
X048636Y025761D01*
X048638Y025730D01*
X048636Y025699D01*
X048630Y025668D01*
X048620Y025638D01*
X048607Y025610D01*
X048590Y025583D01*
X048570Y025559D01*
X048547Y025537D01*
X048522Y025519D01*
X048494Y025504D01*
X048465Y025492D01*
X048435Y025484D01*
X048404Y025480D01*
X048372Y025480D01*
X048341Y025484D01*
X048311Y025492D01*
X048282Y025504D01*
X048254Y025519D01*
X048229Y025537D01*
X048206Y025559D01*
X048186Y025583D01*
X048169Y025610D01*
X048156Y025638D01*
X048146Y025668D01*
X048140Y025699D01*
X048138Y025730D01*
X049031Y025680D02*
X049033Y025733D01*
X049039Y025785D01*
X049049Y025837D01*
X049062Y025888D01*
X049080Y025938D01*
X049101Y025987D01*
X049126Y026034D01*
X049154Y026078D01*
X049185Y026121D01*
X049220Y026161D01*
X049257Y026198D01*
X049297Y026233D01*
X049340Y026264D01*
X049385Y026292D01*
X049431Y026317D01*
X049480Y026338D01*
X049530Y026356D01*
X049581Y026369D01*
X049633Y026379D01*
X049685Y026385D01*
X049738Y026387D01*
X049791Y026385D01*
X049843Y026379D01*
X049895Y026369D01*
X049946Y026356D01*
X049996Y026338D01*
X050045Y026317D01*
X050092Y026292D01*
X050136Y026264D01*
X050179Y026233D01*
X050219Y026198D01*
X050256Y026161D01*
X050291Y026121D01*
X050322Y026078D01*
X050350Y026033D01*
X050375Y025987D01*
X050396Y025938D01*
X050414Y025888D01*
X050427Y025837D01*
X050437Y025785D01*
X050443Y025733D01*
X050445Y025680D01*
X050443Y025627D01*
X050437Y025575D01*
X050427Y025523D01*
X050414Y025472D01*
X050396Y025422D01*
X050375Y025373D01*
X050350Y025326D01*
X050322Y025282D01*
X050291Y025239D01*
X050256Y025199D01*
X050219Y025162D01*
X050179Y025127D01*
X050136Y025096D01*
X050091Y025068D01*
X050045Y025043D01*
X049996Y025022D01*
X049946Y025004D01*
X049895Y024991D01*
X049843Y024981D01*
X049791Y024975D01*
X049738Y024973D01*
X049685Y024975D01*
X049633Y024981D01*
X049581Y024991D01*
X049530Y025004D01*
X049480Y025022D01*
X049431Y025043D01*
X049384Y025068D01*
X049340Y025096D01*
X049297Y025127D01*
X049257Y025162D01*
X049220Y025199D01*
X049185Y025239D01*
X049154Y025282D01*
X049126Y025327D01*
X049101Y025373D01*
X049080Y025422D01*
X049062Y025472D01*
X049049Y025523D01*
X049039Y025575D01*
X049033Y025627D01*
X049031Y025680D01*
D17*
X049569Y021180D02*
X049571Y021231D01*
X049577Y021282D01*
X049587Y021332D01*
X049600Y021382D01*
X049618Y021430D01*
X049638Y021477D01*
X049663Y021522D01*
X049691Y021565D01*
X049722Y021606D01*
X049756Y021644D01*
X049793Y021679D01*
X049832Y021712D01*
X049874Y021742D01*
X049918Y021768D01*
X049964Y021790D01*
X050012Y021810D01*
X050061Y021825D01*
X050111Y021837D01*
X050161Y021845D01*
X050212Y021849D01*
X050264Y021849D01*
X050315Y021845D01*
X050365Y021837D01*
X050415Y021825D01*
X050464Y021810D01*
X050512Y021790D01*
X050558Y021768D01*
X050602Y021742D01*
X050644Y021712D01*
X050683Y021679D01*
X050720Y021644D01*
X050754Y021606D01*
X050785Y021565D01*
X050813Y021522D01*
X050838Y021477D01*
X050858Y021430D01*
X050876Y021382D01*
X050889Y021332D01*
X050899Y021282D01*
X050905Y021231D01*
X050907Y021180D01*
X050905Y021129D01*
X050899Y021078D01*
X050889Y021028D01*
X050876Y020978D01*
X050858Y020930D01*
X050838Y020883D01*
X050813Y020838D01*
X050785Y020795D01*
X050754Y020754D01*
X050720Y020716D01*
X050683Y020681D01*
X050644Y020648D01*
X050602Y020618D01*
X050558Y020592D01*
X050512Y020570D01*
X050464Y020550D01*
X050415Y020535D01*
X050365Y020523D01*
X050315Y020515D01*
X050264Y020511D01*
X050212Y020511D01*
X050161Y020515D01*
X050111Y020523D01*
X050061Y020535D01*
X050012Y020550D01*
X049964Y020570D01*
X049918Y020592D01*
X049874Y020618D01*
X049832Y020648D01*
X049793Y020681D01*
X049756Y020716D01*
X049722Y020754D01*
X049691Y020795D01*
X049663Y020838D01*
X049638Y020883D01*
X049618Y020930D01*
X049600Y020978D01*
X049587Y021028D01*
X049577Y021078D01*
X049571Y021129D01*
X049569Y021180D01*
X044527Y031584D02*
X041949Y031584D01*
X041949Y033739D01*
X042146Y033936D01*
X044331Y033936D01*
X044527Y033739D01*
X044527Y031584D01*
X049569Y034180D02*
X049571Y034231D01*
X049577Y034282D01*
X049587Y034332D01*
X049600Y034382D01*
X049618Y034430D01*
X049638Y034477D01*
X049663Y034522D01*
X049691Y034565D01*
X049722Y034606D01*
X049756Y034644D01*
X049793Y034679D01*
X049832Y034712D01*
X049874Y034742D01*
X049918Y034768D01*
X049964Y034790D01*
X050012Y034810D01*
X050061Y034825D01*
X050111Y034837D01*
X050161Y034845D01*
X050212Y034849D01*
X050264Y034849D01*
X050315Y034845D01*
X050365Y034837D01*
X050415Y034825D01*
X050464Y034810D01*
X050512Y034790D01*
X050558Y034768D01*
X050602Y034742D01*
X050644Y034712D01*
X050683Y034679D01*
X050720Y034644D01*
X050754Y034606D01*
X050785Y034565D01*
X050813Y034522D01*
X050838Y034477D01*
X050858Y034430D01*
X050876Y034382D01*
X050889Y034332D01*
X050899Y034282D01*
X050905Y034231D01*
X050907Y034180D01*
X050905Y034129D01*
X050899Y034078D01*
X050889Y034028D01*
X050876Y033978D01*
X050858Y033930D01*
X050838Y033883D01*
X050813Y033838D01*
X050785Y033795D01*
X050754Y033754D01*
X050720Y033716D01*
X050683Y033681D01*
X050644Y033648D01*
X050602Y033618D01*
X050558Y033592D01*
X050512Y033570D01*
X050464Y033550D01*
X050415Y033535D01*
X050365Y033523D01*
X050315Y033515D01*
X050264Y033511D01*
X050212Y033511D01*
X050161Y033515D01*
X050111Y033523D01*
X050061Y033535D01*
X050012Y033550D01*
X049964Y033570D01*
X049918Y033592D01*
X049874Y033618D01*
X049832Y033648D01*
X049793Y033681D01*
X049756Y033716D01*
X049722Y033754D01*
X049691Y033795D01*
X049663Y033838D01*
X049638Y033883D01*
X049618Y033930D01*
X049600Y033978D01*
X049587Y034028D01*
X049577Y034078D01*
X049571Y034129D01*
X049569Y034180D01*
X049569Y002180D02*
X049571Y002231D01*
X049577Y002282D01*
X049587Y002332D01*
X049600Y002382D01*
X049618Y002430D01*
X049638Y002477D01*
X049663Y002522D01*
X049691Y002565D01*
X049722Y002606D01*
X049756Y002644D01*
X049793Y002679D01*
X049832Y002712D01*
X049874Y002742D01*
X049918Y002768D01*
X049964Y002790D01*
X050012Y002810D01*
X050061Y002825D01*
X050111Y002837D01*
X050161Y002845D01*
X050212Y002849D01*
X050264Y002849D01*
X050315Y002845D01*
X050365Y002837D01*
X050415Y002825D01*
X050464Y002810D01*
X050512Y002790D01*
X050558Y002768D01*
X050602Y002742D01*
X050644Y002712D01*
X050683Y002679D01*
X050720Y002644D01*
X050754Y002606D01*
X050785Y002565D01*
X050813Y002522D01*
X050838Y002477D01*
X050858Y002430D01*
X050876Y002382D01*
X050889Y002332D01*
X050899Y002282D01*
X050905Y002231D01*
X050907Y002180D01*
X050905Y002129D01*
X050899Y002078D01*
X050889Y002028D01*
X050876Y001978D01*
X050858Y001930D01*
X050838Y001883D01*
X050813Y001838D01*
X050785Y001795D01*
X050754Y001754D01*
X050720Y001716D01*
X050683Y001681D01*
X050644Y001648D01*
X050602Y001618D01*
X050558Y001592D01*
X050512Y001570D01*
X050464Y001550D01*
X050415Y001535D01*
X050365Y001523D01*
X050315Y001515D01*
X050264Y001511D01*
X050212Y001511D01*
X050161Y001515D01*
X050111Y001523D01*
X050061Y001535D01*
X050012Y001550D01*
X049964Y001570D01*
X049918Y001592D01*
X049874Y001618D01*
X049832Y001648D01*
X049793Y001681D01*
X049756Y001716D01*
X049722Y001754D01*
X049691Y001795D01*
X049663Y001838D01*
X049638Y001883D01*
X049618Y001930D01*
X049600Y001978D01*
X049587Y002028D01*
X049577Y002078D01*
X049571Y002129D01*
X049569Y002180D01*
X009569Y002180D02*
X009571Y002231D01*
X009577Y002282D01*
X009587Y002332D01*
X009600Y002382D01*
X009618Y002430D01*
X009638Y002477D01*
X009663Y002522D01*
X009691Y002565D01*
X009722Y002606D01*
X009756Y002644D01*
X009793Y002679D01*
X009832Y002712D01*
X009874Y002742D01*
X009918Y002768D01*
X009964Y002790D01*
X010012Y002810D01*
X010061Y002825D01*
X010111Y002837D01*
X010161Y002845D01*
X010212Y002849D01*
X010264Y002849D01*
X010315Y002845D01*
X010365Y002837D01*
X010415Y002825D01*
X010464Y002810D01*
X010512Y002790D01*
X010558Y002768D01*
X010602Y002742D01*
X010644Y002712D01*
X010683Y002679D01*
X010720Y002644D01*
X010754Y002606D01*
X010785Y002565D01*
X010813Y002522D01*
X010838Y002477D01*
X010858Y002430D01*
X010876Y002382D01*
X010889Y002332D01*
X010899Y002282D01*
X010905Y002231D01*
X010907Y002180D01*
X010905Y002129D01*
X010899Y002078D01*
X010889Y002028D01*
X010876Y001978D01*
X010858Y001930D01*
X010838Y001883D01*
X010813Y001838D01*
X010785Y001795D01*
X010754Y001754D01*
X010720Y001716D01*
X010683Y001681D01*
X010644Y001648D01*
X010602Y001618D01*
X010558Y001592D01*
X010512Y001570D01*
X010464Y001550D01*
X010415Y001535D01*
X010365Y001523D01*
X010315Y001515D01*
X010264Y001511D01*
X010212Y001511D01*
X010161Y001515D01*
X010111Y001523D01*
X010061Y001535D01*
X010012Y001550D01*
X009964Y001570D01*
X009918Y001592D01*
X009874Y001618D01*
X009832Y001648D01*
X009793Y001681D01*
X009756Y001716D01*
X009722Y001754D01*
X009691Y001795D01*
X009663Y001838D01*
X009638Y001883D01*
X009618Y001930D01*
X009600Y001978D01*
X009587Y002028D01*
X009577Y002078D01*
X009571Y002129D01*
X009569Y002180D01*
X009569Y021180D02*
X009571Y021231D01*
X009577Y021282D01*
X009587Y021332D01*
X009600Y021382D01*
X009618Y021430D01*
X009638Y021477D01*
X009663Y021522D01*
X009691Y021565D01*
X009722Y021606D01*
X009756Y021644D01*
X009793Y021679D01*
X009832Y021712D01*
X009874Y021742D01*
X009918Y021768D01*
X009964Y021790D01*
X010012Y021810D01*
X010061Y021825D01*
X010111Y021837D01*
X010161Y021845D01*
X010212Y021849D01*
X010264Y021849D01*
X010315Y021845D01*
X010365Y021837D01*
X010415Y021825D01*
X010464Y021810D01*
X010512Y021790D01*
X010558Y021768D01*
X010602Y021742D01*
X010644Y021712D01*
X010683Y021679D01*
X010720Y021644D01*
X010754Y021606D01*
X010785Y021565D01*
X010813Y021522D01*
X010838Y021477D01*
X010858Y021430D01*
X010876Y021382D01*
X010889Y021332D01*
X010899Y021282D01*
X010905Y021231D01*
X010907Y021180D01*
X010905Y021129D01*
X010899Y021078D01*
X010889Y021028D01*
X010876Y020978D01*
X010858Y020930D01*
X010838Y020883D01*
X010813Y020838D01*
X010785Y020795D01*
X010754Y020754D01*
X010720Y020716D01*
X010683Y020681D01*
X010644Y020648D01*
X010602Y020618D01*
X010558Y020592D01*
X010512Y020570D01*
X010464Y020550D01*
X010415Y020535D01*
X010365Y020523D01*
X010315Y020515D01*
X010264Y020511D01*
X010212Y020511D01*
X010161Y020515D01*
X010111Y020523D01*
X010061Y020535D01*
X010012Y020550D01*
X009964Y020570D01*
X009918Y020592D01*
X009874Y020618D01*
X009832Y020648D01*
X009793Y020681D01*
X009756Y020716D01*
X009722Y020754D01*
X009691Y020795D01*
X009663Y020838D01*
X009638Y020883D01*
X009618Y020930D01*
X009600Y020978D01*
X009587Y021028D01*
X009577Y021078D01*
X009571Y021129D01*
X009569Y021180D01*
X009569Y034180D02*
X009571Y034231D01*
X009577Y034282D01*
X009587Y034332D01*
X009600Y034382D01*
X009618Y034430D01*
X009638Y034477D01*
X009663Y034522D01*
X009691Y034565D01*
X009722Y034606D01*
X009756Y034644D01*
X009793Y034679D01*
X009832Y034712D01*
X009874Y034742D01*
X009918Y034768D01*
X009964Y034790D01*
X010012Y034810D01*
X010061Y034825D01*
X010111Y034837D01*
X010161Y034845D01*
X010212Y034849D01*
X010264Y034849D01*
X010315Y034845D01*
X010365Y034837D01*
X010415Y034825D01*
X010464Y034810D01*
X010512Y034790D01*
X010558Y034768D01*
X010602Y034742D01*
X010644Y034712D01*
X010683Y034679D01*
X010720Y034644D01*
X010754Y034606D01*
X010785Y034565D01*
X010813Y034522D01*
X010838Y034477D01*
X010858Y034430D01*
X010876Y034382D01*
X010889Y034332D01*
X010899Y034282D01*
X010905Y034231D01*
X010907Y034180D01*
X010905Y034129D01*
X010899Y034078D01*
X010889Y034028D01*
X010876Y033978D01*
X010858Y033930D01*
X010838Y033883D01*
X010813Y033838D01*
X010785Y033795D01*
X010754Y033754D01*
X010720Y033716D01*
X010683Y033681D01*
X010644Y033648D01*
X010602Y033618D01*
X010558Y033592D01*
X010512Y033570D01*
X010464Y033550D01*
X010415Y033535D01*
X010365Y033523D01*
X010315Y033515D01*
X010264Y033511D01*
X010212Y033511D01*
X010161Y033515D01*
X010111Y033523D01*
X010061Y033535D01*
X010012Y033550D01*
X009964Y033570D01*
X009918Y033592D01*
X009874Y033618D01*
X009832Y033648D01*
X009793Y033681D01*
X009756Y033716D01*
X009722Y033754D01*
X009691Y033795D01*
X009663Y033838D01*
X009638Y033883D01*
X009618Y033930D01*
X009600Y033978D01*
X009587Y034028D01*
X009577Y034078D01*
X009571Y034129D01*
X009569Y034180D01*
D18*
X021228Y020215D02*
X021166Y020154D01*
X021166Y019907D01*
X021228Y019845D01*
X021352Y019845D01*
X021413Y019907D01*
X021535Y019907D02*
X021596Y019845D01*
X021720Y019845D01*
X021782Y019907D01*
X021782Y019968D01*
X021720Y020030D01*
X021535Y020030D01*
X021535Y019907D01*
X021535Y020030D02*
X021658Y020154D01*
X021782Y020215D01*
X021413Y020154D02*
X021352Y020215D01*
X021228Y020215D01*
X026666Y020154D02*
X026666Y019907D01*
X026728Y019845D01*
X026852Y019845D01*
X026913Y019907D01*
X027035Y019907D02*
X027096Y019845D01*
X027220Y019845D01*
X027282Y019907D01*
X027282Y020030D01*
X027220Y020092D01*
X027158Y020092D01*
X027035Y020030D01*
X027035Y020215D01*
X027282Y020215D01*
X026913Y020154D02*
X026852Y020215D01*
X026728Y020215D01*
X026666Y020154D01*
X041393Y032195D02*
X041668Y032195D01*
X041723Y032250D01*
X041723Y032360D01*
X041668Y032415D01*
X041393Y032415D01*
X041448Y032526D02*
X041393Y032582D01*
X041393Y032692D01*
X041448Y032747D01*
X041448Y032858D02*
X041393Y032913D01*
X041393Y033023D01*
X041448Y033078D01*
X041503Y033078D01*
X041723Y032858D01*
X041723Y033078D01*
X041668Y032747D02*
X041613Y032747D01*
X041558Y032692D01*
X041558Y032582D01*
X041503Y032526D01*
X041448Y032526D01*
X041338Y032637D02*
X041778Y032637D01*
X041723Y032692D02*
X041668Y032747D01*
X041723Y032692D02*
X041723Y032582D01*
X041668Y032526D01*
X042003Y028525D02*
X042168Y028525D01*
X042223Y028470D01*
X042223Y028360D01*
X042168Y028305D01*
X042003Y028305D01*
X042003Y028195D02*
X042003Y028525D01*
X042113Y028305D02*
X042223Y028195D01*
X042335Y028195D02*
X042335Y028250D01*
X042555Y028470D01*
X042555Y028525D01*
X042335Y028525D01*
X044003Y028525D02*
X044168Y028525D01*
X044223Y028470D01*
X044223Y028360D01*
X044168Y028305D01*
X044003Y028305D01*
X044003Y028195D02*
X044003Y028525D01*
X044113Y028305D02*
X044223Y028195D01*
X044335Y028250D02*
X044390Y028195D01*
X044500Y028195D01*
X044555Y028250D01*
X044555Y028305D01*
X044500Y028360D01*
X044335Y028360D01*
X044335Y028250D01*
X044335Y028360D02*
X044445Y028470D01*
X044555Y028525D01*
D19*
X043238Y031390D03*
D20*
X029013Y008655D03*
X026963Y008655D03*
X026963Y004205D03*
X029013Y004205D03*
D21*
X028888Y003205D03*
D22*
X028738Y006430D03*
X027238Y006430D03*
D23*
X027213Y009505D03*
X028763Y009505D03*
X028763Y003355D03*
X027213Y003355D03*
D24*
X027088Y003280D03*
X027088Y009580D03*
X028888Y009580D03*
D25*
X028203Y007030D02*
X028203Y006610D01*
X028203Y006820D02*
X027572Y006820D01*
X027783Y006610D01*
X027572Y006385D02*
X027572Y005965D01*
X028203Y005965D01*
X027888Y005965D02*
X027888Y006175D01*
X047122Y010215D02*
X047753Y010215D01*
X047543Y010215D02*
X047122Y010635D01*
X047228Y010860D02*
X047122Y010965D01*
X047122Y011175D01*
X047228Y011280D01*
X047333Y011280D01*
X047438Y011175D01*
X047543Y011280D01*
X047648Y011280D01*
X047753Y011175D01*
X047753Y010965D01*
X047648Y010860D01*
X047753Y010635D02*
X047438Y010320D01*
X047438Y011070D02*
X047438Y011175D01*
D26*
X046988Y005580D02*
X046988Y000580D01*
X036588Y000580D01*
X036588Y005580D01*
X046988Y005580D01*
X046738Y005180D02*
X046488Y005180D01*
X046488Y000930D01*
X046738Y000930D01*
X046738Y005180D01*
X044988Y003430D02*
X044988Y002430D01*
X043988Y002930D02*
X043990Y002993D01*
X043996Y003055D01*
X044006Y003117D01*
X044019Y003179D01*
X044037Y003239D01*
X044058Y003298D01*
X044083Y003356D01*
X044112Y003412D01*
X044144Y003466D01*
X044179Y003518D01*
X044217Y003567D01*
X044259Y003615D01*
X044303Y003659D01*
X044351Y003701D01*
X044400Y003739D01*
X044452Y003774D01*
X044506Y003806D01*
X044562Y003835D01*
X044620Y003860D01*
X044679Y003881D01*
X044739Y003899D01*
X044801Y003912D01*
X044863Y003922D01*
X044925Y003928D01*
X044988Y003930D01*
X045051Y003928D01*
X045113Y003922D01*
X045175Y003912D01*
X045237Y003899D01*
X045297Y003881D01*
X045356Y003860D01*
X045414Y003835D01*
X045470Y003806D01*
X045524Y003774D01*
X045576Y003739D01*
X045625Y003701D01*
X045673Y003659D01*
X045717Y003615D01*
X045759Y003567D01*
X045797Y003518D01*
X045832Y003466D01*
X045864Y003412D01*
X045893Y003356D01*
X045918Y003298D01*
X045939Y003239D01*
X045957Y003179D01*
X045970Y003117D01*
X045980Y003055D01*
X045986Y002993D01*
X045988Y002930D01*
X045986Y002867D01*
X045980Y002805D01*
X045970Y002743D01*
X045957Y002681D01*
X045939Y002621D01*
X045918Y002562D01*
X045893Y002504D01*
X045864Y002448D01*
X045832Y002394D01*
X045797Y002342D01*
X045759Y002293D01*
X045717Y002245D01*
X045673Y002201D01*
X045625Y002159D01*
X045576Y002121D01*
X045524Y002086D01*
X045470Y002054D01*
X045414Y002025D01*
X045356Y002000D01*
X045297Y001979D01*
X045237Y001961D01*
X045175Y001948D01*
X045113Y001938D01*
X045051Y001932D01*
X044988Y001930D01*
X044925Y001932D01*
X044863Y001938D01*
X044801Y001948D01*
X044739Y001961D01*
X044679Y001979D01*
X044620Y002000D01*
X044562Y002025D01*
X044506Y002054D01*
X044452Y002086D01*
X044400Y002121D01*
X044351Y002159D01*
X044303Y002201D01*
X044259Y002245D01*
X044217Y002293D01*
X044179Y002342D01*
X044144Y002394D01*
X044112Y002448D01*
X044083Y002504D01*
X044058Y002562D01*
X044037Y002621D01*
X044019Y002681D01*
X044006Y002743D01*
X043996Y002805D01*
X043990Y002867D01*
X043988Y002930D01*
X044488Y002930D02*
X045488Y002930D01*
X043488Y000930D02*
X043488Y005180D01*
X043238Y005180D01*
X043238Y000930D01*
X043488Y000930D01*
X041738Y002430D02*
X041738Y003430D01*
X040738Y002930D02*
X040740Y002993D01*
X040746Y003055D01*
X040756Y003117D01*
X040769Y003179D01*
X040787Y003239D01*
X040808Y003298D01*
X040833Y003356D01*
X040862Y003412D01*
X040894Y003466D01*
X040929Y003518D01*
X040967Y003567D01*
X041009Y003615D01*
X041053Y003659D01*
X041101Y003701D01*
X041150Y003739D01*
X041202Y003774D01*
X041256Y003806D01*
X041312Y003835D01*
X041370Y003860D01*
X041429Y003881D01*
X041489Y003899D01*
X041551Y003912D01*
X041613Y003922D01*
X041675Y003928D01*
X041738Y003930D01*
X041801Y003928D01*
X041863Y003922D01*
X041925Y003912D01*
X041987Y003899D01*
X042047Y003881D01*
X042106Y003860D01*
X042164Y003835D01*
X042220Y003806D01*
X042274Y003774D01*
X042326Y003739D01*
X042375Y003701D01*
X042423Y003659D01*
X042467Y003615D01*
X042509Y003567D01*
X042547Y003518D01*
X042582Y003466D01*
X042614Y003412D01*
X042643Y003356D01*
X042668Y003298D01*
X042689Y003239D01*
X042707Y003179D01*
X042720Y003117D01*
X042730Y003055D01*
X042736Y002993D01*
X042738Y002930D01*
X042736Y002867D01*
X042730Y002805D01*
X042720Y002743D01*
X042707Y002681D01*
X042689Y002621D01*
X042668Y002562D01*
X042643Y002504D01*
X042614Y002448D01*
X042582Y002394D01*
X042547Y002342D01*
X042509Y002293D01*
X042467Y002245D01*
X042423Y002201D01*
X042375Y002159D01*
X042326Y002121D01*
X042274Y002086D01*
X042220Y002054D01*
X042164Y002025D01*
X042106Y002000D01*
X042047Y001979D01*
X041987Y001961D01*
X041925Y001948D01*
X041863Y001938D01*
X041801Y001932D01*
X041738Y001930D01*
X041675Y001932D01*
X041613Y001938D01*
X041551Y001948D01*
X041489Y001961D01*
X041429Y001979D01*
X041370Y002000D01*
X041312Y002025D01*
X041256Y002054D01*
X041202Y002086D01*
X041150Y002121D01*
X041101Y002159D01*
X041053Y002201D01*
X041009Y002245D01*
X040967Y002293D01*
X040929Y002342D01*
X040894Y002394D01*
X040862Y002448D01*
X040833Y002504D01*
X040808Y002562D01*
X040787Y002621D01*
X040769Y002681D01*
X040756Y002743D01*
X040746Y002805D01*
X040740Y002867D01*
X040738Y002930D01*
X041238Y002930D02*
X042238Y002930D01*
X040238Y000930D02*
X040238Y005180D01*
X039988Y005180D01*
X039988Y000930D01*
X040238Y000930D01*
X038488Y002430D02*
X038488Y003430D01*
X037488Y002930D02*
X037490Y002993D01*
X037496Y003055D01*
X037506Y003117D01*
X037519Y003179D01*
X037537Y003239D01*
X037558Y003298D01*
X037583Y003356D01*
X037612Y003412D01*
X037644Y003466D01*
X037679Y003518D01*
X037717Y003567D01*
X037759Y003615D01*
X037803Y003659D01*
X037851Y003701D01*
X037900Y003739D01*
X037952Y003774D01*
X038006Y003806D01*
X038062Y003835D01*
X038120Y003860D01*
X038179Y003881D01*
X038239Y003899D01*
X038301Y003912D01*
X038363Y003922D01*
X038425Y003928D01*
X038488Y003930D01*
X038551Y003928D01*
X038613Y003922D01*
X038675Y003912D01*
X038737Y003899D01*
X038797Y003881D01*
X038856Y003860D01*
X038914Y003835D01*
X038970Y003806D01*
X039024Y003774D01*
X039076Y003739D01*
X039125Y003701D01*
X039173Y003659D01*
X039217Y003615D01*
X039259Y003567D01*
X039297Y003518D01*
X039332Y003466D01*
X039364Y003412D01*
X039393Y003356D01*
X039418Y003298D01*
X039439Y003239D01*
X039457Y003179D01*
X039470Y003117D01*
X039480Y003055D01*
X039486Y002993D01*
X039488Y002930D01*
X039486Y002867D01*
X039480Y002805D01*
X039470Y002743D01*
X039457Y002681D01*
X039439Y002621D01*
X039418Y002562D01*
X039393Y002504D01*
X039364Y002448D01*
X039332Y002394D01*
X039297Y002342D01*
X039259Y002293D01*
X039217Y002245D01*
X039173Y002201D01*
X039125Y002159D01*
X039076Y002121D01*
X039024Y002086D01*
X038970Y002054D01*
X038914Y002025D01*
X038856Y002000D01*
X038797Y001979D01*
X038737Y001961D01*
X038675Y001948D01*
X038613Y001938D01*
X038551Y001932D01*
X038488Y001930D01*
X038425Y001932D01*
X038363Y001938D01*
X038301Y001948D01*
X038239Y001961D01*
X038179Y001979D01*
X038120Y002000D01*
X038062Y002025D01*
X038006Y002054D01*
X037952Y002086D01*
X037900Y002121D01*
X037851Y002159D01*
X037803Y002201D01*
X037759Y002245D01*
X037717Y002293D01*
X037679Y002342D01*
X037644Y002394D01*
X037612Y002448D01*
X037583Y002504D01*
X037558Y002562D01*
X037537Y002621D01*
X037519Y002681D01*
X037506Y002743D01*
X037496Y002805D01*
X037490Y002867D01*
X037488Y002930D01*
X037988Y002930D02*
X038988Y002930D01*
X036988Y000930D02*
X036988Y005180D01*
X036738Y005180D01*
X036738Y000930D01*
X036988Y000930D01*
X036618Y011790D02*
X027858Y011790D01*
X027858Y025070D01*
X036618Y025070D01*
X036618Y011800D01*
X036618Y011790D01*
X024734Y013955D02*
X024434Y013955D01*
X024584Y013955D02*
X024584Y014405D01*
X024434Y014255D01*
X024274Y013955D02*
X023973Y013955D01*
X024124Y013955D02*
X024124Y014405D01*
X023973Y014255D01*
X023813Y014180D02*
X023738Y014105D01*
X023513Y014105D01*
X023513Y013955D02*
X023513Y014405D01*
X023738Y014405D01*
X023813Y014330D01*
X023813Y014180D01*
X023663Y014105D02*
X023813Y013955D01*
X022438Y005330D02*
X015038Y005330D01*
X015038Y000330D01*
X022438Y000330D01*
X022438Y005330D01*
X022188Y004930D02*
X021938Y004930D01*
X021938Y000680D01*
X022188Y000680D01*
X022188Y004930D01*
X020438Y003180D02*
X020438Y002180D01*
X019438Y002680D02*
X019440Y002743D01*
X019446Y002805D01*
X019456Y002867D01*
X019469Y002929D01*
X019487Y002989D01*
X019508Y003048D01*
X019533Y003106D01*
X019562Y003162D01*
X019594Y003216D01*
X019629Y003268D01*
X019667Y003317D01*
X019709Y003365D01*
X019753Y003409D01*
X019801Y003451D01*
X019850Y003489D01*
X019902Y003524D01*
X019956Y003556D01*
X020012Y003585D01*
X020070Y003610D01*
X020129Y003631D01*
X020189Y003649D01*
X020251Y003662D01*
X020313Y003672D01*
X020375Y003678D01*
X020438Y003680D01*
X020501Y003678D01*
X020563Y003672D01*
X020625Y003662D01*
X020687Y003649D01*
X020747Y003631D01*
X020806Y003610D01*
X020864Y003585D01*
X020920Y003556D01*
X020974Y003524D01*
X021026Y003489D01*
X021075Y003451D01*
X021123Y003409D01*
X021167Y003365D01*
X021209Y003317D01*
X021247Y003268D01*
X021282Y003216D01*
X021314Y003162D01*
X021343Y003106D01*
X021368Y003048D01*
X021389Y002989D01*
X021407Y002929D01*
X021420Y002867D01*
X021430Y002805D01*
X021436Y002743D01*
X021438Y002680D01*
X021436Y002617D01*
X021430Y002555D01*
X021420Y002493D01*
X021407Y002431D01*
X021389Y002371D01*
X021368Y002312D01*
X021343Y002254D01*
X021314Y002198D01*
X021282Y002144D01*
X021247Y002092D01*
X021209Y002043D01*
X021167Y001995D01*
X021123Y001951D01*
X021075Y001909D01*
X021026Y001871D01*
X020974Y001836D01*
X020920Y001804D01*
X020864Y001775D01*
X020806Y001750D01*
X020747Y001729D01*
X020687Y001711D01*
X020625Y001698D01*
X020563Y001688D01*
X020501Y001682D01*
X020438Y001680D01*
X020375Y001682D01*
X020313Y001688D01*
X020251Y001698D01*
X020189Y001711D01*
X020129Y001729D01*
X020070Y001750D01*
X020012Y001775D01*
X019956Y001804D01*
X019902Y001836D01*
X019850Y001871D01*
X019801Y001909D01*
X019753Y001951D01*
X019709Y001995D01*
X019667Y002043D01*
X019629Y002092D01*
X019594Y002144D01*
X019562Y002198D01*
X019533Y002254D01*
X019508Y002312D01*
X019487Y002371D01*
X019469Y002431D01*
X019456Y002493D01*
X019446Y002555D01*
X019440Y002617D01*
X019438Y002680D01*
X019938Y002680D02*
X020938Y002680D01*
X018938Y000680D02*
X018688Y000680D01*
X018688Y004930D01*
X018938Y004930D01*
X018938Y000680D01*
X017188Y002180D02*
X017188Y003180D01*
X016188Y002680D02*
X016190Y002743D01*
X016196Y002805D01*
X016206Y002867D01*
X016219Y002929D01*
X016237Y002989D01*
X016258Y003048D01*
X016283Y003106D01*
X016312Y003162D01*
X016344Y003216D01*
X016379Y003268D01*
X016417Y003317D01*
X016459Y003365D01*
X016503Y003409D01*
X016551Y003451D01*
X016600Y003489D01*
X016652Y003524D01*
X016706Y003556D01*
X016762Y003585D01*
X016820Y003610D01*
X016879Y003631D01*
X016939Y003649D01*
X017001Y003662D01*
X017063Y003672D01*
X017125Y003678D01*
X017188Y003680D01*
X017251Y003678D01*
X017313Y003672D01*
X017375Y003662D01*
X017437Y003649D01*
X017497Y003631D01*
X017556Y003610D01*
X017614Y003585D01*
X017670Y003556D01*
X017724Y003524D01*
X017776Y003489D01*
X017825Y003451D01*
X017873Y003409D01*
X017917Y003365D01*
X017959Y003317D01*
X017997Y003268D01*
X018032Y003216D01*
X018064Y003162D01*
X018093Y003106D01*
X018118Y003048D01*
X018139Y002989D01*
X018157Y002929D01*
X018170Y002867D01*
X018180Y002805D01*
X018186Y002743D01*
X018188Y002680D01*
X018186Y002617D01*
X018180Y002555D01*
X018170Y002493D01*
X018157Y002431D01*
X018139Y002371D01*
X018118Y002312D01*
X018093Y002254D01*
X018064Y002198D01*
X018032Y002144D01*
X017997Y002092D01*
X017959Y002043D01*
X017917Y001995D01*
X017873Y001951D01*
X017825Y001909D01*
X017776Y001871D01*
X017724Y001836D01*
X017670Y001804D01*
X017614Y001775D01*
X017556Y001750D01*
X017497Y001729D01*
X017437Y001711D01*
X017375Y001698D01*
X017313Y001688D01*
X017251Y001682D01*
X017188Y001680D01*
X017125Y001682D01*
X017063Y001688D01*
X017001Y001698D01*
X016939Y001711D01*
X016879Y001729D01*
X016820Y001750D01*
X016762Y001775D01*
X016706Y001804D01*
X016652Y001836D01*
X016600Y001871D01*
X016551Y001909D01*
X016503Y001951D01*
X016459Y001995D01*
X016417Y002043D01*
X016379Y002092D01*
X016344Y002144D01*
X016312Y002198D01*
X016283Y002254D01*
X016258Y002312D01*
X016237Y002371D01*
X016219Y002431D01*
X016206Y002493D01*
X016196Y002555D01*
X016190Y002617D01*
X016188Y002680D01*
X016688Y002680D02*
X017688Y002680D01*
X015688Y000680D02*
X015688Y004930D01*
X015438Y004930D01*
X015438Y000680D01*
X015688Y000680D01*
X013638Y006180D02*
X008638Y006180D01*
X008638Y016580D01*
X013638Y016580D01*
X013638Y006180D01*
X013238Y006430D02*
X008988Y006430D01*
X008988Y006680D01*
X013238Y006680D01*
X013238Y006430D01*
X011488Y008180D02*
X010488Y008180D01*
X009988Y008180D02*
X009990Y008243D01*
X009996Y008305D01*
X010006Y008367D01*
X010019Y008429D01*
X010037Y008489D01*
X010058Y008548D01*
X010083Y008606D01*
X010112Y008662D01*
X010144Y008716D01*
X010179Y008768D01*
X010217Y008817D01*
X010259Y008865D01*
X010303Y008909D01*
X010351Y008951D01*
X010400Y008989D01*
X010452Y009024D01*
X010506Y009056D01*
X010562Y009085D01*
X010620Y009110D01*
X010679Y009131D01*
X010739Y009149D01*
X010801Y009162D01*
X010863Y009172D01*
X010925Y009178D01*
X010988Y009180D01*
X011051Y009178D01*
X011113Y009172D01*
X011175Y009162D01*
X011237Y009149D01*
X011297Y009131D01*
X011356Y009110D01*
X011414Y009085D01*
X011470Y009056D01*
X011524Y009024D01*
X011576Y008989D01*
X011625Y008951D01*
X011673Y008909D01*
X011717Y008865D01*
X011759Y008817D01*
X011797Y008768D01*
X011832Y008716D01*
X011864Y008662D01*
X011893Y008606D01*
X011918Y008548D01*
X011939Y008489D01*
X011957Y008429D01*
X011970Y008367D01*
X011980Y008305D01*
X011986Y008243D01*
X011988Y008180D01*
X011986Y008117D01*
X011980Y008055D01*
X011970Y007993D01*
X011957Y007931D01*
X011939Y007871D01*
X011918Y007812D01*
X011893Y007754D01*
X011864Y007698D01*
X011832Y007644D01*
X011797Y007592D01*
X011759Y007543D01*
X011717Y007495D01*
X011673Y007451D01*
X011625Y007409D01*
X011576Y007371D01*
X011524Y007336D01*
X011470Y007304D01*
X011414Y007275D01*
X011356Y007250D01*
X011297Y007229D01*
X011237Y007211D01*
X011175Y007198D01*
X011113Y007188D01*
X011051Y007182D01*
X010988Y007180D01*
X010925Y007182D01*
X010863Y007188D01*
X010801Y007198D01*
X010739Y007211D01*
X010679Y007229D01*
X010620Y007250D01*
X010562Y007275D01*
X010506Y007304D01*
X010452Y007336D01*
X010400Y007371D01*
X010351Y007409D01*
X010303Y007451D01*
X010259Y007495D01*
X010217Y007543D01*
X010179Y007592D01*
X010144Y007644D01*
X010112Y007698D01*
X010083Y007754D01*
X010058Y007812D01*
X010037Y007871D01*
X010019Y007931D01*
X010006Y007993D01*
X009996Y008055D01*
X009990Y008117D01*
X009988Y008180D01*
X010988Y007680D02*
X010988Y008680D01*
X008988Y009680D02*
X008988Y009930D01*
X013238Y009930D01*
X013238Y009680D01*
X008988Y009680D01*
X010988Y010930D02*
X010988Y011930D01*
X009988Y011430D02*
X009990Y011493D01*
X009996Y011555D01*
X010006Y011617D01*
X010019Y011679D01*
X010037Y011739D01*
X010058Y011798D01*
X010083Y011856D01*
X010112Y011912D01*
X010144Y011966D01*
X010179Y012018D01*
X010217Y012067D01*
X010259Y012115D01*
X010303Y012159D01*
X010351Y012201D01*
X010400Y012239D01*
X010452Y012274D01*
X010506Y012306D01*
X010562Y012335D01*
X010620Y012360D01*
X010679Y012381D01*
X010739Y012399D01*
X010801Y012412D01*
X010863Y012422D01*
X010925Y012428D01*
X010988Y012430D01*
X011051Y012428D01*
X011113Y012422D01*
X011175Y012412D01*
X011237Y012399D01*
X011297Y012381D01*
X011356Y012360D01*
X011414Y012335D01*
X011470Y012306D01*
X011524Y012274D01*
X011576Y012239D01*
X011625Y012201D01*
X011673Y012159D01*
X011717Y012115D01*
X011759Y012067D01*
X011797Y012018D01*
X011832Y011966D01*
X011864Y011912D01*
X011893Y011856D01*
X011918Y011798D01*
X011939Y011739D01*
X011957Y011679D01*
X011970Y011617D01*
X011980Y011555D01*
X011986Y011493D01*
X011988Y011430D01*
X011986Y011367D01*
X011980Y011305D01*
X011970Y011243D01*
X011957Y011181D01*
X011939Y011121D01*
X011918Y011062D01*
X011893Y011004D01*
X011864Y010948D01*
X011832Y010894D01*
X011797Y010842D01*
X011759Y010793D01*
X011717Y010745D01*
X011673Y010701D01*
X011625Y010659D01*
X011576Y010621D01*
X011524Y010586D01*
X011470Y010554D01*
X011414Y010525D01*
X011356Y010500D01*
X011297Y010479D01*
X011237Y010461D01*
X011175Y010448D01*
X011113Y010438D01*
X011051Y010432D01*
X010988Y010430D01*
X010925Y010432D01*
X010863Y010438D01*
X010801Y010448D01*
X010739Y010461D01*
X010679Y010479D01*
X010620Y010500D01*
X010562Y010525D01*
X010506Y010554D01*
X010452Y010586D01*
X010400Y010621D01*
X010351Y010659D01*
X010303Y010701D01*
X010259Y010745D01*
X010217Y010793D01*
X010179Y010842D01*
X010144Y010894D01*
X010112Y010948D01*
X010083Y011004D01*
X010058Y011062D01*
X010037Y011121D01*
X010019Y011181D01*
X010006Y011243D01*
X009996Y011305D01*
X009990Y011367D01*
X009988Y011430D01*
X010488Y011430D02*
X011488Y011430D01*
X013238Y012930D02*
X013238Y013180D01*
X008988Y013180D01*
X008988Y012930D01*
X013238Y012930D01*
X011488Y014680D02*
X010488Y014680D01*
X009988Y014680D02*
X009990Y014743D01*
X009996Y014805D01*
X010006Y014867D01*
X010019Y014929D01*
X010037Y014989D01*
X010058Y015048D01*
X010083Y015106D01*
X010112Y015162D01*
X010144Y015216D01*
X010179Y015268D01*
X010217Y015317D01*
X010259Y015365D01*
X010303Y015409D01*
X010351Y015451D01*
X010400Y015489D01*
X010452Y015524D01*
X010506Y015556D01*
X010562Y015585D01*
X010620Y015610D01*
X010679Y015631D01*
X010739Y015649D01*
X010801Y015662D01*
X010863Y015672D01*
X010925Y015678D01*
X010988Y015680D01*
X011051Y015678D01*
X011113Y015672D01*
X011175Y015662D01*
X011237Y015649D01*
X011297Y015631D01*
X011356Y015610D01*
X011414Y015585D01*
X011470Y015556D01*
X011524Y015524D01*
X011576Y015489D01*
X011625Y015451D01*
X011673Y015409D01*
X011717Y015365D01*
X011759Y015317D01*
X011797Y015268D01*
X011832Y015216D01*
X011864Y015162D01*
X011893Y015106D01*
X011918Y015048D01*
X011939Y014989D01*
X011957Y014929D01*
X011970Y014867D01*
X011980Y014805D01*
X011986Y014743D01*
X011988Y014680D01*
X011986Y014617D01*
X011980Y014555D01*
X011970Y014493D01*
X011957Y014431D01*
X011939Y014371D01*
X011918Y014312D01*
X011893Y014254D01*
X011864Y014198D01*
X011832Y014144D01*
X011797Y014092D01*
X011759Y014043D01*
X011717Y013995D01*
X011673Y013951D01*
X011625Y013909D01*
X011576Y013871D01*
X011524Y013836D01*
X011470Y013804D01*
X011414Y013775D01*
X011356Y013750D01*
X011297Y013729D01*
X011237Y013711D01*
X011175Y013698D01*
X011113Y013688D01*
X011051Y013682D01*
X010988Y013680D01*
X010925Y013682D01*
X010863Y013688D01*
X010801Y013698D01*
X010739Y013711D01*
X010679Y013729D01*
X010620Y013750D01*
X010562Y013775D01*
X010506Y013804D01*
X010452Y013836D01*
X010400Y013871D01*
X010351Y013909D01*
X010303Y013951D01*
X010259Y013995D01*
X010217Y014043D01*
X010179Y014092D01*
X010144Y014144D01*
X010112Y014198D01*
X010083Y014254D01*
X010058Y014312D01*
X010037Y014371D01*
X010019Y014431D01*
X010006Y014493D01*
X009996Y014555D01*
X009990Y014617D01*
X009988Y014680D01*
X010988Y014180D02*
X010988Y015180D01*
X008988Y016180D02*
X013238Y016180D01*
X013238Y016430D01*
X008988Y016430D01*
X008988Y016180D01*
X008888Y025330D02*
X008888Y032530D01*
X026088Y032530D01*
X026088Y025330D01*
X008888Y025330D01*
X031513Y025934D02*
X031513Y026234D01*
X031588Y026395D02*
X031513Y026470D01*
X031513Y026620D01*
X031588Y026695D01*
X031663Y026695D01*
X031738Y026620D01*
X031813Y026695D01*
X031888Y026695D01*
X031963Y026620D01*
X031963Y026470D01*
X031888Y026395D01*
X031738Y026545D02*
X031738Y026620D01*
X031738Y026084D02*
X031738Y025934D01*
X031963Y025934D02*
X031513Y025934D01*
X037382Y026280D02*
X037457Y026205D01*
X037607Y026205D01*
X037682Y026280D01*
X037682Y026355D01*
X037607Y026430D01*
X037457Y026430D01*
X037382Y026505D01*
X037382Y026580D01*
X037457Y026655D01*
X037607Y026655D01*
X037682Y026580D01*
X037842Y026580D02*
X037917Y026655D01*
X038067Y026655D01*
X038143Y026580D01*
X038143Y026430D02*
X037992Y026430D01*
X038143Y026430D02*
X038143Y026280D01*
X038067Y026205D01*
X037917Y026205D01*
X037842Y026280D01*
X037842Y026580D01*
X038303Y026505D02*
X038453Y026655D01*
X038453Y026205D01*
X038303Y026205D02*
X038603Y026205D01*
X032813Y033305D02*
X032513Y033305D01*
X032663Y033305D02*
X032663Y033755D01*
X032513Y033605D01*
X032488Y035105D02*
X032338Y035105D01*
X032263Y035180D01*
X032338Y035330D02*
X032488Y035330D01*
X032563Y035255D01*
X032563Y035180D01*
X032488Y035105D01*
X032338Y035330D02*
X032263Y035405D01*
X032263Y035480D01*
X032338Y035555D01*
X032488Y035555D01*
X032563Y035480D01*
X032723Y035555D02*
X032723Y035255D01*
X032874Y035105D01*
X033024Y035255D01*
X033024Y035555D01*
X033184Y035405D02*
X033334Y035555D01*
X033334Y035105D01*
X033184Y035105D02*
X033484Y035105D01*
X038613Y035180D02*
X038613Y035105D01*
X038613Y035180D02*
X038913Y035480D01*
X038913Y035555D01*
X038613Y035555D01*
D27*
X039438Y028430D02*
X039438Y027930D01*
X039688Y028180D02*
X039188Y028180D01*
X029584Y028584D02*
X029584Y030276D01*
X029250Y030276D01*
X028226Y030276D02*
X027892Y030276D01*
X027892Y028584D01*
X028699Y028584D02*
X028777Y028584D01*
X029188Y033996D02*
X029505Y033996D01*
X029568Y034059D01*
X029568Y034186D01*
X029505Y034250D01*
X029188Y034250D01*
X029251Y034438D02*
X029188Y034501D01*
X029188Y034628D01*
X029251Y034692D01*
X029314Y034692D01*
X029568Y034438D01*
X029568Y034692D01*
X041488Y013680D02*
X041988Y013680D01*
X042488Y013680D01*
X042488Y013180D01*
X041988Y013180D01*
X041488Y013180D01*
X045338Y013430D02*
X045588Y013680D01*
X045718Y013800D01*
D28*
X014359Y021709D03*
X014359Y022251D03*
X014359Y022709D03*
X014359Y023251D03*
D29*
X014207Y022980D03*
X014207Y021980D03*
M02*
