G75*
%MOIN*%
%OFA0B0*%
%FSLAX24Y24*%
%IPPOS*%
%LPD*%
%AMOC8*
5,1,8,0,0,1.08239X$1,22.5*
%
%ADD10C,0.1320*%
%ADD11C,0.1060*%
%ADD12C,0.0660*%
%ADD13C,0.0735*%
%ADD14R,0.0800X0.0800*%
%ADD15C,0.0800*%
%ADD16OC8,0.1060*%
%ADD17C,0.1140*%
%ADD18C,0.0840*%
%ADD19R,0.0760X0.0760*%
%ADD20C,0.0760*%
%ADD21C,0.0436*%
D10*
X010238Y002180D03*
X010238Y021180D03*
X010238Y034180D03*
X050238Y034180D03*
X050238Y021180D03*
X050238Y002180D03*
D11*
X028488Y002330D02*
X027488Y002330D01*
X027488Y004330D02*
X028488Y004330D01*
X028488Y008530D02*
X027488Y008530D01*
X027488Y010530D02*
X028488Y010530D01*
D12*
X025138Y013180D02*
X024538Y013180D01*
X023438Y010180D02*
X022838Y010180D01*
X032738Y026130D02*
X032738Y026730D01*
X034738Y026730D02*
X034738Y026130D01*
X034738Y034130D02*
X034738Y034730D01*
X033738Y034730D02*
X033738Y034130D01*
X032738Y034130D02*
X032738Y034730D01*
X035738Y034730D02*
X035738Y034130D01*
X036738Y034130D02*
X036738Y034730D01*
X037738Y034730D02*
X037738Y034130D01*
X038738Y034130D02*
X038738Y034730D01*
D13*
X032238Y023940D03*
X029238Y023940D03*
X029238Y012920D03*
X035238Y012920D03*
D14*
X028486Y034428D03*
D15*
X027486Y034428D03*
X026486Y034428D03*
X025486Y034428D03*
X024486Y034428D03*
X023486Y034428D03*
X022486Y034428D03*
X021486Y034428D03*
X020486Y034428D03*
X019486Y034428D03*
X018486Y034428D03*
X017486Y034428D03*
X016486Y034428D03*
X015486Y034428D03*
X014486Y034428D03*
X013486Y034428D03*
D16*
X038238Y031180D03*
X038238Y028180D03*
D17*
X012738Y014680D03*
X012738Y011430D03*
X012738Y008180D03*
X017188Y004430D03*
X020438Y004430D03*
X038488Y004680D03*
X041738Y004680D03*
X044988Y004680D03*
D18*
X045198Y011080D02*
X045978Y011080D01*
X041178Y011080D02*
X040398Y011080D01*
X040378Y013430D02*
X039598Y013430D01*
X040398Y015780D02*
X041178Y015780D01*
X045198Y015780D02*
X045978Y015780D01*
D19*
X024488Y031930D03*
D20*
X023488Y031930D03*
X022488Y031930D03*
X021488Y031930D03*
X020488Y031930D03*
X019488Y031930D03*
X018488Y031930D03*
X017488Y031930D03*
X016488Y031930D03*
X015488Y031930D03*
X014488Y031930D03*
X013488Y031930D03*
X012488Y031930D03*
X011488Y031930D03*
X010488Y031930D03*
X009488Y031930D03*
X009488Y025930D03*
X010488Y025930D03*
X011488Y025930D03*
X012488Y025930D03*
X013488Y025930D03*
X014488Y025930D03*
X015488Y025930D03*
X016488Y025930D03*
X017488Y025930D03*
X018488Y025930D03*
X019488Y025930D03*
X020488Y025930D03*
X021488Y025930D03*
X022488Y025930D03*
X023488Y025930D03*
X024488Y025930D03*
X025488Y025930D03*
X025488Y031930D03*
D21*
X028738Y031430D03*
X026988Y028430D03*
X026688Y026930D03*
X018888Y023730D03*
X039738Y020680D03*
M02*
