G75*
%MOIN*%
%OFA0B0*%
%FSLAX24Y24*%
%IPPOS*%
%LPD*%
%AMOC8*
5,1,8,0,0,1.08239X$1,22.5*
%
%ADD10R,0.0512X0.0630*%
%ADD11R,0.2126X0.2441*%
%ADD12R,0.0394X0.0630*%
%ADD13C,0.1000*%
%ADD14C,0.0600*%
%ADD15C,0.0675*%
%ADD16R,0.0701X0.0850*%
%ADD17R,0.0740X0.0740*%
%ADD18C,0.0740*%
%ADD19R,0.0630X0.0512*%
%ADD20R,0.1417X0.0512*%
%ADD21R,0.0630X0.0709*%
%ADD22R,0.0512X0.0512*%
%ADD23R,0.0787X0.0512*%
%ADD24R,0.0591X0.0591*%
%ADD25OC8,0.1000*%
%ADD26C,0.1080*%
%ADD27C,0.0780*%
%ADD28R,0.0700X0.0700*%
%ADD29C,0.0700*%
%ADD30C,0.0100*%
%ADD31C,0.0160*%
%ADD32C,0.0376*%
%ADD33C,0.0320*%
D10*
X016264Y021980D03*
X017012Y021980D03*
X017012Y022980D03*
X016264Y022980D03*
X041864Y028930D03*
X042612Y028930D03*
X043864Y028930D03*
X044612Y028930D03*
D11*
X043238Y033414D03*
D12*
X042340Y030540D03*
X044136Y030540D03*
D13*
X028488Y010530D02*
X027488Y010530D01*
X027488Y008530D02*
X028488Y008530D01*
X028488Y004330D02*
X027488Y004330D01*
X027488Y002330D02*
X028488Y002330D01*
D14*
X023438Y010180D02*
X022838Y010180D01*
X024538Y013180D02*
X025138Y013180D01*
X032738Y026130D02*
X032738Y026730D01*
X034738Y026730D02*
X034738Y026130D01*
X034738Y034130D02*
X034738Y034730D01*
X033738Y034730D02*
X033738Y034130D01*
X032738Y034130D02*
X032738Y034730D01*
X035738Y034730D02*
X035738Y034130D01*
X036738Y034130D02*
X036738Y034730D01*
X037738Y034730D02*
X037738Y034130D01*
X038738Y034130D02*
X038738Y034730D01*
D15*
X032238Y023940D03*
X029238Y023940D03*
X029238Y012920D03*
X035238Y012920D03*
D16*
X034037Y030430D03*
X032435Y030430D03*
D17*
X028486Y034428D03*
D18*
X027486Y034428D03*
X026486Y034428D03*
X025486Y034428D03*
X024486Y034428D03*
X023486Y034428D03*
X022486Y034428D03*
X021486Y034428D03*
X020486Y034428D03*
X019486Y034428D03*
X018486Y034428D03*
X017486Y034428D03*
X016486Y034428D03*
X015486Y034428D03*
X014486Y034428D03*
X013486Y034428D03*
D19*
X026988Y029804D03*
X026988Y029056D03*
D20*
X026943Y022480D03*
X023843Y022480D03*
X021443Y022480D03*
X018343Y022480D03*
D21*
X026687Y026180D03*
X027789Y026180D03*
D22*
X028285Y028347D03*
X029191Y028347D03*
D23*
X028738Y030513D03*
D24*
X014827Y022980D03*
X014827Y021980D03*
X013449Y021980D03*
X013449Y022980D03*
D25*
X038238Y028180D03*
X038238Y031180D03*
D26*
X012738Y014680D03*
X012738Y011430D03*
X012738Y008180D03*
X017188Y004430D03*
X020438Y004430D03*
X038488Y004680D03*
X041738Y004680D03*
X044988Y004680D03*
D27*
X045198Y011080D02*
X045978Y011080D01*
X041178Y011080D02*
X040398Y011080D01*
X040378Y013430D02*
X039598Y013430D01*
X040398Y015780D02*
X041178Y015780D01*
X045198Y015780D02*
X045978Y015780D01*
D28*
X024488Y031930D03*
D29*
X023488Y031930D03*
X022488Y031930D03*
X021488Y031930D03*
X020488Y031930D03*
X019488Y031930D03*
X018488Y031930D03*
X017488Y031930D03*
X016488Y031930D03*
X015488Y031930D03*
X014488Y031930D03*
X013488Y031930D03*
X012488Y031930D03*
X011488Y031930D03*
X010488Y031930D03*
X010488Y025930D03*
X011488Y025930D03*
X012488Y025930D03*
X013488Y025930D03*
X014488Y025930D03*
X015488Y025930D03*
X016488Y025930D03*
X017488Y025930D03*
X018488Y025930D03*
X019488Y025930D03*
X020488Y025930D03*
X021488Y025930D03*
X022488Y025930D03*
X023488Y025930D03*
X024488Y025930D03*
D30*
X026988Y029804D02*
X026988Y030180D01*
X026488Y030680D01*
X014488Y030680D01*
X013988Y031180D01*
X013988Y033430D01*
X014488Y033930D01*
X014488Y034426D01*
X014486Y034428D01*
X014988Y033680D02*
X032488Y033680D01*
X032738Y033930D01*
X032738Y034430D01*
X033738Y034430D02*
X033738Y033680D01*
X033488Y033430D01*
X015988Y033430D01*
X015488Y032930D01*
X015488Y031930D01*
X014488Y031930D02*
X014488Y033180D01*
X014988Y033680D01*
X016488Y032930D02*
X016488Y031930D01*
X016488Y032930D02*
X016738Y033180D01*
X034488Y033180D01*
X034738Y033430D01*
X034738Y034430D01*
X035738Y034430D02*
X035738Y033180D01*
X035488Y032930D01*
X017738Y032930D01*
X017488Y032680D01*
X017488Y031930D01*
X018488Y031930D02*
X018488Y032430D01*
X018738Y032680D01*
X036488Y032680D01*
X036738Y032930D01*
X036738Y034430D01*
X037738Y034430D02*
X037738Y033430D01*
X036738Y032430D01*
X027988Y032430D01*
X026738Y031180D01*
X021238Y031180D01*
X020988Y031430D01*
X020988Y032180D01*
X020738Y032430D01*
X019738Y032430D01*
X019488Y032180D01*
X020488Y031930D02*
X020488Y031180D01*
X020738Y030930D01*
X027238Y030930D01*
X028488Y032180D01*
X036988Y032180D01*
X038738Y033930D01*
X038738Y034430D01*
X038238Y031180D02*
X036988Y029930D01*
X036988Y021680D01*
X036488Y021180D01*
X012988Y021180D01*
X012588Y021580D01*
X012588Y022580D01*
X010988Y024180D01*
X010988Y030680D01*
X011488Y031180D01*
X011488Y031930D01*
X012488Y031930D02*
X012488Y027180D01*
X011988Y026680D01*
X011988Y023880D01*
X012938Y022930D01*
X012938Y022130D01*
X013088Y021980D01*
X013449Y021980D01*
X013388Y021980D01*
X013449Y021980D02*
X013638Y021980D01*
X013449Y022980D02*
X013388Y023041D01*
X013388Y023780D01*
X012988Y024180D01*
X012988Y030680D01*
X013488Y031180D01*
X013488Y031930D01*
X010488Y025930D02*
X010488Y024130D01*
X012238Y022380D01*
X012238Y021430D01*
X012738Y020930D01*
X036738Y020930D01*
X037738Y021930D01*
X037738Y025680D01*
X040988Y028930D01*
X041864Y028930D01*
X042612Y028930D02*
X042612Y029556D01*
X042340Y029828D01*
X042340Y030540D01*
X042612Y028930D02*
X043864Y028930D01*
X044612Y028930D02*
X044612Y029556D01*
X044136Y030032D01*
X044136Y030540D01*
X016264Y022980D02*
X014827Y022980D01*
X014827Y021980D02*
X016264Y021980D01*
X013449Y022980D02*
X013388Y022980D01*
D31*
X008918Y016898D02*
X008918Y004016D01*
X009098Y004155D01*
X009098Y004155D01*
X009648Y004382D01*
X009648Y004382D01*
X010238Y004460D01*
X010238Y004460D01*
X010828Y004382D01*
X010828Y004382D01*
X011378Y004155D01*
X011378Y004155D01*
X011850Y003792D01*
X011850Y003792D01*
X011850Y003792D01*
X012213Y003320D01*
X012213Y003320D01*
X012440Y002770D01*
X012440Y002770D01*
X012518Y002180D01*
X012440Y001590D01*
X012440Y001590D01*
X012213Y001040D01*
X012213Y001040D01*
X012074Y000860D01*
X048402Y000860D01*
X048263Y001040D01*
X048263Y001040D01*
X048036Y001590D01*
X048036Y001590D01*
X047958Y002180D01*
X047958Y002180D01*
X048036Y002770D01*
X048036Y002770D01*
X048263Y003320D01*
X048263Y003320D01*
X048626Y003792D01*
X048626Y003792D01*
X048626Y003792D01*
X049098Y004155D01*
X049098Y004155D01*
X049648Y004382D01*
X049648Y004382D01*
X050238Y004460D01*
X050238Y004460D01*
X050828Y004382D01*
X050828Y004382D01*
X051378Y004155D01*
X051378Y004155D01*
X051558Y004016D01*
X051558Y016898D01*
X051276Y017180D01*
X038578Y017180D01*
X038578Y017028D01*
X038986Y016620D01*
X039725Y016620D01*
X039741Y016636D01*
X039985Y016777D01*
X040257Y016850D01*
X041319Y016850D01*
X041591Y016777D01*
X041835Y016636D01*
X042034Y016437D01*
X042175Y016193D01*
X042248Y015921D01*
X042248Y015639D01*
X042175Y015367D01*
X042034Y015123D01*
X041835Y014924D01*
X041591Y014783D01*
X041319Y014710D01*
X040257Y014710D01*
X039985Y014783D01*
X039741Y014924D01*
X039725Y014940D01*
X038471Y014940D01*
X038162Y015068D01*
X037578Y015652D01*
X037578Y012528D01*
X038186Y011920D01*
X039725Y011920D01*
X039741Y011936D01*
X039985Y012077D01*
X040257Y012150D01*
X041319Y012150D01*
X041591Y012077D01*
X041835Y011936D01*
X042034Y011737D01*
X042175Y011493D01*
X042248Y011221D01*
X042248Y010939D01*
X042175Y010667D01*
X042034Y010423D01*
X041835Y010224D01*
X041591Y010083D01*
X041319Y010010D01*
X040257Y010010D01*
X039985Y010083D01*
X039741Y010224D01*
X039725Y010240D01*
X037671Y010240D01*
X037362Y010368D01*
X037126Y010604D01*
X036026Y011704D01*
X035898Y012013D01*
X035898Y012141D01*
X035863Y012106D01*
X035631Y011972D01*
X035372Y011903D01*
X035104Y011903D01*
X034845Y011972D01*
X034613Y012106D01*
X034424Y012295D01*
X034290Y012527D01*
X034221Y012786D01*
X034221Y013054D01*
X034290Y013313D01*
X034424Y013545D01*
X034613Y013734D01*
X034845Y013868D01*
X035104Y013937D01*
X035372Y013937D01*
X035631Y013868D01*
X035863Y013734D01*
X035898Y013699D01*
X035898Y017180D01*
X009200Y017180D01*
X008918Y016898D01*
X008918Y016823D02*
X035898Y016823D01*
X035898Y016981D02*
X009001Y016981D01*
X009159Y017140D02*
X035898Y017140D01*
X035898Y016664D02*
X008918Y016664D01*
X008918Y016506D02*
X035898Y016506D01*
X035898Y016347D02*
X008918Y016347D01*
X008918Y016189D02*
X035898Y016189D01*
X035898Y016030D02*
X008918Y016030D01*
X008918Y015872D02*
X012471Y015872D01*
X012577Y015900D02*
X012267Y015817D01*
X011989Y015656D01*
X011762Y015429D01*
X011601Y015151D01*
X011518Y014841D01*
X011518Y014519D01*
X011601Y014209D01*
X011762Y013931D01*
X011989Y013704D01*
X012267Y013543D01*
X012577Y013460D01*
X012899Y013460D01*
X013209Y013543D01*
X013487Y013704D01*
X013714Y013931D01*
X013875Y014209D01*
X013958Y014519D01*
X013958Y014841D01*
X013875Y015151D01*
X013714Y015429D01*
X013487Y015656D01*
X013209Y015817D01*
X012899Y015900D01*
X012577Y015900D01*
X013005Y015872D02*
X035898Y015872D01*
X035898Y015713D02*
X013389Y015713D01*
X013589Y015555D02*
X035898Y015555D01*
X035898Y015396D02*
X013733Y015396D01*
X013825Y015238D02*
X035898Y015238D01*
X035898Y015079D02*
X013894Y015079D01*
X013937Y014921D02*
X035898Y014921D01*
X035898Y014762D02*
X013958Y014762D01*
X013958Y014604D02*
X035898Y014604D01*
X035898Y014445D02*
X013938Y014445D01*
X013896Y014287D02*
X035898Y014287D01*
X035898Y014128D02*
X025410Y014128D01*
X025333Y014160D02*
X025693Y014011D01*
X025969Y013735D01*
X026118Y013375D01*
X026118Y012985D01*
X025969Y012625D01*
X025693Y012349D01*
X025333Y012200D01*
X024343Y012200D01*
X023983Y012349D01*
X023707Y012625D01*
X023558Y012985D01*
X023558Y013375D01*
X023707Y013735D01*
X023983Y014011D01*
X024343Y014160D01*
X025333Y014160D01*
X025734Y013970D02*
X035898Y013970D01*
X035898Y013811D02*
X035730Y013811D01*
X034746Y013811D02*
X029730Y013811D01*
X029631Y013868D02*
X029372Y013937D01*
X029104Y013937D01*
X028845Y013868D01*
X028613Y013734D01*
X028424Y013545D01*
X028290Y013313D01*
X028221Y013054D01*
X028221Y012786D01*
X028290Y012527D01*
X028424Y012295D01*
X028613Y012106D01*
X028845Y011972D01*
X029104Y011903D01*
X029372Y011903D01*
X029631Y011972D01*
X029863Y012106D01*
X030052Y012295D01*
X030186Y012527D01*
X030256Y012786D01*
X030256Y013054D01*
X030186Y013313D01*
X030052Y013545D01*
X029863Y013734D01*
X029631Y013868D01*
X029944Y013653D02*
X034532Y013653D01*
X034395Y013494D02*
X030082Y013494D01*
X030173Y013336D02*
X034303Y013336D01*
X034254Y013177D02*
X030223Y013177D01*
X030256Y013019D02*
X034221Y013019D01*
X034221Y012860D02*
X030256Y012860D01*
X030233Y012702D02*
X034243Y012702D01*
X034286Y012543D02*
X030190Y012543D01*
X030104Y012385D02*
X034372Y012385D01*
X034493Y012226D02*
X029983Y012226D01*
X029796Y012068D02*
X034680Y012068D01*
X035080Y011909D02*
X029396Y011909D01*
X029080Y011909D02*
X013277Y011909D01*
X013281Y011906D02*
X013214Y011972D01*
X013139Y012030D01*
X013057Y012077D01*
X012970Y012113D01*
X012879Y012138D01*
X012818Y012146D01*
X012818Y011510D01*
X012658Y011510D01*
X012658Y011350D01*
X012022Y011350D01*
X012030Y011289D01*
X012055Y011198D01*
X012091Y011111D01*
X012138Y011029D01*
X012196Y010954D01*
X012262Y010888D01*
X012337Y010830D01*
X012419Y010783D01*
X012506Y010747D01*
X012597Y010722D01*
X012658Y010714D01*
X012658Y011350D01*
X012818Y011350D01*
X012818Y010714D01*
X012879Y010722D01*
X012970Y010747D01*
X013057Y010783D01*
X013139Y010830D01*
X013214Y010888D01*
X013281Y010954D01*
X013338Y011029D01*
X013385Y011111D01*
X013421Y011198D01*
X013446Y011289D01*
X013454Y011350D01*
X012818Y011350D01*
X012818Y011510D01*
X013454Y011510D01*
X013446Y011571D01*
X013421Y011662D01*
X013385Y011749D01*
X013338Y011831D01*
X013281Y011906D01*
X013384Y011751D02*
X036007Y011751D01*
X035941Y011909D02*
X035396Y011909D01*
X035796Y012068D02*
X035898Y012068D01*
X036138Y011592D02*
X029009Y011592D01*
X028943Y011630D02*
X029213Y011474D01*
X029432Y011255D01*
X029588Y010985D01*
X029668Y010685D01*
X029668Y010375D01*
X029588Y010075D01*
X029432Y009805D01*
X029213Y009586D01*
X029116Y009530D01*
X029213Y009474D01*
X029432Y009255D01*
X029588Y008985D01*
X029668Y008685D01*
X029668Y008375D01*
X029588Y008075D01*
X029432Y007805D01*
X029213Y007586D01*
X028943Y007430D01*
X028643Y007350D01*
X027333Y007350D01*
X027033Y007430D01*
X026763Y007586D01*
X026544Y007805D01*
X026388Y008075D01*
X026308Y008375D01*
X026308Y008685D01*
X026388Y008985D01*
X026544Y009255D01*
X026763Y009474D01*
X026860Y009530D01*
X026763Y009586D01*
X026544Y009805D01*
X026388Y010075D01*
X026308Y010375D01*
X026308Y010685D01*
X026388Y010985D01*
X026544Y011255D01*
X026763Y011474D01*
X027033Y011630D01*
X027333Y011710D01*
X028643Y011710D01*
X028943Y011630D01*
X029253Y011434D02*
X036297Y011434D01*
X036455Y011275D02*
X029412Y011275D01*
X029512Y011117D02*
X036614Y011117D01*
X036772Y010958D02*
X029595Y010958D01*
X029637Y010800D02*
X036931Y010800D01*
X037089Y010641D02*
X029668Y010641D01*
X029668Y010483D02*
X037248Y010483D01*
X037468Y010324D02*
X029654Y010324D01*
X029612Y010166D02*
X039842Y010166D01*
X041734Y010166D02*
X044642Y010166D01*
X044541Y010224D02*
X044785Y010083D01*
X045057Y010010D01*
X046119Y010010D01*
X046391Y010083D01*
X046635Y010224D01*
X046834Y010423D01*
X046975Y010667D01*
X047048Y010939D01*
X047048Y011221D01*
X046975Y011493D01*
X046834Y011737D01*
X046635Y011936D01*
X046391Y012077D01*
X046119Y012150D01*
X045057Y012150D01*
X044785Y012077D01*
X044541Y011936D01*
X044342Y011737D01*
X044201Y011493D01*
X044128Y011221D01*
X044128Y010939D01*
X044201Y010667D01*
X044342Y010423D01*
X044541Y010224D01*
X044441Y010324D02*
X041935Y010324D01*
X042069Y010483D02*
X044307Y010483D01*
X044216Y010641D02*
X042160Y010641D01*
X042211Y010800D02*
X044165Y010800D01*
X044128Y010958D02*
X042248Y010958D01*
X042248Y011117D02*
X044128Y011117D01*
X044143Y011275D02*
X042234Y011275D01*
X042191Y011434D02*
X044185Y011434D01*
X044258Y011592D02*
X042118Y011592D01*
X042021Y011751D02*
X044355Y011751D01*
X044514Y011909D02*
X041862Y011909D01*
X041608Y012068D02*
X044768Y012068D01*
X046408Y012068D02*
X051558Y012068D01*
X051558Y012226D02*
X037880Y012226D01*
X038038Y012068D02*
X039968Y012068D01*
X039457Y012360D02*
X040519Y012360D01*
X040791Y012433D01*
X041035Y012574D01*
X041234Y012773D01*
X041375Y013017D01*
X041448Y013289D01*
X041448Y013571D01*
X041375Y013843D01*
X041234Y014087D01*
X041035Y014286D01*
X040791Y014427D01*
X040519Y014500D01*
X039457Y014500D01*
X039185Y014427D01*
X038941Y014286D01*
X038742Y014087D01*
X038601Y013843D01*
X038528Y013571D01*
X038528Y013289D01*
X038601Y013017D01*
X038742Y012773D01*
X038941Y012574D01*
X039185Y012433D01*
X039457Y012360D01*
X039366Y012385D02*
X037721Y012385D01*
X037578Y012543D02*
X038994Y012543D01*
X038813Y012702D02*
X037578Y012702D01*
X037578Y012860D02*
X038692Y012860D01*
X038601Y013019D02*
X037578Y013019D01*
X037578Y013177D02*
X038558Y013177D01*
X038528Y013336D02*
X037578Y013336D01*
X037578Y013494D02*
X038528Y013494D01*
X038550Y013653D02*
X037578Y013653D01*
X037578Y013811D02*
X038592Y013811D01*
X038674Y013970D02*
X037578Y013970D01*
X037578Y014128D02*
X038783Y014128D01*
X038942Y014287D02*
X037578Y014287D01*
X037578Y014445D02*
X039252Y014445D01*
X039747Y014921D02*
X037578Y014921D01*
X037578Y015079D02*
X038151Y015079D01*
X037993Y015238D02*
X037578Y015238D01*
X037578Y015396D02*
X037834Y015396D01*
X037676Y015555D02*
X037578Y015555D01*
X037578Y014762D02*
X040063Y014762D01*
X040724Y014445D02*
X051558Y014445D01*
X051558Y014287D02*
X041034Y014287D01*
X041193Y014128D02*
X051558Y014128D01*
X051558Y013970D02*
X041302Y013970D01*
X041384Y013811D02*
X051558Y013811D01*
X051558Y013653D02*
X041426Y013653D01*
X041448Y013494D02*
X051558Y013494D01*
X051558Y013336D02*
X041448Y013336D01*
X041418Y013177D02*
X051558Y013177D01*
X051558Y013019D02*
X041376Y013019D01*
X041284Y012860D02*
X051558Y012860D01*
X051558Y012702D02*
X041163Y012702D01*
X040982Y012543D02*
X051558Y012543D01*
X051558Y012385D02*
X040610Y012385D01*
X041513Y014762D02*
X044863Y014762D01*
X044785Y014783D02*
X045057Y014710D01*
X046119Y014710D01*
X046391Y014783D01*
X046635Y014924D01*
X046834Y015123D01*
X046975Y015367D01*
X047048Y015639D01*
X047048Y015921D01*
X046975Y016193D01*
X046834Y016437D01*
X046635Y016636D01*
X046391Y016777D01*
X046119Y016850D01*
X045057Y016850D01*
X044785Y016777D01*
X044541Y016636D01*
X044342Y016437D01*
X044201Y016193D01*
X044128Y015921D01*
X044128Y015639D01*
X044201Y015367D01*
X044342Y015123D01*
X044541Y014924D01*
X044785Y014783D01*
X044547Y014921D02*
X041829Y014921D01*
X041990Y015079D02*
X044386Y015079D01*
X044276Y015238D02*
X042100Y015238D01*
X042183Y015396D02*
X044193Y015396D01*
X044151Y015555D02*
X042225Y015555D01*
X042248Y015713D02*
X044128Y015713D01*
X044128Y015872D02*
X042248Y015872D01*
X042219Y016030D02*
X044157Y016030D01*
X044200Y016189D02*
X042176Y016189D01*
X042086Y016347D02*
X044290Y016347D01*
X044410Y016506D02*
X041966Y016506D01*
X041787Y016664D02*
X044589Y016664D01*
X044955Y016823D02*
X041421Y016823D01*
X040155Y016823D02*
X038783Y016823D01*
X038625Y016981D02*
X051475Y016981D01*
X051558Y016823D02*
X046221Y016823D01*
X046587Y016664D02*
X051558Y016664D01*
X051558Y016506D02*
X046766Y016506D01*
X046886Y016347D02*
X051558Y016347D01*
X051558Y016189D02*
X046976Y016189D01*
X047019Y016030D02*
X051558Y016030D01*
X051558Y015872D02*
X047048Y015872D01*
X047048Y015713D02*
X051558Y015713D01*
X051558Y015555D02*
X047025Y015555D01*
X046983Y015396D02*
X051558Y015396D01*
X051558Y015238D02*
X046900Y015238D01*
X046790Y015079D02*
X051558Y015079D01*
X051558Y014921D02*
X046629Y014921D01*
X046313Y014762D02*
X051558Y014762D01*
X051558Y014604D02*
X037578Y014604D01*
X038942Y016664D02*
X039789Y016664D01*
X038578Y017140D02*
X051317Y017140D01*
X051008Y019180D02*
X048473Y019180D01*
X048473Y019277D01*
X048335Y019415D01*
X038141Y019415D01*
X038098Y019372D01*
X038098Y019531D01*
X038887Y020320D01*
X039593Y020320D01*
X039661Y020292D01*
X039815Y020292D01*
X039958Y020351D01*
X040067Y020460D01*
X040126Y020603D01*
X040126Y020757D01*
X040067Y020900D01*
X039958Y021009D01*
X039815Y021068D01*
X039661Y021068D01*
X039593Y021040D01*
X038666Y021040D01*
X038534Y020985D01*
X038433Y020884D01*
X037433Y019884D01*
X037378Y019752D01*
X037378Y019180D01*
X037098Y019180D01*
X037098Y020031D01*
X039887Y022820D01*
X045310Y022820D01*
X045442Y022875D01*
X045543Y022976D01*
X047043Y024476D01*
X047098Y024608D01*
X047098Y032252D01*
X047043Y032384D01*
X046942Y032485D01*
X045708Y033719D01*
X045575Y033774D01*
X044501Y033774D01*
X044501Y034718D01*
X044384Y034835D01*
X042092Y034835D01*
X041975Y034718D01*
X041975Y032111D01*
X042092Y031994D01*
X044384Y031994D01*
X044501Y032111D01*
X044501Y033054D01*
X045355Y033054D01*
X046378Y032031D01*
X046378Y024829D01*
X045089Y023540D01*
X039666Y023540D01*
X039534Y023485D01*
X037988Y021939D01*
X037988Y025576D01*
X041092Y028680D01*
X041408Y028680D01*
X041408Y028532D01*
X041525Y028415D01*
X042203Y028415D01*
X042238Y028450D01*
X042273Y028415D01*
X042951Y028415D01*
X043068Y028532D01*
X043068Y028680D01*
X043408Y028680D01*
X043408Y028532D01*
X043525Y028415D01*
X044203Y028415D01*
X044254Y028466D01*
X044287Y028447D01*
X044332Y028435D01*
X044564Y028435D01*
X044564Y028882D01*
X044660Y028882D01*
X044660Y028435D01*
X044892Y028435D01*
X044937Y028447D01*
X044978Y028471D01*
X045012Y028505D01*
X045036Y028546D01*
X045048Y028591D01*
X045048Y028882D01*
X044660Y028882D01*
X044660Y028978D01*
X044564Y028978D01*
X044564Y029425D01*
X044332Y029425D01*
X044287Y029413D01*
X044254Y029394D01*
X044203Y029445D01*
X043525Y029445D01*
X043408Y029328D01*
X043408Y029180D01*
X043068Y029180D01*
X043068Y029328D01*
X042951Y029445D01*
X042862Y029445D01*
X042862Y029606D01*
X042824Y029698D01*
X042754Y029768D01*
X042590Y029931D01*
X042590Y030025D01*
X042620Y030025D01*
X042737Y030142D01*
X042737Y030938D01*
X042620Y031055D01*
X042061Y031055D01*
X041944Y030938D01*
X041944Y030142D01*
X042061Y030025D01*
X042090Y030025D01*
X042090Y029778D01*
X042128Y029686D01*
X042362Y029452D01*
X042362Y029445D01*
X042273Y029445D01*
X042238Y029410D01*
X042203Y029445D01*
X041525Y029445D01*
X041408Y029328D01*
X041408Y029180D01*
X040938Y029180D01*
X040846Y029142D01*
X040776Y029072D01*
X037526Y025822D01*
X037488Y025730D01*
X037488Y022034D01*
X037238Y021784D01*
X037238Y029826D01*
X037920Y030508D01*
X037948Y030480D01*
X038528Y030480D01*
X038938Y030890D01*
X038938Y031470D01*
X038528Y031880D01*
X037948Y031880D01*
X037538Y031470D01*
X037538Y030890D01*
X037566Y030862D01*
X036776Y030072D01*
X036738Y029980D01*
X036738Y021784D01*
X036384Y021430D01*
X013092Y021430D01*
X012838Y021684D01*
X012838Y021876D01*
X012876Y021838D01*
X012946Y021768D01*
X012954Y021765D01*
X012954Y021602D01*
X013071Y021485D01*
X013827Y021485D01*
X013944Y021602D01*
X013944Y022358D01*
X013827Y022475D01*
X013188Y022475D01*
X013188Y022485D01*
X013827Y022485D01*
X013944Y022602D01*
X013944Y023358D01*
X013827Y023475D01*
X013638Y023475D01*
X013638Y023830D01*
X013600Y023922D01*
X013530Y023992D01*
X013530Y023992D01*
X013238Y024284D01*
X013238Y025438D01*
X013379Y025380D01*
X013597Y025380D01*
X013800Y025464D01*
X013954Y025618D01*
X013988Y025700D01*
X014022Y025618D01*
X014176Y025464D01*
X014379Y025380D01*
X014597Y025380D01*
X014800Y025464D01*
X014954Y025618D01*
X014988Y025700D01*
X015022Y025618D01*
X015176Y025464D01*
X015379Y025380D01*
X015597Y025380D01*
X015800Y025464D01*
X015954Y025618D01*
X015988Y025700D01*
X016022Y025618D01*
X016176Y025464D01*
X016379Y025380D01*
X016597Y025380D01*
X016800Y025464D01*
X016954Y025618D01*
X016988Y025700D01*
X017022Y025618D01*
X017176Y025464D01*
X017379Y025380D01*
X017597Y025380D01*
X017800Y025464D01*
X017954Y025618D01*
X017988Y025700D01*
X018022Y025618D01*
X018176Y025464D01*
X018379Y025380D01*
X018597Y025380D01*
X018800Y025464D01*
X018954Y025618D01*
X018988Y025700D01*
X019022Y025618D01*
X019176Y025464D01*
X019379Y025380D01*
X019597Y025380D01*
X019800Y025464D01*
X019954Y025618D01*
X019988Y025700D01*
X020022Y025618D01*
X020176Y025464D01*
X020379Y025380D01*
X020597Y025380D01*
X020800Y025464D01*
X020954Y025618D01*
X020988Y025700D01*
X021022Y025618D01*
X021176Y025464D01*
X021379Y025380D01*
X021597Y025380D01*
X021800Y025464D01*
X021954Y025618D01*
X021988Y025700D01*
X022022Y025618D01*
X022176Y025464D01*
X022379Y025380D01*
X022597Y025380D01*
X022800Y025464D01*
X022954Y025618D01*
X022998Y025724D01*
X023035Y025652D01*
X023084Y025585D01*
X023143Y025526D01*
X023210Y025477D01*
X023285Y025439D01*
X023364Y025413D01*
X023446Y025400D01*
X023488Y025400D01*
X023488Y025930D01*
X023488Y026460D01*
X023446Y026460D01*
X023364Y026447D01*
X023285Y026421D01*
X023210Y026383D01*
X023143Y026334D01*
X023084Y026275D01*
X023035Y026208D01*
X022998Y026136D01*
X022954Y026242D01*
X022800Y026396D01*
X022597Y026480D01*
X022379Y026480D01*
X022176Y026396D01*
X022022Y026242D01*
X021988Y026160D01*
X021954Y026242D01*
X021800Y026396D01*
X021597Y026480D01*
X021379Y026480D01*
X021176Y026396D01*
X021022Y026242D01*
X020988Y026160D01*
X020954Y026242D01*
X020800Y026396D01*
X020597Y026480D01*
X020379Y026480D01*
X020176Y026396D01*
X020022Y026242D01*
X019988Y026160D01*
X019954Y026242D01*
X019800Y026396D01*
X019597Y026480D01*
X019379Y026480D01*
X019176Y026396D01*
X019022Y026242D01*
X018988Y026160D01*
X018954Y026242D01*
X018800Y026396D01*
X018597Y026480D01*
X018379Y026480D01*
X018176Y026396D01*
X018022Y026242D01*
X017988Y026160D01*
X017954Y026242D01*
X017800Y026396D01*
X017597Y026480D01*
X017379Y026480D01*
X017176Y026396D01*
X017022Y026242D01*
X016988Y026160D01*
X016954Y026242D01*
X016800Y026396D01*
X016597Y026480D01*
X016379Y026480D01*
X016176Y026396D01*
X016022Y026242D01*
X015988Y026160D01*
X015954Y026242D01*
X015800Y026396D01*
X015597Y026480D01*
X015379Y026480D01*
X015176Y026396D01*
X015022Y026242D01*
X014988Y026160D01*
X014954Y026242D01*
X014800Y026396D01*
X014597Y026480D01*
X014379Y026480D01*
X014176Y026396D01*
X014022Y026242D01*
X013988Y026160D01*
X013954Y026242D01*
X013800Y026396D01*
X013597Y026480D01*
X013379Y026480D01*
X013238Y026422D01*
X013238Y030576D01*
X013700Y031038D01*
X013738Y031130D01*
X013776Y031038D01*
X013846Y030968D01*
X014346Y030468D01*
X014438Y030430D01*
X026384Y030430D01*
X026572Y030242D01*
X026473Y030143D01*
X026473Y029465D01*
X026508Y029430D01*
X026473Y029395D01*
X026473Y028717D01*
X026590Y028600D01*
X026638Y028600D01*
X026600Y028507D01*
X026600Y028353D01*
X026659Y028210D01*
X026768Y028101D01*
X026911Y028042D01*
X027065Y028042D01*
X027127Y028067D01*
X027829Y028067D01*
X027829Y028009D01*
X027947Y027891D01*
X028624Y027891D01*
X028741Y028009D01*
X028741Y028686D01*
X028624Y028803D01*
X027947Y028803D01*
X027829Y028686D01*
X027829Y028627D01*
X027413Y028627D01*
X027503Y028717D01*
X027503Y029395D01*
X027468Y029430D01*
X027503Y029465D01*
X027503Y030143D01*
X027386Y030260D01*
X027226Y030260D01*
X027200Y030322D01*
X026842Y030680D01*
X027288Y030680D01*
X027380Y030718D01*
X027450Y030788D01*
X028592Y031930D01*
X037038Y031930D01*
X037130Y031968D01*
X037200Y032038D01*
X038792Y033630D01*
X038837Y033630D01*
X039021Y033706D01*
X039162Y033847D01*
X039238Y034031D01*
X039238Y034829D01*
X039162Y035013D01*
X039021Y035154D01*
X038837Y035230D01*
X038639Y035230D01*
X038455Y035154D01*
X038314Y035013D01*
X038238Y034829D01*
X038162Y035013D01*
X038021Y035154D01*
X037837Y035230D01*
X037639Y035230D01*
X037455Y035154D01*
X037314Y035013D01*
X037238Y034829D01*
X037162Y035013D01*
X037021Y035154D01*
X036837Y035230D01*
X036639Y035230D01*
X036455Y035154D01*
X036314Y035013D01*
X036238Y034829D01*
X036162Y035013D01*
X036021Y035154D01*
X035837Y035230D01*
X035639Y035230D01*
X035455Y035154D01*
X035314Y035013D01*
X035238Y034829D01*
X035162Y035013D01*
X035021Y035154D01*
X034837Y035230D01*
X034639Y035230D01*
X034455Y035154D01*
X034314Y035013D01*
X034238Y034829D01*
X034162Y035013D01*
X034021Y035154D01*
X033837Y035230D01*
X033639Y035230D01*
X033455Y035154D01*
X033314Y035013D01*
X033238Y034829D01*
X033162Y035013D01*
X033021Y035154D01*
X032837Y035230D01*
X032639Y035230D01*
X032455Y035154D01*
X032314Y035013D01*
X032238Y034829D01*
X032238Y034031D01*
X032280Y033930D01*
X028983Y033930D01*
X029000Y033947D01*
X029024Y033988D01*
X029036Y034034D01*
X029036Y034408D01*
X028506Y034408D01*
X028506Y034448D01*
X028466Y034448D01*
X028466Y034978D01*
X028093Y034978D01*
X028047Y034965D01*
X028006Y034942D01*
X027972Y034908D01*
X027949Y034867D01*
X027936Y034821D01*
X027936Y034784D01*
X027809Y034911D01*
X027600Y034998D01*
X027373Y034998D01*
X027164Y034911D01*
X027003Y034751D01*
X026986Y034710D01*
X026970Y034751D01*
X026809Y034911D01*
X026600Y034998D01*
X026373Y034998D01*
X026164Y034911D01*
X026003Y034751D01*
X025986Y034710D01*
X025970Y034751D01*
X025809Y034911D01*
X025600Y034998D01*
X025373Y034998D01*
X025164Y034911D01*
X025003Y034751D01*
X024975Y034681D01*
X024957Y034716D01*
X024906Y034786D01*
X024845Y034847D01*
X024775Y034898D01*
X024698Y034937D01*
X024615Y034964D01*
X024530Y034978D01*
X024506Y034978D01*
X024506Y034448D01*
X024466Y034448D01*
X024466Y034978D01*
X024443Y034978D01*
X024358Y034964D01*
X024275Y034937D01*
X024198Y034898D01*
X024128Y034847D01*
X024067Y034786D01*
X024016Y034716D01*
X023998Y034681D01*
X023970Y034751D01*
X023809Y034911D01*
X023600Y034998D01*
X023373Y034998D01*
X023164Y034911D01*
X023003Y034751D01*
X022986Y034710D01*
X022970Y034751D01*
X022809Y034911D01*
X022600Y034998D01*
X022373Y034998D01*
X022164Y034911D01*
X022003Y034751D01*
X021986Y034710D01*
X021970Y034751D01*
X021809Y034911D01*
X021600Y034998D01*
X021373Y034998D01*
X021164Y034911D01*
X021003Y034751D01*
X020986Y034710D01*
X020970Y034751D01*
X020809Y034911D01*
X020600Y034998D01*
X020373Y034998D01*
X020164Y034911D01*
X020003Y034751D01*
X019986Y034710D01*
X019970Y034751D01*
X019809Y034911D01*
X019600Y034998D01*
X019373Y034998D01*
X019164Y034911D01*
X019003Y034751D01*
X018986Y034710D01*
X018970Y034751D01*
X018809Y034911D01*
X018600Y034998D01*
X018373Y034998D01*
X018164Y034911D01*
X018003Y034751D01*
X017986Y034710D01*
X017970Y034751D01*
X017809Y034911D01*
X017600Y034998D01*
X017373Y034998D01*
X017164Y034911D01*
X017003Y034751D01*
X016986Y034710D01*
X016970Y034751D01*
X016809Y034911D01*
X016600Y034998D01*
X016373Y034998D01*
X016164Y034911D01*
X016003Y034751D01*
X015986Y034710D01*
X015970Y034751D01*
X015809Y034911D01*
X015600Y034998D01*
X015373Y034998D01*
X015164Y034911D01*
X015003Y034751D01*
X014986Y034710D01*
X014970Y034751D01*
X014809Y034911D01*
X014600Y034998D01*
X014373Y034998D01*
X014164Y034911D01*
X014003Y034751D01*
X013975Y034681D01*
X013957Y034716D01*
X013906Y034786D01*
X013845Y034847D01*
X013775Y034898D01*
X013698Y034937D01*
X013615Y034964D01*
X013530Y034978D01*
X013506Y034978D01*
X013506Y034448D01*
X013466Y034448D01*
X013466Y034408D01*
X012936Y034408D01*
X012936Y034384D01*
X012950Y034299D01*
X012977Y034217D01*
X013016Y034139D01*
X013067Y034069D01*
X013128Y034008D01*
X013198Y033957D01*
X013275Y033918D01*
X013358Y033891D01*
X013443Y033878D01*
X013466Y033878D01*
X013466Y034408D01*
X013506Y034408D01*
X013506Y033878D01*
X013530Y033878D01*
X013615Y033891D01*
X013698Y033918D01*
X013775Y033957D01*
X013845Y034008D01*
X013906Y034069D01*
X013957Y034139D01*
X013975Y034174D01*
X014003Y034105D01*
X014156Y033952D01*
X013776Y033572D01*
X013738Y033480D01*
X013738Y032422D01*
X013597Y032480D01*
X013379Y032480D01*
X013176Y032396D01*
X013022Y032242D01*
X012988Y032160D01*
X012954Y032242D01*
X012800Y032396D01*
X012597Y032480D01*
X012379Y032480D01*
X012176Y032396D01*
X012022Y032242D01*
X011988Y032160D01*
X011954Y032242D01*
X011800Y032396D01*
X011597Y032480D01*
X011379Y032480D01*
X011176Y032396D01*
X011022Y032242D01*
X010988Y032160D01*
X010954Y032242D01*
X010800Y032396D01*
X010670Y032450D01*
X010986Y032543D01*
X011417Y032820D01*
X011752Y033207D01*
X011965Y033673D01*
X012038Y034180D01*
X011965Y034687D01*
X011752Y035153D01*
X011752Y035153D01*
X011417Y035540D01*
X011417Y035540D01*
X010986Y035817D01*
X010986Y035817D01*
X010534Y035950D01*
X049942Y035950D01*
X049490Y035817D01*
X049059Y035540D01*
X048724Y035153D01*
X048511Y034687D01*
X048438Y034180D01*
X048511Y033673D01*
X048511Y033673D01*
X048724Y033207D01*
X048724Y033207D01*
X049059Y032820D01*
X049059Y032820D01*
X049490Y032543D01*
X049490Y032543D01*
X049982Y032398D01*
X050494Y032398D01*
X050986Y032543D01*
X051417Y032820D01*
X051752Y033207D01*
X051965Y033673D01*
X052008Y033971D01*
X052008Y021389D01*
X051965Y021687D01*
X051752Y022153D01*
X051752Y022153D01*
X051417Y022540D01*
X051417Y022540D01*
X050986Y022817D01*
X050986Y022817D01*
X050494Y022962D01*
X049982Y022962D01*
X049490Y022817D01*
X049059Y022540D01*
X048724Y022153D01*
X048511Y021687D01*
X048438Y021180D01*
X048511Y020673D01*
X048511Y020673D01*
X048724Y020207D01*
X048724Y020207D01*
X049059Y019820D01*
X049059Y019820D01*
X049490Y019543D01*
X049490Y019543D01*
X049982Y019398D01*
X050494Y019398D01*
X050986Y019543D01*
X051417Y019820D01*
X051752Y020207D01*
X051965Y020673D01*
X052008Y020971D01*
X052008Y020275D01*
X051008Y019275D01*
X051008Y019180D01*
X051008Y019200D02*
X048473Y019200D01*
X048392Y019359D02*
X051091Y019359D01*
X050986Y019543D02*
X050986Y019543D01*
X050898Y019517D02*
X051250Y019517D01*
X051193Y019676D02*
X051408Y019676D01*
X051417Y019820D02*
X051417Y019820D01*
X051417Y019820D01*
X051429Y019834D02*
X051567Y019834D01*
X051567Y019993D02*
X051725Y019993D01*
X051704Y020151D02*
X051884Y020151D01*
X051752Y020207D02*
X051752Y020207D01*
X051799Y020310D02*
X052008Y020310D01*
X052008Y020468D02*
X051872Y020468D01*
X051944Y020627D02*
X052008Y020627D01*
X051965Y020673D02*
X051965Y020673D01*
X051981Y020785D02*
X052008Y020785D01*
X052004Y020944D02*
X052008Y020944D01*
X052004Y021419D02*
X052008Y021419D01*
X052008Y021578D02*
X051981Y021578D01*
X051965Y021687D02*
X051965Y021687D01*
X051943Y021736D02*
X052008Y021736D01*
X052008Y021895D02*
X051870Y021895D01*
X051798Y022053D02*
X052008Y022053D01*
X052008Y022212D02*
X051702Y022212D01*
X051564Y022370D02*
X052008Y022370D01*
X052008Y022529D02*
X051427Y022529D01*
X051189Y022687D02*
X052008Y022687D01*
X052008Y022846D02*
X050890Y022846D01*
X052008Y023004D02*
X045571Y023004D01*
X045730Y023163D02*
X052008Y023163D01*
X052008Y023321D02*
X045888Y023321D01*
X046047Y023480D02*
X052008Y023480D01*
X052008Y023638D02*
X046205Y023638D01*
X046364Y023797D02*
X052008Y023797D01*
X052008Y023955D02*
X046522Y023955D01*
X046681Y024114D02*
X052008Y024114D01*
X052008Y024272D02*
X046839Y024272D01*
X046998Y024431D02*
X052008Y024431D01*
X052008Y024589D02*
X047090Y024589D01*
X047098Y024748D02*
X052008Y024748D01*
X052008Y024906D02*
X047098Y024906D01*
X047098Y025065D02*
X052008Y025065D01*
X052008Y025223D02*
X047098Y025223D01*
X047098Y025382D02*
X052008Y025382D01*
X052008Y025540D02*
X047098Y025540D01*
X047098Y025699D02*
X052008Y025699D01*
X052008Y025857D02*
X047098Y025857D01*
X047098Y026016D02*
X052008Y026016D01*
X052008Y026174D02*
X047098Y026174D01*
X047098Y026333D02*
X052008Y026333D01*
X052008Y026491D02*
X047098Y026491D01*
X047098Y026650D02*
X052008Y026650D01*
X052008Y026808D02*
X047098Y026808D01*
X047098Y026967D02*
X052008Y026967D01*
X052008Y027125D02*
X047098Y027125D01*
X047098Y027284D02*
X052008Y027284D01*
X052008Y027442D02*
X047098Y027442D01*
X047098Y027601D02*
X052008Y027601D01*
X052008Y027759D02*
X047098Y027759D01*
X047098Y027918D02*
X052008Y027918D01*
X052008Y028076D02*
X047098Y028076D01*
X047098Y028235D02*
X052008Y028235D01*
X052008Y028393D02*
X047098Y028393D01*
X047098Y028552D02*
X052008Y028552D01*
X052008Y028710D02*
X047098Y028710D01*
X047098Y028869D02*
X052008Y028869D01*
X052008Y029027D02*
X047098Y029027D01*
X047098Y029186D02*
X052008Y029186D01*
X052008Y029344D02*
X047098Y029344D01*
X047098Y029503D02*
X052008Y029503D01*
X052008Y029661D02*
X047098Y029661D01*
X047098Y029820D02*
X052008Y029820D01*
X052008Y029978D02*
X047098Y029978D01*
X047098Y030137D02*
X052008Y030137D01*
X052008Y030295D02*
X047098Y030295D01*
X047098Y030454D02*
X052008Y030454D01*
X052008Y030612D02*
X047098Y030612D01*
X047098Y030771D02*
X052008Y030771D01*
X052008Y030929D02*
X047098Y030929D01*
X047098Y031088D02*
X052008Y031088D01*
X052008Y031246D02*
X047098Y031246D01*
X047098Y031405D02*
X052008Y031405D01*
X052008Y031563D02*
X047098Y031563D01*
X047098Y031722D02*
X052008Y031722D01*
X052008Y031880D02*
X047098Y031880D01*
X047098Y032039D02*
X052008Y032039D01*
X052008Y032197D02*
X047098Y032197D01*
X047055Y032356D02*
X052008Y032356D01*
X052008Y032514D02*
X050888Y032514D01*
X050986Y032543D02*
X050986Y032543D01*
X051188Y032673D02*
X052008Y032673D01*
X052008Y032831D02*
X051427Y032831D01*
X051417Y032820D02*
X051417Y032820D01*
X051417Y032820D01*
X051564Y032990D02*
X052008Y032990D01*
X052008Y033148D02*
X051701Y033148D01*
X051798Y033307D02*
X052008Y033307D01*
X052008Y033465D02*
X051870Y033465D01*
X051943Y033624D02*
X052008Y033624D01*
X052008Y033782D02*
X051981Y033782D01*
X052004Y033941D02*
X052008Y033941D01*
X049588Y032514D02*
X046913Y032514D01*
X046755Y032673D02*
X049288Y032673D01*
X049049Y032831D02*
X046596Y032831D01*
X046438Y032990D02*
X048912Y032990D01*
X048775Y033148D02*
X046279Y033148D01*
X046121Y033307D02*
X048678Y033307D01*
X048606Y033465D02*
X045962Y033465D01*
X045804Y033624D02*
X048533Y033624D01*
X048495Y033782D02*
X044501Y033782D01*
X044501Y033941D02*
X048472Y033941D01*
X048450Y034099D02*
X044501Y034099D01*
X044501Y034258D02*
X048449Y034258D01*
X048438Y034180D02*
X048438Y034180D01*
X048472Y034416D02*
X044501Y034416D01*
X044501Y034575D02*
X048495Y034575D01*
X048511Y034687D02*
X048511Y034687D01*
X048532Y034733D02*
X044486Y034733D01*
X044501Y032990D02*
X045419Y032990D01*
X045578Y032831D02*
X044501Y032831D01*
X044501Y032673D02*
X045736Y032673D01*
X045895Y032514D02*
X044501Y032514D01*
X044501Y032356D02*
X046053Y032356D01*
X046212Y032197D02*
X044501Y032197D01*
X044429Y032039D02*
X046370Y032039D01*
X046378Y031880D02*
X028542Y031880D01*
X028518Y031759D02*
X028409Y031650D01*
X028350Y031507D01*
X028350Y031353D01*
X028409Y031210D01*
X028458Y031161D01*
X028458Y030969D01*
X028261Y030969D01*
X028144Y030851D01*
X028144Y030174D01*
X028261Y030057D01*
X029215Y030057D01*
X029332Y030174D01*
X029332Y030851D01*
X029215Y030969D01*
X029018Y030969D01*
X029018Y031161D01*
X029067Y031210D01*
X029126Y031353D01*
X029126Y031507D01*
X029067Y031650D01*
X028958Y031759D01*
X028815Y031818D01*
X028661Y031818D01*
X028518Y031759D01*
X028481Y031722D02*
X028383Y031722D01*
X028373Y031563D02*
X028225Y031563D01*
X028350Y031405D02*
X028066Y031405D01*
X027908Y031246D02*
X028394Y031246D01*
X028458Y031088D02*
X027749Y031088D01*
X027591Y030929D02*
X028222Y030929D01*
X028144Y030771D02*
X027432Y030771D01*
X027068Y030454D02*
X028144Y030454D01*
X028144Y030612D02*
X026910Y030612D01*
X027211Y030295D02*
X028144Y030295D01*
X028182Y030137D02*
X027503Y030137D01*
X027503Y029978D02*
X031905Y029978D01*
X031904Y029981D02*
X031917Y029935D01*
X031940Y029894D01*
X031974Y029861D01*
X032015Y029837D01*
X032061Y029825D01*
X032355Y029825D01*
X032355Y030350D01*
X032515Y030350D01*
X032515Y030510D01*
X032965Y030510D01*
X032965Y030879D01*
X032953Y030925D01*
X032929Y030966D01*
X032896Y030999D01*
X032855Y031023D01*
X032809Y031035D01*
X032515Y031035D01*
X032515Y030510D01*
X032355Y030510D01*
X032355Y031035D01*
X032061Y031035D01*
X032015Y031023D01*
X031974Y030999D01*
X031940Y030966D01*
X031917Y030925D01*
X031904Y030879D01*
X031904Y030510D01*
X032355Y030510D01*
X032355Y030350D01*
X031904Y030350D01*
X031904Y029981D01*
X031904Y030137D02*
X029294Y030137D01*
X029332Y030295D02*
X031904Y030295D01*
X031904Y030612D02*
X029332Y030612D01*
X029332Y030454D02*
X032355Y030454D01*
X032435Y030430D02*
X032435Y031377D01*
X032738Y031680D01*
X037488Y031680D01*
X039488Y033680D01*
X041238Y031930D01*
X041238Y031430D01*
X043738Y031430D01*
X044136Y031032D01*
X044136Y030540D01*
X044154Y030522D02*
X044154Y030045D01*
X044356Y030045D01*
X044402Y030058D01*
X044443Y030081D01*
X044477Y030115D01*
X044500Y030156D01*
X044513Y030202D01*
X044513Y030522D01*
X044154Y030522D01*
X044154Y030559D01*
X044117Y030559D01*
X044117Y031035D01*
X043915Y031035D01*
X043869Y031023D01*
X043828Y030999D01*
X043795Y030966D01*
X043771Y030925D01*
X043759Y030879D01*
X043759Y030559D01*
X044117Y030559D01*
X044117Y030522D01*
X043759Y030522D01*
X043759Y030202D01*
X043771Y030156D01*
X043795Y030115D01*
X043828Y030081D01*
X043869Y030058D01*
X043915Y030045D01*
X044117Y030045D01*
X044117Y030522D01*
X044154Y030522D01*
X044154Y030559D02*
X044513Y030559D01*
X044513Y030879D01*
X044500Y030925D01*
X044477Y030966D01*
X044443Y030999D01*
X044402Y031023D01*
X044356Y031035D01*
X044154Y031035D01*
X044154Y030559D01*
X044154Y030612D02*
X044117Y030612D01*
X044117Y030454D02*
X044154Y030454D01*
X044154Y030295D02*
X044117Y030295D01*
X044117Y030137D02*
X044154Y030137D01*
X044489Y030137D02*
X046378Y030137D01*
X046378Y030295D02*
X044513Y030295D01*
X044513Y030454D02*
X046378Y030454D01*
X046378Y030612D02*
X044513Y030612D01*
X044513Y030771D02*
X046378Y030771D01*
X046378Y030929D02*
X044498Y030929D01*
X044154Y030929D02*
X044117Y030929D01*
X044117Y030771D02*
X044154Y030771D01*
X043759Y030771D02*
X042737Y030771D01*
X042737Y030929D02*
X043774Y030929D01*
X043759Y030612D02*
X042737Y030612D01*
X042737Y030454D02*
X043759Y030454D01*
X043759Y030295D02*
X042737Y030295D01*
X042731Y030137D02*
X043782Y030137D01*
X043424Y029344D02*
X043052Y029344D01*
X043068Y029186D02*
X043408Y029186D01*
X042862Y029503D02*
X046378Y029503D01*
X046378Y029661D02*
X042839Y029661D01*
X042702Y029820D02*
X046378Y029820D01*
X046378Y029978D02*
X042590Y029978D01*
X042090Y029978D02*
X037390Y029978D01*
X037238Y029820D02*
X042090Y029820D01*
X042153Y029661D02*
X037238Y029661D01*
X037238Y029503D02*
X042312Y029503D01*
X041424Y029344D02*
X037238Y029344D01*
X037238Y029186D02*
X041408Y029186D01*
X040732Y029027D02*
X037238Y029027D01*
X037238Y028869D02*
X040573Y028869D01*
X040415Y028710D02*
X038670Y028710D01*
X038520Y028860D02*
X038258Y028860D01*
X038258Y028200D01*
X038218Y028200D01*
X038218Y028160D01*
X037558Y028160D01*
X037558Y027898D01*
X037956Y027500D01*
X038218Y027500D01*
X038218Y028160D01*
X038258Y028160D01*
X038258Y027500D01*
X038520Y027500D01*
X038918Y027898D01*
X038918Y028160D01*
X038258Y028160D01*
X038258Y028200D01*
X038918Y028200D01*
X038918Y028462D01*
X038520Y028860D01*
X038258Y028710D02*
X038218Y028710D01*
X038218Y028860D02*
X037956Y028860D01*
X037558Y028462D01*
X037558Y028200D01*
X038218Y028200D01*
X038218Y028860D01*
X038218Y028552D02*
X038258Y028552D01*
X038238Y028430D02*
X041238Y031430D01*
X041944Y030929D02*
X038938Y030929D01*
X038938Y031088D02*
X046378Y031088D01*
X046378Y031246D02*
X038938Y031246D01*
X038938Y031405D02*
X046378Y031405D01*
X046378Y031563D02*
X038845Y031563D01*
X038686Y031722D02*
X046378Y031722D01*
X046378Y029344D02*
X045019Y029344D01*
X045012Y029355D02*
X044978Y029389D01*
X044937Y029413D01*
X044892Y029425D01*
X044660Y029425D01*
X044660Y028978D01*
X045048Y028978D01*
X045048Y029269D01*
X045036Y029314D01*
X045012Y029355D01*
X045048Y029186D02*
X046378Y029186D01*
X046378Y029027D02*
X045048Y029027D01*
X045048Y028869D02*
X046378Y028869D01*
X046378Y028710D02*
X045048Y028710D01*
X045037Y028552D02*
X046378Y028552D01*
X046378Y028393D02*
X040805Y028393D01*
X040963Y028552D02*
X041408Y028552D01*
X040646Y028235D02*
X046378Y028235D01*
X046378Y028076D02*
X040488Y028076D01*
X040329Y027918D02*
X046378Y027918D01*
X046378Y027759D02*
X040171Y027759D01*
X040012Y027601D02*
X046378Y027601D01*
X046378Y027442D02*
X039854Y027442D01*
X039695Y027284D02*
X046378Y027284D01*
X046378Y027125D02*
X039537Y027125D01*
X039378Y026967D02*
X046378Y026967D01*
X046378Y026808D02*
X039220Y026808D01*
X039061Y026650D02*
X046378Y026650D01*
X046378Y026491D02*
X038903Y026491D01*
X038744Y026333D02*
X046378Y026333D01*
X046378Y026174D02*
X038586Y026174D01*
X038427Y026016D02*
X046378Y026016D01*
X046378Y025857D02*
X038269Y025857D01*
X038110Y025699D02*
X046378Y025699D01*
X046378Y025540D02*
X037988Y025540D01*
X037988Y025382D02*
X046378Y025382D01*
X046378Y025223D02*
X037988Y025223D01*
X037988Y025065D02*
X046378Y025065D01*
X046378Y024906D02*
X037988Y024906D01*
X037988Y024748D02*
X046296Y024748D01*
X046138Y024589D02*
X037988Y024589D01*
X037988Y024431D02*
X045979Y024431D01*
X045821Y024272D02*
X037988Y024272D01*
X037988Y024114D02*
X045662Y024114D01*
X045504Y023955D02*
X037988Y023955D01*
X037988Y023797D02*
X045345Y023797D01*
X045187Y023638D02*
X037988Y023638D01*
X037988Y023480D02*
X039528Y023480D01*
X039370Y023321D02*
X037988Y023321D01*
X037988Y023163D02*
X039211Y023163D01*
X039053Y023004D02*
X037988Y023004D01*
X037988Y022846D02*
X038894Y022846D01*
X038736Y022687D02*
X037988Y022687D01*
X037988Y022529D02*
X038577Y022529D01*
X038419Y022370D02*
X037988Y022370D01*
X037988Y022212D02*
X038260Y022212D01*
X038102Y022053D02*
X037988Y022053D01*
X037488Y022053D02*
X037238Y022053D01*
X037238Y021895D02*
X037349Y021895D01*
X037238Y022212D02*
X037488Y022212D01*
X037488Y022370D02*
X037238Y022370D01*
X037238Y022529D02*
X037488Y022529D01*
X037488Y022687D02*
X037238Y022687D01*
X037238Y022846D02*
X037488Y022846D01*
X037488Y023004D02*
X037238Y023004D01*
X037238Y023163D02*
X037488Y023163D01*
X037488Y023321D02*
X037238Y023321D01*
X037238Y023480D02*
X037488Y023480D01*
X037488Y023638D02*
X037238Y023638D01*
X037238Y023797D02*
X037488Y023797D01*
X037488Y023955D02*
X037238Y023955D01*
X037238Y024114D02*
X037488Y024114D01*
X037488Y024272D02*
X037238Y024272D01*
X037238Y024431D02*
X037488Y024431D01*
X037488Y024589D02*
X037238Y024589D01*
X037238Y024748D02*
X037488Y024748D01*
X037488Y024906D02*
X037238Y024906D01*
X037238Y025065D02*
X037488Y025065D01*
X037488Y025223D02*
X037238Y025223D01*
X037238Y025382D02*
X037488Y025382D01*
X037488Y025540D02*
X037238Y025540D01*
X037238Y025699D02*
X037488Y025699D01*
X037562Y025857D02*
X037238Y025857D01*
X037238Y026016D02*
X037720Y026016D01*
X037879Y026174D02*
X037238Y026174D01*
X037238Y026333D02*
X038037Y026333D01*
X038196Y026491D02*
X037238Y026491D01*
X037238Y026650D02*
X038354Y026650D01*
X038513Y026808D02*
X037238Y026808D01*
X037238Y026967D02*
X038671Y026967D01*
X038830Y027125D02*
X037238Y027125D01*
X037238Y027284D02*
X038988Y027284D01*
X039147Y027442D02*
X037238Y027442D01*
X037238Y027601D02*
X037856Y027601D01*
X037697Y027759D02*
X037238Y027759D01*
X037238Y027918D02*
X037558Y027918D01*
X037558Y028076D02*
X037238Y028076D01*
X037238Y028235D02*
X037558Y028235D01*
X037558Y028393D02*
X037238Y028393D01*
X037238Y028552D02*
X037648Y028552D01*
X037806Y028710D02*
X037238Y028710D01*
X036738Y028710D02*
X034317Y028710D01*
X034317Y028552D02*
X036738Y028552D01*
X036738Y028393D02*
X034317Y028393D01*
X034317Y028235D02*
X036738Y028235D01*
X036738Y028076D02*
X034277Y028076D01*
X034275Y028071D02*
X034317Y028174D01*
X034317Y029805D01*
X034470Y029805D01*
X034588Y029922D01*
X034588Y030938D01*
X034470Y031055D01*
X033604Y031055D01*
X033487Y030938D01*
X033487Y029922D01*
X033604Y029805D01*
X033757Y029805D01*
X033757Y028345D01*
X032642Y027230D01*
X032639Y027230D01*
X032455Y027154D01*
X032314Y027013D01*
X032238Y026829D01*
X032238Y026031D01*
X032314Y025847D01*
X032455Y025706D01*
X032639Y025630D01*
X032837Y025630D01*
X033021Y025706D01*
X033162Y025847D01*
X033238Y026031D01*
X033238Y026829D01*
X033178Y026974D01*
X034275Y028071D01*
X034122Y027918D02*
X036738Y027918D01*
X036738Y027759D02*
X033963Y027759D01*
X033805Y027601D02*
X036738Y027601D01*
X036738Y027442D02*
X033646Y027442D01*
X033488Y027284D02*
X036738Y027284D01*
X036738Y027125D02*
X035050Y027125D01*
X035021Y027154D02*
X034837Y027230D01*
X034639Y027230D01*
X034455Y027154D01*
X034314Y027013D01*
X034238Y026829D01*
X034238Y026031D01*
X034314Y025847D01*
X034455Y025706D01*
X034639Y025630D01*
X034837Y025630D01*
X035021Y025706D01*
X035162Y025847D01*
X035238Y026031D01*
X035238Y026829D01*
X035162Y027013D01*
X035021Y027154D01*
X035181Y026967D02*
X036738Y026967D01*
X036738Y026808D02*
X035238Y026808D01*
X035238Y026650D02*
X036738Y026650D01*
X036738Y026491D02*
X035238Y026491D01*
X035238Y026333D02*
X036738Y026333D01*
X036738Y026174D02*
X035238Y026174D01*
X035232Y026016D02*
X036738Y026016D01*
X036738Y025857D02*
X035166Y025857D01*
X035003Y025699D02*
X036738Y025699D01*
X036738Y025540D02*
X025918Y025540D01*
X025980Y025601D02*
X026068Y025815D01*
X026068Y026045D01*
X025980Y026259D01*
X025817Y026422D01*
X025603Y026510D01*
X025373Y026510D01*
X025159Y026422D01*
X024996Y026259D01*
X024972Y026199D01*
X024954Y026242D01*
X024800Y026396D01*
X024597Y026480D01*
X024379Y026480D01*
X024176Y026396D01*
X024022Y026242D01*
X023978Y026136D01*
X023941Y026208D01*
X023892Y026275D01*
X023833Y026334D01*
X023766Y026383D01*
X023691Y026421D01*
X023612Y026447D01*
X023530Y026460D01*
X023488Y026460D01*
X023488Y025930D01*
X023488Y025930D01*
X023488Y025930D01*
X023488Y024180D01*
X026488Y024180D01*
X026988Y023680D01*
X026988Y022525D01*
X026943Y022480D01*
X026895Y022528D02*
X026895Y022432D01*
X026054Y022432D01*
X026054Y022200D01*
X026067Y022155D01*
X026090Y022114D01*
X026124Y022080D01*
X026165Y022056D01*
X026211Y022044D01*
X026895Y022044D01*
X026895Y022432D01*
X026991Y022432D01*
X026991Y022044D01*
X027676Y022044D01*
X027721Y022056D01*
X027762Y022080D01*
X027796Y022114D01*
X027820Y022155D01*
X027832Y022200D01*
X027832Y022432D01*
X026991Y022432D01*
X026991Y022528D01*
X026895Y022528D01*
X026054Y022528D01*
X026054Y022760D01*
X026067Y022805D01*
X026090Y022846D01*
X024725Y022846D01*
X024751Y022819D02*
X024634Y022936D01*
X023051Y022936D01*
X022955Y022840D01*
X022331Y022840D01*
X022235Y022936D01*
X020652Y022936D01*
X020534Y022819D01*
X020534Y022141D01*
X020652Y022024D01*
X022235Y022024D01*
X022331Y022120D01*
X022955Y022120D01*
X023051Y022024D01*
X024634Y022024D01*
X024751Y022141D01*
X024751Y022819D01*
X024751Y022687D02*
X026054Y022687D01*
X026054Y022529D02*
X024751Y022529D01*
X024751Y022370D02*
X026054Y022370D01*
X026054Y022212D02*
X024751Y022212D01*
X024663Y022053D02*
X026177Y022053D01*
X026895Y022053D02*
X026991Y022053D01*
X026991Y022212D02*
X026895Y022212D01*
X026895Y022370D02*
X026991Y022370D01*
X026991Y022528D02*
X027832Y022528D01*
X027832Y022760D01*
X027820Y022805D01*
X027796Y022846D01*
X027762Y022880D01*
X027721Y022904D01*
X027676Y022916D01*
X026991Y022916D01*
X026991Y022528D01*
X026991Y022529D02*
X026895Y022529D01*
X026895Y022528D02*
X026895Y022916D01*
X026211Y022916D01*
X026165Y022904D01*
X026124Y022880D01*
X026090Y022846D01*
X026895Y022846D02*
X026991Y022846D01*
X026991Y022687D02*
X026895Y022687D01*
X027709Y022053D02*
X036738Y022053D01*
X036738Y021895D02*
X017448Y021895D01*
X017448Y021932D02*
X017060Y021932D01*
X017060Y021485D01*
X017292Y021485D01*
X017337Y021497D01*
X017378Y021521D01*
X017412Y021555D01*
X017436Y021596D01*
X017448Y021641D01*
X017448Y021932D01*
X017448Y022028D02*
X017448Y022127D01*
X017551Y022024D01*
X019134Y022024D01*
X019251Y022141D01*
X019251Y022819D01*
X019134Y022936D01*
X018703Y022936D01*
X018703Y023036D01*
X019040Y023373D01*
X019108Y023401D01*
X019217Y023510D01*
X019276Y023653D01*
X019276Y023807D01*
X019217Y023950D01*
X019108Y024059D01*
X018965Y024118D01*
X018811Y024118D01*
X018668Y024059D01*
X018559Y023950D01*
X018531Y023882D01*
X018038Y023389D01*
X017983Y023256D01*
X017983Y022936D01*
X017551Y022936D01*
X017448Y022833D01*
X017448Y022932D01*
X017060Y022932D01*
X017060Y022485D01*
X017292Y022485D01*
X017337Y022497D01*
X017378Y022521D01*
X017412Y022555D01*
X017434Y022593D01*
X017434Y022367D01*
X017412Y022405D01*
X017378Y022439D01*
X017337Y022463D01*
X017292Y022475D01*
X017060Y022475D01*
X017060Y022028D01*
X016964Y022028D01*
X016964Y022475D01*
X016732Y022475D01*
X016687Y022463D01*
X016654Y022444D01*
X016618Y022480D01*
X016654Y022516D01*
X016687Y022497D01*
X016732Y022485D01*
X016964Y022485D01*
X016964Y022932D01*
X017060Y022932D01*
X017060Y023028D01*
X016964Y023028D01*
X016964Y023475D01*
X016732Y023475D01*
X016687Y023463D01*
X016654Y023444D01*
X016603Y023495D01*
X015925Y023495D01*
X015808Y023378D01*
X015808Y023230D01*
X015322Y023230D01*
X015322Y023358D01*
X015205Y023475D01*
X014449Y023475D01*
X014332Y023358D01*
X014332Y022602D01*
X014449Y022485D01*
X015205Y022485D01*
X015322Y022602D01*
X015322Y022730D01*
X015808Y022730D01*
X015808Y022582D01*
X015910Y022480D01*
X015808Y022378D01*
X015808Y022230D01*
X015322Y022230D01*
X015322Y022358D01*
X015205Y022475D01*
X014449Y022475D01*
X014332Y022358D01*
X014332Y021602D01*
X014449Y021485D01*
X015205Y021485D01*
X015322Y021602D01*
X015322Y021730D01*
X015808Y021730D01*
X015808Y021582D01*
X015925Y021465D01*
X016603Y021465D01*
X016654Y021516D01*
X016687Y021497D01*
X016732Y021485D01*
X016964Y021485D01*
X016964Y021932D01*
X017060Y021932D01*
X017060Y022028D01*
X017448Y022028D01*
X017448Y022053D02*
X017522Y022053D01*
X017638Y021980D02*
X017012Y021980D01*
X017012Y022980D01*
X017060Y023004D02*
X017983Y023004D01*
X017983Y023163D02*
X017448Y023163D01*
X017448Y023028D02*
X017448Y023319D01*
X017436Y023364D01*
X017412Y023405D01*
X017378Y023439D01*
X017337Y023463D01*
X017292Y023475D01*
X017060Y023475D01*
X017060Y023028D01*
X017448Y023028D01*
X017448Y022846D02*
X017461Y022846D01*
X017434Y022529D02*
X017386Y022529D01*
X017432Y022370D02*
X017434Y022370D01*
X017060Y022370D02*
X016964Y022370D01*
X016964Y022212D02*
X017060Y022212D01*
X017060Y022053D02*
X016964Y022053D01*
X016964Y021895D02*
X017060Y021895D01*
X017060Y021736D02*
X016964Y021736D01*
X016964Y021578D02*
X017060Y021578D01*
X017425Y021578D02*
X036532Y021578D01*
X036691Y021736D02*
X017448Y021736D01*
X017638Y021980D02*
X017888Y021730D01*
X019638Y021730D01*
X019888Y021980D01*
X019888Y023030D01*
X020538Y023680D01*
X022988Y023680D01*
X023488Y024180D01*
X022961Y022846D02*
X022325Y022846D01*
X022264Y022053D02*
X023022Y022053D01*
X020623Y022053D02*
X019163Y022053D01*
X019251Y022212D02*
X020534Y022212D01*
X020534Y022370D02*
X019251Y022370D01*
X019251Y022529D02*
X020534Y022529D01*
X020534Y022687D02*
X019251Y022687D01*
X019225Y022846D02*
X020561Y022846D01*
X019186Y023480D02*
X029002Y023480D01*
X028967Y023497D02*
X029039Y023460D01*
X029117Y023435D01*
X029197Y023423D01*
X029206Y023423D01*
X029206Y023907D01*
X029271Y023907D01*
X029271Y023973D01*
X029206Y023973D01*
X029206Y024457D01*
X029197Y024457D01*
X029117Y024445D01*
X029039Y024420D01*
X028967Y024383D01*
X028901Y024335D01*
X028843Y024277D01*
X028795Y024211D01*
X028758Y024139D01*
X028733Y024061D01*
X028721Y023981D01*
X028721Y023973D01*
X029206Y023973D01*
X029206Y023907D01*
X028721Y023907D01*
X028721Y023899D01*
X028733Y023819D01*
X028758Y023741D01*
X028795Y023669D01*
X028843Y023603D01*
X028901Y023545D01*
X028967Y023497D01*
X028818Y023638D02*
X019270Y023638D01*
X019276Y023797D02*
X028741Y023797D01*
X028750Y024114D02*
X018976Y024114D01*
X018800Y024114D02*
X013408Y024114D01*
X013250Y024272D02*
X028840Y024272D01*
X029073Y024431D02*
X013238Y024431D01*
X013238Y024589D02*
X036738Y024589D01*
X036738Y024431D02*
X032458Y024431D01*
X032543Y024396D02*
X032345Y024477D01*
X032131Y024477D01*
X031934Y024396D01*
X031782Y024244D01*
X031701Y024047D01*
X031701Y023833D01*
X031782Y023636D01*
X031934Y023484D01*
X032131Y023403D01*
X032345Y023403D01*
X032543Y023484D01*
X032694Y023636D01*
X032776Y023833D01*
X032776Y024047D01*
X032694Y024244D01*
X032543Y024396D01*
X032666Y024272D02*
X036738Y024272D01*
X036738Y024114D02*
X032748Y024114D01*
X032776Y023955D02*
X036738Y023955D01*
X036738Y023797D02*
X032760Y023797D01*
X032695Y023638D02*
X036738Y023638D01*
X036738Y023480D02*
X032531Y023480D01*
X031945Y023480D02*
X029474Y023480D01*
X029509Y023497D02*
X029575Y023545D01*
X029633Y023603D01*
X029681Y023669D01*
X029718Y023741D01*
X029743Y023819D01*
X029756Y023899D01*
X029756Y023907D01*
X029271Y023907D01*
X029271Y023423D01*
X029279Y023423D01*
X029359Y023435D01*
X029437Y023460D01*
X029509Y023497D01*
X029658Y023638D02*
X031781Y023638D01*
X031716Y023797D02*
X029736Y023797D01*
X029756Y023973D02*
X029756Y023981D01*
X029743Y024061D01*
X029718Y024139D01*
X029681Y024211D01*
X029633Y024277D01*
X029575Y024335D01*
X029509Y024383D01*
X029437Y024420D01*
X029359Y024445D01*
X029279Y024457D01*
X029271Y024457D01*
X029271Y023973D01*
X029756Y023973D01*
X029726Y024114D02*
X031728Y024114D01*
X031701Y023955D02*
X029271Y023955D01*
X029238Y023940D02*
X029238Y025836D01*
X028894Y026180D01*
X029191Y026477D01*
X029191Y028347D01*
X031405Y028347D01*
X032435Y029377D01*
X032435Y030430D01*
X032515Y030454D02*
X033487Y030454D01*
X033487Y030612D02*
X032965Y030612D01*
X032965Y030771D02*
X033487Y030771D01*
X033487Y030929D02*
X032950Y030929D01*
X032515Y030929D02*
X032355Y030929D01*
X032355Y030771D02*
X032515Y030771D01*
X032515Y030612D02*
X032355Y030612D01*
X032515Y030350D02*
X032965Y030350D01*
X032965Y029981D01*
X032953Y029935D01*
X032929Y029894D01*
X032896Y029861D01*
X032855Y029837D01*
X032809Y029825D01*
X032515Y029825D01*
X032515Y030350D01*
X032515Y030295D02*
X032355Y030295D01*
X032355Y030137D02*
X032515Y030137D01*
X032515Y029978D02*
X032355Y029978D01*
X032964Y029978D02*
X033487Y029978D01*
X033487Y030137D02*
X032965Y030137D01*
X032965Y030295D02*
X033487Y030295D01*
X033589Y029820D02*
X027503Y029820D01*
X027503Y029661D02*
X033757Y029661D01*
X033757Y029503D02*
X027503Y029503D01*
X027503Y029344D02*
X033757Y029344D01*
X033757Y029186D02*
X027503Y029186D01*
X027503Y029027D02*
X033757Y029027D01*
X033757Y028869D02*
X027503Y028869D01*
X027496Y028710D02*
X027853Y028710D01*
X028285Y028347D02*
X027071Y028347D01*
X026988Y028430D01*
X026988Y029056D01*
X026473Y029027D02*
X013238Y029027D01*
X013238Y028869D02*
X026473Y028869D01*
X026480Y028710D02*
X013238Y028710D01*
X013238Y028552D02*
X026618Y028552D01*
X026600Y028393D02*
X013238Y028393D01*
X013238Y028235D02*
X026649Y028235D01*
X026828Y028076D02*
X013238Y028076D01*
X013238Y027918D02*
X027920Y027918D01*
X028650Y027918D02*
X028888Y027918D01*
X028865Y027924D02*
X028911Y027911D01*
X029143Y027911D01*
X029143Y028299D01*
X029239Y028299D01*
X029239Y027911D01*
X029470Y027911D01*
X029516Y027924D01*
X029557Y027947D01*
X029591Y027981D01*
X029614Y028022D01*
X029627Y028068D01*
X029627Y028299D01*
X029239Y028299D01*
X029239Y028395D01*
X029627Y028395D01*
X029627Y028627D01*
X029614Y028673D01*
X029591Y028714D01*
X029557Y028747D01*
X029516Y028771D01*
X029470Y028783D01*
X029239Y028783D01*
X029239Y028395D01*
X029143Y028395D01*
X029143Y028299D01*
X028755Y028299D01*
X028755Y028068D01*
X028767Y028022D01*
X028791Y027981D01*
X028824Y027947D01*
X028865Y027924D01*
X028755Y028076D02*
X028741Y028076D01*
X028741Y028235D02*
X028755Y028235D01*
X028741Y028393D02*
X029143Y028393D01*
X029143Y028395D02*
X028755Y028395D01*
X028755Y028627D01*
X028767Y028673D01*
X028791Y028714D01*
X028824Y028747D01*
X028865Y028771D01*
X028911Y028783D01*
X029143Y028783D01*
X029143Y028395D01*
X029239Y028393D02*
X033757Y028393D01*
X033757Y028552D02*
X029627Y028552D01*
X029593Y028710D02*
X033757Y028710D01*
X033647Y028235D02*
X029627Y028235D01*
X029627Y028076D02*
X033488Y028076D01*
X033330Y027918D02*
X029493Y027918D01*
X029239Y027918D02*
X029143Y027918D01*
X029143Y028076D02*
X029239Y028076D01*
X029239Y028235D02*
X029143Y028235D01*
X029143Y028552D02*
X029239Y028552D01*
X029239Y028710D02*
X029143Y028710D01*
X028789Y028710D02*
X028717Y028710D01*
X028741Y028552D02*
X028755Y028552D01*
X028174Y026702D02*
X028128Y026714D01*
X027867Y026714D01*
X027867Y026257D01*
X028284Y026257D01*
X028284Y026558D01*
X028272Y026604D01*
X028248Y026645D01*
X028215Y026678D01*
X028174Y026702D01*
X028244Y026650D02*
X032238Y026650D01*
X032238Y026808D02*
X027058Y026808D01*
X027076Y026853D02*
X027076Y027007D01*
X027017Y027150D01*
X026908Y027259D01*
X026765Y027318D01*
X026611Y027318D01*
X026468Y027259D01*
X026359Y027150D01*
X026300Y027007D01*
X026300Y026853D01*
X026349Y026734D01*
X026289Y026734D01*
X026172Y026617D01*
X026172Y025743D01*
X026289Y025626D01*
X027085Y025626D01*
X027202Y025743D01*
X027202Y026617D01*
X027085Y026734D01*
X027027Y026734D01*
X027076Y026853D01*
X027076Y026967D02*
X032295Y026967D01*
X032426Y027125D02*
X027027Y027125D01*
X026849Y027284D02*
X032696Y027284D01*
X032854Y027442D02*
X013238Y027442D01*
X013238Y027284D02*
X026527Y027284D01*
X026349Y027125D02*
X013238Y027125D01*
X013238Y026967D02*
X026300Y026967D01*
X026318Y026808D02*
X013238Y026808D01*
X013238Y026650D02*
X026204Y026650D01*
X026172Y026491D02*
X025649Y026491D01*
X025906Y026333D02*
X026172Y026333D01*
X026172Y026174D02*
X026015Y026174D01*
X026068Y026016D02*
X026172Y026016D01*
X026172Y025857D02*
X026068Y025857D01*
X026020Y025699D02*
X026216Y025699D01*
X025980Y025601D02*
X025817Y025438D01*
X025603Y025350D01*
X025373Y025350D01*
X025159Y025438D01*
X024996Y025601D01*
X024972Y025661D01*
X024954Y025618D01*
X024800Y025464D01*
X024597Y025380D01*
X024379Y025380D01*
X024176Y025464D01*
X024022Y025618D01*
X023978Y025724D01*
X023941Y025652D01*
X023892Y025585D01*
X023833Y025526D01*
X023766Y025477D01*
X023691Y025439D01*
X023612Y025413D01*
X023530Y025400D01*
X023488Y025400D01*
X023488Y025930D01*
X023488Y025857D02*
X023488Y025857D01*
X023488Y025699D02*
X023488Y025699D01*
X023488Y025540D02*
X023488Y025540D01*
X023128Y025540D02*
X022876Y025540D01*
X022987Y025699D02*
X023011Y025699D01*
X022982Y026174D02*
X023018Y026174D01*
X023141Y026333D02*
X022863Y026333D01*
X023488Y026333D02*
X023488Y026333D01*
X023488Y026174D02*
X023488Y026174D01*
X023488Y026016D02*
X023488Y026016D01*
X023835Y026333D02*
X024113Y026333D01*
X023994Y026174D02*
X023959Y026174D01*
X023965Y025699D02*
X023989Y025699D01*
X024100Y025540D02*
X023848Y025540D01*
X024375Y025382D02*
X022601Y025382D01*
X022375Y025382D02*
X021601Y025382D01*
X021375Y025382D02*
X020601Y025382D01*
X020375Y025382D02*
X019601Y025382D01*
X019375Y025382D02*
X018601Y025382D01*
X018375Y025382D02*
X017601Y025382D01*
X017375Y025382D02*
X016601Y025382D01*
X016375Y025382D02*
X015601Y025382D01*
X015375Y025382D02*
X014601Y025382D01*
X014375Y025382D02*
X013601Y025382D01*
X013375Y025382D02*
X013238Y025382D01*
X013238Y025223D02*
X036738Y025223D01*
X036738Y025065D02*
X013238Y025065D01*
X013238Y024906D02*
X036738Y024906D01*
X036738Y024748D02*
X013238Y024748D01*
X013876Y025540D02*
X014100Y025540D01*
X013989Y025699D02*
X013987Y025699D01*
X013982Y026174D02*
X013994Y026174D01*
X014113Y026333D02*
X013863Y026333D01*
X013238Y026491D02*
X025327Y026491D01*
X025070Y026333D02*
X024863Y026333D01*
X024876Y025540D02*
X025058Y025540D01*
X025297Y025382D02*
X024601Y025382D01*
X025680Y025382D02*
X036738Y025382D01*
X036738Y023321D02*
X018988Y023321D01*
X018830Y023163D02*
X036738Y023163D01*
X036738Y023004D02*
X018703Y023004D01*
X018128Y023480D02*
X016618Y023480D01*
X016964Y023321D02*
X017060Y023321D01*
X017060Y023163D02*
X016964Y023163D01*
X016964Y022846D02*
X017060Y022846D01*
X017060Y022687D02*
X016964Y022687D01*
X016964Y022529D02*
X017060Y022529D01*
X017447Y023321D02*
X018010Y023321D01*
X018287Y023638D02*
X013638Y023638D01*
X013638Y023480D02*
X015910Y023480D01*
X015808Y023321D02*
X015322Y023321D01*
X015322Y022687D02*
X015808Y022687D01*
X015862Y022529D02*
X015249Y022529D01*
X015310Y022370D02*
X015808Y022370D01*
X015813Y021578D02*
X015298Y021578D01*
X014356Y021578D02*
X013920Y021578D01*
X013944Y021736D02*
X014332Y021736D01*
X014332Y021895D02*
X013944Y021895D01*
X013944Y022053D02*
X014332Y022053D01*
X014332Y022212D02*
X013944Y022212D01*
X013932Y022370D02*
X014344Y022370D01*
X014405Y022529D02*
X013871Y022529D01*
X013944Y022687D02*
X014332Y022687D01*
X014332Y022846D02*
X013944Y022846D01*
X013944Y023004D02*
X014332Y023004D01*
X014332Y023163D02*
X013944Y023163D01*
X013944Y023321D02*
X014332Y023321D01*
X013638Y023797D02*
X018445Y023797D01*
X018564Y023955D02*
X013567Y023955D01*
X014876Y025540D02*
X015100Y025540D01*
X014989Y025699D02*
X014987Y025699D01*
X014982Y026174D02*
X014994Y026174D01*
X015113Y026333D02*
X014863Y026333D01*
X015863Y026333D02*
X016113Y026333D01*
X015994Y026174D02*
X015982Y026174D01*
X015987Y025699D02*
X015989Y025699D01*
X016100Y025540D02*
X015876Y025540D01*
X016876Y025540D02*
X017100Y025540D01*
X016989Y025699D02*
X016987Y025699D01*
X016982Y026174D02*
X016994Y026174D01*
X017113Y026333D02*
X016863Y026333D01*
X017863Y026333D02*
X018113Y026333D01*
X017994Y026174D02*
X017982Y026174D01*
X017987Y025699D02*
X017989Y025699D01*
X018100Y025540D02*
X017876Y025540D01*
X018876Y025540D02*
X019100Y025540D01*
X018989Y025699D02*
X018987Y025699D01*
X018982Y026174D02*
X018994Y026174D01*
X019113Y026333D02*
X018863Y026333D01*
X019863Y026333D02*
X020113Y026333D01*
X019994Y026174D02*
X019982Y026174D01*
X019987Y025699D02*
X019989Y025699D01*
X020100Y025540D02*
X019876Y025540D01*
X020876Y025540D02*
X021100Y025540D01*
X020989Y025699D02*
X020987Y025699D01*
X020982Y026174D02*
X020994Y026174D01*
X021113Y026333D02*
X020863Y026333D01*
X021863Y026333D02*
X022113Y026333D01*
X021994Y026174D02*
X021982Y026174D01*
X021987Y025699D02*
X021989Y025699D01*
X022100Y025540D02*
X021876Y025540D01*
X019212Y023955D02*
X029206Y023955D01*
X029238Y023940D02*
X027248Y023940D01*
X026988Y023680D01*
X027796Y022846D02*
X036738Y022846D01*
X036738Y022687D02*
X027832Y022687D01*
X027832Y022529D02*
X036738Y022529D01*
X036738Y022370D02*
X027832Y022370D01*
X027832Y022212D02*
X036738Y022212D01*
X038011Y020944D02*
X038492Y020944D01*
X038334Y020785D02*
X037852Y020785D01*
X037694Y020627D02*
X038175Y020627D01*
X038017Y020468D02*
X037535Y020468D01*
X037377Y020310D02*
X037858Y020310D01*
X037700Y020151D02*
X037218Y020151D01*
X037098Y019993D02*
X037541Y019993D01*
X037412Y019834D02*
X037098Y019834D01*
X037098Y019676D02*
X037378Y019676D01*
X037378Y019517D02*
X037098Y019517D01*
X037098Y019359D02*
X037378Y019359D01*
X037378Y019200D02*
X037098Y019200D01*
X038098Y019517D02*
X049578Y019517D01*
X049284Y019676D02*
X038243Y019676D01*
X038401Y019834D02*
X049047Y019834D01*
X048909Y019993D02*
X038560Y019993D01*
X038718Y020151D02*
X048772Y020151D01*
X048677Y020310D02*
X039858Y020310D01*
X039618Y020310D02*
X038877Y020310D01*
X038169Y021102D02*
X048449Y021102D01*
X048438Y021180D02*
X048438Y021180D01*
X048450Y021261D02*
X038328Y021261D01*
X038486Y021419D02*
X048472Y021419D01*
X048495Y021578D02*
X038645Y021578D01*
X038803Y021736D02*
X048533Y021736D01*
X048511Y021687D02*
X048511Y021687D01*
X048606Y021895D02*
X038962Y021895D01*
X039120Y022053D02*
X048678Y022053D01*
X048724Y022153D02*
X048724Y022153D01*
X048774Y022212D02*
X039279Y022212D01*
X039437Y022370D02*
X048912Y022370D01*
X049049Y022529D02*
X039596Y022529D01*
X039754Y022687D02*
X049288Y022687D01*
X049490Y022817D02*
X049490Y022817D01*
X049586Y022846D02*
X045371Y022846D01*
X048472Y020944D02*
X040023Y020944D01*
X040115Y020785D02*
X048495Y020785D01*
X048532Y020627D02*
X040126Y020627D01*
X040070Y020468D02*
X048604Y020468D01*
X049059Y022540D02*
X049059Y022540D01*
X049059Y022540D01*
X044660Y028552D02*
X044564Y028552D01*
X044564Y028710D02*
X044660Y028710D01*
X044660Y028869D02*
X044564Y028869D01*
X044564Y029027D02*
X044660Y029027D01*
X044660Y029186D02*
X044564Y029186D01*
X044564Y029344D02*
X044660Y029344D01*
X043408Y028552D02*
X043068Y028552D01*
X041949Y030137D02*
X037548Y030137D01*
X037707Y030295D02*
X041944Y030295D01*
X041944Y030454D02*
X037865Y030454D01*
X037475Y030771D02*
X034588Y030771D01*
X034588Y030929D02*
X037538Y030929D01*
X037538Y031088D02*
X029018Y031088D01*
X029082Y031246D02*
X037538Y031246D01*
X037538Y031405D02*
X029126Y031405D01*
X029103Y031563D02*
X037631Y031563D01*
X037790Y031722D02*
X028995Y031722D01*
X028738Y031430D02*
X028738Y030513D01*
X029332Y030771D02*
X031904Y030771D01*
X031919Y030929D02*
X029254Y030929D01*
X026519Y030295D02*
X013238Y030295D01*
X013238Y030137D02*
X026473Y030137D01*
X026473Y029978D02*
X013238Y029978D01*
X013238Y029820D02*
X026473Y029820D01*
X026473Y029661D02*
X013238Y029661D01*
X013238Y029503D02*
X026473Y029503D01*
X026473Y029344D02*
X013238Y029344D01*
X013238Y029186D02*
X026473Y029186D01*
X026688Y026930D02*
X026688Y026181D01*
X026687Y026180D01*
X027202Y026174D02*
X027712Y026174D01*
X027712Y026103D02*
X027712Y026257D01*
X027294Y026257D01*
X027294Y026558D01*
X027307Y026604D01*
X027330Y026645D01*
X027364Y026678D01*
X027405Y026702D01*
X027451Y026714D01*
X027712Y026714D01*
X027712Y026257D01*
X027867Y026257D01*
X027867Y026103D01*
X028284Y026103D01*
X028284Y025802D01*
X028272Y025756D01*
X028248Y025715D01*
X028215Y025682D01*
X028174Y025658D01*
X028128Y025646D01*
X027867Y025646D01*
X027867Y026103D01*
X027712Y026103D01*
X027294Y026103D01*
X027294Y025802D01*
X027307Y025756D01*
X027330Y025715D01*
X027364Y025682D01*
X027405Y025658D01*
X027451Y025646D01*
X027712Y025646D01*
X027712Y026103D01*
X027712Y026016D02*
X027867Y026016D01*
X027867Y026174D02*
X032238Y026174D01*
X032238Y026333D02*
X028284Y026333D01*
X028284Y026491D02*
X032238Y026491D01*
X032244Y026016D02*
X028284Y026016D01*
X028284Y025857D02*
X032310Y025857D01*
X032473Y025699D02*
X028232Y025699D01*
X027867Y025699D02*
X027712Y025699D01*
X027712Y025857D02*
X027867Y025857D01*
X027789Y026180D02*
X028894Y026180D01*
X027867Y026333D02*
X027712Y026333D01*
X027712Y026491D02*
X027867Y026491D01*
X027867Y026650D02*
X027712Y026650D01*
X027335Y026650D02*
X027169Y026650D01*
X027202Y026491D02*
X027294Y026491D01*
X027294Y026333D02*
X027202Y026333D01*
X027202Y026016D02*
X027294Y026016D01*
X027294Y025857D02*
X027202Y025857D01*
X027158Y025699D02*
X027347Y025699D01*
X029206Y024431D02*
X029271Y024431D01*
X029403Y024431D02*
X032018Y024431D01*
X031810Y024272D02*
X029636Y024272D01*
X029271Y024272D02*
X029206Y024272D01*
X029206Y024114D02*
X029271Y024114D01*
X029271Y023797D02*
X029206Y023797D01*
X029206Y023638D02*
X029271Y023638D01*
X029271Y023480D02*
X029206Y023480D01*
X033003Y025699D02*
X034473Y025699D01*
X034310Y025857D02*
X033166Y025857D01*
X033232Y026016D02*
X034244Y026016D01*
X034238Y026174D02*
X033238Y026174D01*
X033238Y026333D02*
X034238Y026333D01*
X034238Y026491D02*
X033238Y026491D01*
X033238Y026650D02*
X034238Y026650D01*
X034238Y026808D02*
X033238Y026808D01*
X033181Y026967D02*
X034295Y026967D01*
X034426Y027125D02*
X033329Y027125D01*
X033013Y027601D02*
X013238Y027601D01*
X013238Y027759D02*
X033171Y027759D01*
X032738Y026930D02*
X034037Y028229D01*
X034037Y030430D01*
X034588Y030454D02*
X037158Y030454D01*
X037317Y030612D02*
X034588Y030612D01*
X034588Y030295D02*
X037000Y030295D01*
X036841Y030137D02*
X034588Y030137D01*
X034588Y029978D02*
X036738Y029978D01*
X036738Y029820D02*
X034485Y029820D01*
X034317Y029661D02*
X036738Y029661D01*
X036738Y029503D02*
X034317Y029503D01*
X034317Y029344D02*
X036738Y029344D01*
X036738Y029186D02*
X034317Y029186D01*
X034317Y029027D02*
X036738Y029027D01*
X036738Y028869D02*
X034317Y028869D01*
X032738Y026930D02*
X032738Y026430D01*
X038218Y027601D02*
X038258Y027601D01*
X038258Y027759D02*
X038218Y027759D01*
X038218Y027918D02*
X038258Y027918D01*
X038258Y028076D02*
X038218Y028076D01*
X038238Y028180D02*
X038238Y028430D01*
X038218Y028393D02*
X038258Y028393D01*
X038258Y028235D02*
X038218Y028235D01*
X038779Y027759D02*
X039464Y027759D01*
X039622Y027918D02*
X038918Y027918D01*
X038918Y028076D02*
X039781Y028076D01*
X039939Y028235D02*
X038918Y028235D01*
X038918Y028393D02*
X040098Y028393D01*
X040256Y028552D02*
X038828Y028552D01*
X038620Y027601D02*
X039305Y027601D01*
X038660Y030612D02*
X041944Y030612D01*
X041944Y030771D02*
X038819Y030771D01*
X037359Y032197D02*
X041975Y032197D01*
X041975Y032356D02*
X037517Y032356D01*
X037676Y032514D02*
X041975Y032514D01*
X041975Y032673D02*
X037834Y032673D01*
X037993Y032831D02*
X041975Y032831D01*
X041975Y032990D02*
X038151Y032990D01*
X038310Y033148D02*
X041975Y033148D01*
X041975Y033307D02*
X038468Y033307D01*
X038627Y033465D02*
X041975Y033465D01*
X041975Y033624D02*
X038785Y033624D01*
X039097Y033782D02*
X041975Y033782D01*
X041975Y033941D02*
X039201Y033941D01*
X039238Y034099D02*
X041975Y034099D01*
X041975Y034258D02*
X039238Y034258D01*
X039238Y034416D02*
X041975Y034416D01*
X041975Y034575D02*
X039238Y034575D01*
X039238Y034733D02*
X041991Y034733D01*
X039488Y035180D02*
X039488Y033680D01*
X038310Y033856D02*
X037988Y033534D01*
X037988Y033692D01*
X038021Y033706D01*
X038162Y033847D01*
X038238Y034031D01*
X038238Y034829D01*
X038238Y034031D01*
X038310Y033856D01*
X038275Y033941D02*
X038201Y033941D01*
X038238Y034099D02*
X038238Y034099D01*
X038238Y034258D02*
X038238Y034258D01*
X038238Y034416D02*
X038238Y034416D01*
X038238Y034575D02*
X038238Y034575D01*
X038238Y034733D02*
X038238Y034733D01*
X038212Y034892D02*
X038264Y034892D01*
X038351Y035050D02*
X038125Y035050D01*
X037889Y035209D02*
X038587Y035209D01*
X038889Y035209D02*
X048772Y035209D01*
X048724Y035153D02*
X048724Y035153D01*
X048677Y035050D02*
X039125Y035050D01*
X039212Y034892D02*
X048604Y034892D01*
X048909Y035367D02*
X011567Y035367D01*
X011704Y035209D02*
X032587Y035209D01*
X032351Y035050D02*
X011799Y035050D01*
X011872Y034892D02*
X013189Y034892D01*
X013198Y034898D02*
X013128Y034847D01*
X013067Y034786D01*
X013016Y034716D01*
X012977Y034639D01*
X012950Y034556D01*
X012936Y034471D01*
X012936Y034448D01*
X013466Y034448D01*
X013466Y034978D01*
X013443Y034978D01*
X013358Y034964D01*
X013275Y034937D01*
X013198Y034898D01*
X013029Y034733D02*
X011944Y034733D01*
X011965Y034687D02*
X011965Y034687D01*
X011981Y034575D02*
X012956Y034575D01*
X012963Y034258D02*
X012027Y034258D01*
X012026Y034099D02*
X013045Y034099D01*
X013231Y033941D02*
X012004Y033941D01*
X011981Y033782D02*
X013987Y033782D01*
X014145Y033941D02*
X013742Y033941D01*
X013506Y033941D02*
X013466Y033941D01*
X013466Y034099D02*
X013506Y034099D01*
X013506Y034258D02*
X013466Y034258D01*
X013466Y034416D02*
X012004Y034416D01*
X011965Y033673D02*
X011965Y033673D01*
X011943Y033624D02*
X013828Y033624D01*
X013738Y033465D02*
X011870Y033465D01*
X011798Y033307D02*
X013738Y033307D01*
X013738Y033148D02*
X011701Y033148D01*
X011752Y033207D02*
X011752Y033207D01*
X011564Y032990D02*
X013738Y032990D01*
X013738Y032831D02*
X011427Y032831D01*
X011417Y032820D02*
X011417Y032820D01*
X011417Y032820D01*
X011188Y032673D02*
X013738Y032673D01*
X013738Y032514D02*
X010888Y032514D01*
X010986Y032543D02*
X010986Y032543D01*
X010840Y032356D02*
X011136Y032356D01*
X011003Y032197D02*
X010973Y032197D01*
X011840Y032356D02*
X012136Y032356D01*
X012003Y032197D02*
X011973Y032197D01*
X012840Y032356D02*
X013136Y032356D01*
X013003Y032197D02*
X012973Y032197D01*
X013738Y031438D02*
X013738Y031130D01*
X013738Y031438D01*
X013738Y031438D01*
X013738Y031405D02*
X013738Y031405D01*
X013738Y031246D02*
X013738Y031246D01*
X013720Y031088D02*
X013756Y031088D01*
X013885Y030929D02*
X013591Y030929D01*
X013432Y030771D02*
X014044Y030771D01*
X014202Y030612D02*
X013274Y030612D01*
X013238Y030454D02*
X014381Y030454D01*
X014009Y034099D02*
X013928Y034099D01*
X013486Y034428D02*
X013486Y035178D01*
X013738Y035430D01*
X024238Y035430D01*
X024488Y035180D01*
X024488Y034429D01*
X024486Y034428D01*
X024486Y035178D01*
X024738Y035430D01*
X028238Y035430D01*
X028488Y035180D01*
X028738Y035430D01*
X039238Y035430D01*
X039488Y035180D01*
X038237Y033782D02*
X038097Y033782D01*
X038078Y033624D02*
X037988Y033624D01*
X037488Y033624D02*
X036988Y033624D01*
X036988Y033692D02*
X037021Y033706D01*
X037162Y033847D01*
X037238Y034031D01*
X037238Y034829D01*
X037238Y034031D01*
X037314Y033847D01*
X037455Y033706D01*
X037488Y033692D01*
X037488Y033534D01*
X036988Y033034D01*
X036988Y033692D01*
X037097Y033782D02*
X037379Y033782D01*
X037275Y033941D02*
X037201Y033941D01*
X037238Y034099D02*
X037238Y034099D01*
X037238Y034258D02*
X037238Y034258D01*
X037238Y034416D02*
X037238Y034416D01*
X037238Y034575D02*
X037238Y034575D01*
X037238Y034733D02*
X037238Y034733D01*
X037212Y034892D02*
X037264Y034892D01*
X037351Y035050D02*
X037125Y035050D01*
X036889Y035209D02*
X037587Y035209D01*
X036587Y035209D02*
X035889Y035209D01*
X036125Y035050D02*
X036351Y035050D01*
X036264Y034892D02*
X036212Y034892D01*
X036238Y034829D02*
X036238Y034031D01*
X036162Y033847D01*
X036021Y033706D01*
X035988Y033692D01*
X035988Y033130D01*
X035950Y033038D01*
X035842Y032930D01*
X036384Y032930D01*
X036488Y033034D01*
X036488Y033692D01*
X036455Y033706D01*
X036314Y033847D01*
X036238Y034031D01*
X036238Y034829D01*
X036238Y034733D02*
X036238Y034733D01*
X036238Y034575D02*
X036238Y034575D01*
X036238Y034416D02*
X036238Y034416D01*
X036238Y034258D02*
X036238Y034258D01*
X036238Y034099D02*
X036238Y034099D01*
X036201Y033941D02*
X036275Y033941D01*
X036379Y033782D02*
X036097Y033782D01*
X035988Y033624D02*
X036488Y033624D01*
X036488Y033465D02*
X035988Y033465D01*
X035988Y033307D02*
X036488Y033307D01*
X036488Y033148D02*
X035988Y033148D01*
X035901Y032990D02*
X036444Y032990D01*
X036988Y033148D02*
X037103Y033148D01*
X036988Y033307D02*
X037261Y033307D01*
X037420Y033465D02*
X036988Y033465D01*
X037200Y032039D02*
X042047Y032039D01*
X035488Y033284D02*
X035384Y033180D01*
X034842Y033180D01*
X034880Y033218D01*
X034950Y033288D01*
X034988Y033380D01*
X034988Y033692D01*
X035021Y033706D01*
X035162Y033847D01*
X035238Y034031D01*
X035238Y034829D01*
X035238Y034031D01*
X035314Y033847D01*
X035455Y033706D01*
X035488Y033692D01*
X035488Y033284D01*
X035488Y033307D02*
X034957Y033307D01*
X034880Y033218D02*
X034880Y033218D01*
X034988Y033465D02*
X035488Y033465D01*
X035488Y033624D02*
X034988Y033624D01*
X035097Y033782D02*
X035379Y033782D01*
X035275Y033941D02*
X035201Y033941D01*
X035238Y034099D02*
X035238Y034099D01*
X035238Y034258D02*
X035238Y034258D01*
X035238Y034416D02*
X035238Y034416D01*
X035238Y034575D02*
X035238Y034575D01*
X035238Y034733D02*
X035238Y034733D01*
X035212Y034892D02*
X035264Y034892D01*
X035351Y035050D02*
X035125Y035050D01*
X034889Y035209D02*
X035587Y035209D01*
X034587Y035209D02*
X033889Y035209D01*
X034125Y035050D02*
X034351Y035050D01*
X034264Y034892D02*
X034212Y034892D01*
X034238Y034829D02*
X034238Y034031D01*
X034162Y033847D01*
X034021Y033706D01*
X033988Y033692D01*
X033988Y033630D01*
X033950Y033538D01*
X033842Y033430D01*
X034384Y033430D01*
X034488Y033534D01*
X034488Y033692D01*
X034455Y033706D01*
X034314Y033847D01*
X034238Y034031D01*
X034238Y034829D01*
X034238Y034733D02*
X034238Y034733D01*
X034238Y034575D02*
X034238Y034575D01*
X034238Y034416D02*
X034238Y034416D01*
X034238Y034258D02*
X034238Y034258D01*
X034238Y034099D02*
X034238Y034099D01*
X034201Y033941D02*
X034275Y033941D01*
X034379Y033782D02*
X034097Y033782D01*
X033985Y033624D02*
X034488Y033624D01*
X034420Y033465D02*
X033877Y033465D01*
X033433Y033728D02*
X033384Y033680D01*
X032958Y033680D01*
X033021Y033706D01*
X033162Y033847D01*
X033238Y034031D01*
X033238Y034829D01*
X033238Y034031D01*
X033314Y033847D01*
X033433Y033728D01*
X033379Y033782D02*
X033097Y033782D01*
X033201Y033941D02*
X033275Y033941D01*
X033238Y034099D02*
X033238Y034099D01*
X033238Y034258D02*
X033238Y034258D01*
X033238Y034416D02*
X033238Y034416D01*
X033238Y034575D02*
X033238Y034575D01*
X033238Y034733D02*
X033238Y034733D01*
X033212Y034892D02*
X033264Y034892D01*
X033351Y035050D02*
X033125Y035050D01*
X032889Y035209D02*
X033587Y035209D01*
X032264Y034892D02*
X029010Y034892D01*
X029000Y034908D02*
X028967Y034942D01*
X028926Y034965D01*
X028880Y034978D01*
X028506Y034978D01*
X028506Y034448D01*
X029036Y034448D01*
X029036Y034821D01*
X029024Y034867D01*
X029000Y034908D01*
X029036Y034733D02*
X032238Y034733D01*
X032238Y034575D02*
X029036Y034575D01*
X029036Y034258D02*
X032238Y034258D01*
X032238Y034416D02*
X028506Y034416D01*
X028488Y034429D02*
X028486Y034428D01*
X028488Y034429D02*
X028488Y035180D01*
X028466Y034892D02*
X028506Y034892D01*
X028506Y034733D02*
X028466Y034733D01*
X028466Y034575D02*
X028506Y034575D01*
X027963Y034892D02*
X027829Y034892D01*
X027144Y034892D02*
X026829Y034892D01*
X026977Y034733D02*
X026996Y034733D01*
X026144Y034892D02*
X025829Y034892D01*
X025977Y034733D02*
X025996Y034733D01*
X025144Y034892D02*
X024784Y034892D01*
X024944Y034733D02*
X024996Y034733D01*
X024506Y034733D02*
X024466Y034733D01*
X024466Y034575D02*
X024506Y034575D01*
X024506Y034892D02*
X024466Y034892D01*
X024189Y034892D02*
X023829Y034892D01*
X023977Y034733D02*
X024029Y034733D01*
X023144Y034892D02*
X022829Y034892D01*
X022977Y034733D02*
X022996Y034733D01*
X022144Y034892D02*
X021829Y034892D01*
X021977Y034733D02*
X021996Y034733D01*
X021144Y034892D02*
X020829Y034892D01*
X020977Y034733D02*
X020996Y034733D01*
X020144Y034892D02*
X019829Y034892D01*
X019977Y034733D02*
X019996Y034733D01*
X019144Y034892D02*
X018829Y034892D01*
X018977Y034733D02*
X018996Y034733D01*
X018144Y034892D02*
X017829Y034892D01*
X017977Y034733D02*
X017996Y034733D01*
X017144Y034892D02*
X016829Y034892D01*
X016977Y034733D02*
X016996Y034733D01*
X016144Y034892D02*
X015829Y034892D01*
X015977Y034733D02*
X015996Y034733D01*
X015144Y034892D02*
X014829Y034892D01*
X014977Y034733D02*
X014996Y034733D01*
X014144Y034892D02*
X013784Y034892D01*
X013944Y034733D02*
X013996Y034733D01*
X013506Y034733D02*
X013466Y034733D01*
X013466Y034575D02*
X013506Y034575D01*
X013506Y034892D02*
X013466Y034892D01*
X011430Y035526D02*
X049046Y035526D01*
X049059Y035540D02*
X049059Y035540D01*
X049059Y035540D01*
X049283Y035684D02*
X011193Y035684D01*
X010900Y035843D02*
X049576Y035843D01*
X049490Y035817D02*
X049490Y035817D01*
X032275Y033941D02*
X028994Y033941D01*
X029036Y034099D02*
X032238Y034099D01*
X012954Y021736D02*
X012838Y021736D01*
X012944Y021578D02*
X012978Y021578D01*
X012087Y015713D02*
X008918Y015713D01*
X008918Y015555D02*
X011887Y015555D01*
X011743Y015396D02*
X008918Y015396D01*
X008918Y015238D02*
X011651Y015238D01*
X011582Y015079D02*
X008918Y015079D01*
X008918Y014921D02*
X011539Y014921D01*
X011518Y014762D02*
X008918Y014762D01*
X008918Y014604D02*
X011518Y014604D01*
X011538Y014445D02*
X008918Y014445D01*
X008918Y014287D02*
X011580Y014287D01*
X011648Y014128D02*
X008918Y014128D01*
X008918Y013970D02*
X011739Y013970D01*
X011882Y013811D02*
X008918Y013811D01*
X008918Y013653D02*
X012078Y013653D01*
X012450Y013494D02*
X008918Y013494D01*
X008918Y013336D02*
X023558Y013336D01*
X023558Y013177D02*
X008918Y013177D01*
X008918Y013019D02*
X023558Y013019D01*
X023610Y012860D02*
X008918Y012860D01*
X008918Y012702D02*
X023675Y012702D01*
X023789Y012543D02*
X008918Y012543D01*
X008918Y012385D02*
X023948Y012385D01*
X024280Y012226D02*
X008918Y012226D01*
X008918Y012068D02*
X012402Y012068D01*
X012419Y012077D02*
X012337Y012030D01*
X012262Y011972D01*
X012196Y011906D01*
X012138Y011831D01*
X012091Y011749D01*
X012055Y011662D01*
X012030Y011571D01*
X012022Y011510D01*
X012658Y011510D01*
X012658Y012146D01*
X012597Y012138D01*
X012506Y012113D01*
X012419Y012077D01*
X012658Y012068D02*
X012818Y012068D01*
X012818Y011909D02*
X012658Y011909D01*
X012658Y011751D02*
X012818Y011751D01*
X012818Y011592D02*
X012658Y011592D01*
X012658Y011434D02*
X008918Y011434D01*
X008918Y011592D02*
X012036Y011592D01*
X012092Y011751D02*
X008918Y011751D01*
X008918Y011909D02*
X012199Y011909D01*
X012034Y011275D02*
X008918Y011275D01*
X008918Y011117D02*
X012089Y011117D01*
X012193Y010958D02*
X008918Y010958D01*
X008918Y010800D02*
X012390Y010800D01*
X012658Y010800D02*
X012818Y010800D01*
X012818Y010958D02*
X012658Y010958D01*
X012658Y011117D02*
X012818Y011117D01*
X012818Y011275D02*
X012658Y011275D01*
X012818Y011434D02*
X026723Y011434D01*
X026564Y011275D02*
X013442Y011275D01*
X013388Y011117D02*
X022538Y011117D01*
X022643Y011160D02*
X022283Y011011D01*
X022007Y010735D01*
X021858Y010375D01*
X021858Y009985D01*
X022007Y009625D01*
X022283Y009349D01*
X022643Y009200D01*
X023633Y009200D01*
X023993Y009349D01*
X024269Y009625D01*
X024418Y009985D01*
X024418Y010375D01*
X024269Y010735D01*
X023993Y011011D01*
X023633Y011160D01*
X022643Y011160D01*
X022230Y010958D02*
X013283Y010958D01*
X013086Y010800D02*
X022072Y010800D01*
X021968Y010641D02*
X008918Y010641D01*
X008918Y010483D02*
X021903Y010483D01*
X021858Y010324D02*
X008918Y010324D01*
X008918Y010166D02*
X021858Y010166D01*
X021858Y010007D02*
X008918Y010007D01*
X008918Y009849D02*
X021915Y009849D01*
X021980Y009690D02*
X008918Y009690D01*
X008918Y009532D02*
X022101Y009532D01*
X022259Y009373D02*
X012999Y009373D01*
X012899Y009400D02*
X012577Y009400D01*
X012267Y009317D01*
X011989Y009156D01*
X011762Y008929D01*
X011601Y008651D01*
X011518Y008341D01*
X011518Y008019D01*
X011601Y007709D01*
X011762Y007431D01*
X011989Y007204D01*
X012267Y007043D01*
X012577Y006960D01*
X012899Y006960D01*
X013209Y007043D01*
X013487Y007204D01*
X013714Y007431D01*
X013875Y007709D01*
X013958Y008019D01*
X013958Y008341D01*
X013875Y008651D01*
X013714Y008929D01*
X013487Y009156D01*
X013209Y009317D01*
X012899Y009400D01*
X012477Y009373D02*
X008918Y009373D01*
X008918Y009215D02*
X012090Y009215D01*
X011889Y009056D02*
X008918Y009056D01*
X008918Y008898D02*
X011744Y008898D01*
X011652Y008739D02*
X008918Y008739D01*
X008918Y008581D02*
X011582Y008581D01*
X011540Y008422D02*
X008918Y008422D01*
X008918Y008264D02*
X011518Y008264D01*
X011518Y008105D02*
X008918Y008105D01*
X008918Y007947D02*
X011538Y007947D01*
X011580Y007788D02*
X008918Y007788D01*
X008918Y007630D02*
X011647Y007630D01*
X011739Y007471D02*
X008918Y007471D01*
X008918Y007313D02*
X011880Y007313D01*
X012075Y007154D02*
X008918Y007154D01*
X008918Y006996D02*
X012445Y006996D01*
X013031Y006996D02*
X051558Y006996D01*
X051558Y007154D02*
X013401Y007154D01*
X013596Y007313D02*
X051558Y007313D01*
X051558Y007471D02*
X029014Y007471D01*
X029256Y007630D02*
X051558Y007630D01*
X051558Y007788D02*
X029415Y007788D01*
X029514Y007947D02*
X051558Y007947D01*
X051558Y008105D02*
X029596Y008105D01*
X029638Y008264D02*
X051558Y008264D01*
X051558Y008422D02*
X029668Y008422D01*
X029668Y008581D02*
X051558Y008581D01*
X051558Y008739D02*
X029654Y008739D01*
X029611Y008898D02*
X051558Y008898D01*
X051558Y009056D02*
X029547Y009056D01*
X029455Y009215D02*
X051558Y009215D01*
X051558Y009373D02*
X029314Y009373D01*
X029119Y009532D02*
X051558Y009532D01*
X051558Y009690D02*
X029317Y009690D01*
X029457Y009849D02*
X051558Y009849D01*
X051558Y010007D02*
X029549Y010007D01*
X028680Y012068D02*
X013074Y012068D01*
X013440Y011592D02*
X026968Y011592D01*
X026464Y011117D02*
X023738Y011117D01*
X024046Y010958D02*
X026381Y010958D01*
X026339Y010800D02*
X024204Y010800D01*
X024308Y010641D02*
X026308Y010641D01*
X026308Y010483D02*
X024373Y010483D01*
X024418Y010324D02*
X026322Y010324D01*
X026364Y010166D02*
X024418Y010166D01*
X024418Y010007D02*
X026427Y010007D01*
X026519Y009849D02*
X024361Y009849D01*
X024296Y009690D02*
X026659Y009690D01*
X026857Y009532D02*
X024175Y009532D01*
X024017Y009373D02*
X026662Y009373D01*
X026521Y009215D02*
X023668Y009215D01*
X022608Y009215D02*
X013386Y009215D01*
X013587Y009056D02*
X026429Y009056D01*
X026365Y008898D02*
X013733Y008898D01*
X013824Y008739D02*
X026322Y008739D01*
X026308Y008581D02*
X013894Y008581D01*
X013936Y008422D02*
X026308Y008422D01*
X026338Y008264D02*
X013958Y008264D01*
X013958Y008105D02*
X026380Y008105D01*
X026462Y007947D02*
X013939Y007947D01*
X013896Y007788D02*
X026561Y007788D01*
X026720Y007630D02*
X013829Y007630D01*
X013737Y007471D02*
X026962Y007471D01*
X027333Y005510D02*
X027033Y005430D01*
X026763Y005274D01*
X026544Y005055D01*
X026388Y004785D01*
X026308Y004485D01*
X026308Y004175D01*
X026388Y003875D01*
X026544Y003605D01*
X026763Y003386D01*
X026860Y003330D01*
X026763Y003274D01*
X026544Y003055D01*
X026388Y002785D01*
X026308Y002485D01*
X026308Y002175D01*
X026388Y001875D01*
X026544Y001605D01*
X026763Y001386D01*
X027033Y001230D01*
X027333Y001150D01*
X028643Y001150D01*
X028943Y001230D01*
X029213Y001386D01*
X029432Y001605D01*
X029588Y001875D01*
X029668Y002175D01*
X029668Y002485D01*
X029588Y002785D01*
X029432Y003055D01*
X029213Y003274D01*
X029116Y003330D01*
X029213Y003386D01*
X029432Y003605D01*
X029588Y003875D01*
X029668Y004175D01*
X029668Y004485D01*
X029588Y004785D01*
X029432Y005055D01*
X029213Y005274D01*
X028943Y005430D01*
X028643Y005510D01*
X027333Y005510D01*
X027000Y005411D02*
X021180Y005411D01*
X021187Y005406D02*
X020909Y005567D01*
X020599Y005650D01*
X020277Y005650D01*
X019967Y005567D01*
X019689Y005406D01*
X019462Y005179D01*
X019301Y004901D01*
X019218Y004591D01*
X019218Y004269D01*
X019301Y003959D01*
X019462Y003681D01*
X019689Y003454D01*
X019967Y003293D01*
X020277Y003210D01*
X020599Y003210D01*
X020909Y003293D01*
X021187Y003454D01*
X021414Y003681D01*
X021575Y003959D01*
X021658Y004269D01*
X021658Y004591D01*
X021575Y004901D01*
X021414Y005179D01*
X021187Y005406D01*
X021341Y005252D02*
X026741Y005252D01*
X026583Y005094D02*
X021464Y005094D01*
X021555Y004935D02*
X026475Y004935D01*
X026386Y004777D02*
X021608Y004777D01*
X021651Y004618D02*
X026344Y004618D01*
X026308Y004460D02*
X021658Y004460D01*
X021658Y004301D02*
X026308Y004301D01*
X026317Y004143D02*
X021624Y004143D01*
X021582Y003984D02*
X026359Y003984D01*
X026417Y003826D02*
X021498Y003826D01*
X021400Y003667D02*
X026508Y003667D01*
X026641Y003509D02*
X021242Y003509D01*
X021007Y003350D02*
X026825Y003350D01*
X026681Y003192D02*
X012266Y003192D01*
X012331Y003033D02*
X026531Y003033D01*
X026440Y002875D02*
X012397Y002875D01*
X012447Y002716D02*
X026370Y002716D01*
X026327Y002558D02*
X012468Y002558D01*
X012489Y002399D02*
X026308Y002399D01*
X026308Y002241D02*
X012510Y002241D01*
X012505Y002082D02*
X026333Y002082D01*
X026375Y001924D02*
X012484Y001924D01*
X012463Y001765D02*
X026452Y001765D01*
X026543Y001607D02*
X012443Y001607D01*
X012382Y001448D02*
X026701Y001448D01*
X026930Y001290D02*
X012316Y001290D01*
X012250Y001131D02*
X048226Y001131D01*
X048160Y001290D02*
X029046Y001290D01*
X029275Y001448D02*
X048094Y001448D01*
X048034Y001607D02*
X029433Y001607D01*
X029524Y001765D02*
X048013Y001765D01*
X047992Y001924D02*
X029601Y001924D01*
X029643Y002082D02*
X047971Y002082D01*
X047966Y002241D02*
X029668Y002241D01*
X029668Y002399D02*
X047987Y002399D01*
X048008Y002558D02*
X029649Y002558D01*
X029606Y002716D02*
X048029Y002716D01*
X048079Y002875D02*
X029536Y002875D01*
X029445Y003033D02*
X048145Y003033D01*
X048210Y003192D02*
X029295Y003192D01*
X029151Y003350D02*
X048287Y003350D01*
X048408Y003509D02*
X045330Y003509D01*
X045459Y003543D02*
X045737Y003704D01*
X045964Y003931D01*
X046125Y004209D01*
X046208Y004519D01*
X046208Y004841D01*
X046125Y005151D01*
X045964Y005429D01*
X045737Y005656D01*
X045459Y005817D01*
X045149Y005900D01*
X044827Y005900D01*
X044517Y005817D01*
X044239Y005656D01*
X044012Y005429D01*
X043851Y005151D01*
X043768Y004841D01*
X043768Y004519D01*
X043851Y004209D01*
X044012Y003931D01*
X044239Y003704D01*
X044517Y003543D01*
X044827Y003460D01*
X045149Y003460D01*
X045459Y003543D01*
X045673Y003667D02*
X048530Y003667D01*
X048669Y003826D02*
X045859Y003826D01*
X045995Y003984D02*
X048876Y003984D01*
X049082Y004143D02*
X046086Y004143D01*
X046150Y004301D02*
X049452Y004301D01*
X050234Y004460D02*
X046192Y004460D01*
X046208Y004618D02*
X051558Y004618D01*
X051558Y004460D02*
X050242Y004460D01*
X051024Y004301D02*
X051558Y004301D01*
X051558Y004143D02*
X051394Y004143D01*
X051558Y004777D02*
X046208Y004777D01*
X046183Y004935D02*
X051558Y004935D01*
X051558Y005094D02*
X046140Y005094D01*
X046067Y005252D02*
X051558Y005252D01*
X051558Y005411D02*
X045975Y005411D01*
X045824Y005569D02*
X051558Y005569D01*
X051558Y005728D02*
X045614Y005728D01*
X045201Y005886D02*
X051558Y005886D01*
X051558Y006045D02*
X008918Y006045D01*
X008918Y006203D02*
X051558Y006203D01*
X051558Y006362D02*
X008918Y006362D01*
X008918Y006520D02*
X051558Y006520D01*
X051558Y006679D02*
X008918Y006679D01*
X008918Y006837D02*
X051558Y006837D01*
X051558Y010166D02*
X046534Y010166D01*
X046735Y010324D02*
X051558Y010324D01*
X051558Y010483D02*
X046869Y010483D01*
X046960Y010641D02*
X051558Y010641D01*
X051558Y010800D02*
X047011Y010800D01*
X047048Y010958D02*
X051558Y010958D01*
X051558Y011117D02*
X047048Y011117D01*
X047034Y011275D02*
X051558Y011275D01*
X051558Y011434D02*
X046991Y011434D01*
X046918Y011592D02*
X051558Y011592D01*
X051558Y011751D02*
X046821Y011751D01*
X046662Y011909D02*
X051558Y011909D01*
X044775Y005886D02*
X038701Y005886D01*
X038649Y005900D02*
X038327Y005900D01*
X038017Y005817D01*
X037739Y005656D01*
X037512Y005429D01*
X037351Y005151D01*
X037268Y004841D01*
X037268Y004519D01*
X037351Y004209D01*
X037512Y003931D01*
X037739Y003704D01*
X038017Y003543D01*
X038327Y003460D01*
X038649Y003460D01*
X038959Y003543D01*
X039237Y003704D01*
X039464Y003931D01*
X039625Y004209D01*
X039708Y004519D01*
X039708Y004841D01*
X039625Y005151D01*
X039464Y005429D01*
X039237Y005656D01*
X038959Y005817D01*
X038649Y005900D01*
X038275Y005886D02*
X008918Y005886D01*
X008918Y005728D02*
X037862Y005728D01*
X037652Y005569D02*
X020901Y005569D01*
X019975Y005569D02*
X017651Y005569D01*
X017659Y005567D02*
X017349Y005650D01*
X017027Y005650D01*
X016717Y005567D01*
X016439Y005406D01*
X016212Y005179D01*
X016051Y004901D01*
X015968Y004591D01*
X015968Y004269D01*
X016051Y003959D01*
X016212Y003681D01*
X016439Y003454D01*
X016717Y003293D01*
X017027Y003210D01*
X017349Y003210D01*
X017659Y003293D01*
X017937Y003454D01*
X018164Y003681D01*
X018325Y003959D01*
X018408Y004269D01*
X018408Y004591D01*
X018325Y004901D01*
X018164Y005179D01*
X017937Y005406D01*
X017659Y005567D01*
X017930Y005411D02*
X019696Y005411D01*
X019535Y005252D02*
X018091Y005252D01*
X018214Y005094D02*
X019412Y005094D01*
X019321Y004935D02*
X018305Y004935D01*
X018358Y004777D02*
X019268Y004777D01*
X019225Y004618D02*
X018401Y004618D01*
X018408Y004460D02*
X019218Y004460D01*
X019218Y004301D02*
X018408Y004301D01*
X018374Y004143D02*
X019252Y004143D01*
X019294Y003984D02*
X018332Y003984D01*
X018248Y003826D02*
X019378Y003826D01*
X019476Y003667D02*
X018150Y003667D01*
X017992Y003509D02*
X019634Y003509D01*
X019869Y003350D02*
X017757Y003350D01*
X016619Y003350D02*
X012190Y003350D01*
X012068Y003509D02*
X016384Y003509D01*
X016226Y003667D02*
X011946Y003667D01*
X011807Y003826D02*
X016128Y003826D01*
X016044Y003984D02*
X011600Y003984D01*
X011394Y004143D02*
X016002Y004143D01*
X015968Y004301D02*
X011024Y004301D01*
X010242Y004460D02*
X015968Y004460D01*
X015975Y004618D02*
X008918Y004618D01*
X008918Y004460D02*
X010234Y004460D01*
X009452Y004301D02*
X008918Y004301D01*
X008918Y004143D02*
X009082Y004143D01*
X008918Y004777D02*
X016018Y004777D01*
X016071Y004935D02*
X008918Y004935D01*
X008918Y005094D02*
X016162Y005094D01*
X016285Y005252D02*
X008918Y005252D01*
X008918Y005411D02*
X016446Y005411D01*
X016725Y005569D02*
X008918Y005569D01*
X012161Y000973D02*
X048315Y000973D01*
X044646Y003509D02*
X038830Y003509D01*
X039173Y003667D02*
X044303Y003667D01*
X044117Y003826D02*
X039359Y003826D01*
X039495Y003984D02*
X041554Y003984D01*
X041597Y003972D02*
X041658Y003964D01*
X041658Y004600D01*
X041022Y004600D01*
X041030Y004539D01*
X041055Y004448D01*
X041091Y004361D01*
X041138Y004279D01*
X041196Y004204D01*
X041262Y004138D01*
X041337Y004080D01*
X041419Y004033D01*
X041506Y003997D01*
X041597Y003972D01*
X041658Y003984D02*
X041818Y003984D01*
X041818Y003964D02*
X041879Y003972D01*
X041970Y003997D01*
X042057Y004033D01*
X042139Y004080D01*
X042214Y004138D01*
X042281Y004204D01*
X042338Y004279D01*
X042385Y004361D01*
X042421Y004448D01*
X042446Y004539D01*
X042454Y004600D01*
X041818Y004600D01*
X041818Y003964D01*
X041922Y003984D02*
X043981Y003984D01*
X043890Y004143D02*
X042219Y004143D01*
X042351Y004301D02*
X043827Y004301D01*
X043784Y004460D02*
X042424Y004460D01*
X042454Y004760D02*
X042446Y004821D01*
X042421Y004912D01*
X042385Y004999D01*
X042338Y005081D01*
X042281Y005156D01*
X042214Y005222D01*
X042139Y005280D01*
X042057Y005327D01*
X041970Y005363D01*
X041879Y005388D01*
X041818Y005396D01*
X041818Y004760D01*
X041658Y004760D01*
X041658Y004600D01*
X041818Y004600D01*
X041818Y004760D01*
X042454Y004760D01*
X042452Y004777D02*
X043768Y004777D01*
X043768Y004618D02*
X041818Y004618D01*
X041818Y004460D02*
X041658Y004460D01*
X041658Y004618D02*
X039708Y004618D01*
X039708Y004777D02*
X041025Y004777D01*
X041022Y004760D02*
X041658Y004760D01*
X041658Y005396D01*
X041597Y005388D01*
X041506Y005363D01*
X041419Y005327D01*
X041337Y005280D01*
X041262Y005222D01*
X041196Y005156D01*
X041138Y005081D01*
X041091Y004999D01*
X041055Y004912D01*
X041030Y004821D01*
X041022Y004760D01*
X041064Y004935D02*
X039683Y004935D01*
X039640Y005094D02*
X041148Y005094D01*
X041301Y005252D02*
X039567Y005252D01*
X039475Y005411D02*
X044001Y005411D01*
X043910Y005252D02*
X042175Y005252D01*
X042328Y005094D02*
X043836Y005094D01*
X043793Y004935D02*
X042412Y004935D01*
X041818Y004935D02*
X041658Y004935D01*
X041658Y004777D02*
X041818Y004777D01*
X041818Y005094D02*
X041658Y005094D01*
X041658Y005252D02*
X041818Y005252D01*
X041052Y004460D02*
X039692Y004460D01*
X039650Y004301D02*
X041125Y004301D01*
X041257Y004143D02*
X039586Y004143D01*
X039324Y005569D02*
X044152Y005569D01*
X044362Y005728D02*
X039114Y005728D01*
X037501Y005411D02*
X028977Y005411D01*
X029235Y005252D02*
X037410Y005252D01*
X037336Y005094D02*
X029393Y005094D01*
X029501Y004935D02*
X037293Y004935D01*
X037268Y004777D02*
X029590Y004777D01*
X029632Y004618D02*
X037268Y004618D01*
X037284Y004460D02*
X029668Y004460D01*
X029668Y004301D02*
X037327Y004301D01*
X037390Y004143D02*
X029659Y004143D01*
X029617Y003984D02*
X037481Y003984D01*
X037617Y003826D02*
X029559Y003826D01*
X029468Y003667D02*
X037803Y003667D01*
X038146Y003509D02*
X029335Y003509D01*
X028493Y012226D02*
X025396Y012226D01*
X025728Y012385D02*
X028372Y012385D01*
X028286Y012543D02*
X025887Y012543D01*
X026001Y012702D02*
X028243Y012702D01*
X028221Y012860D02*
X026066Y012860D01*
X026118Y013019D02*
X028221Y013019D01*
X028254Y013177D02*
X026118Y013177D01*
X026118Y013336D02*
X028303Y013336D01*
X028395Y013494D02*
X026069Y013494D01*
X026003Y013653D02*
X028532Y013653D01*
X028746Y013811D02*
X025893Y013811D01*
X024266Y014128D02*
X013828Y014128D01*
X013737Y013970D02*
X023942Y013970D01*
X023783Y013811D02*
X013594Y013811D01*
X013398Y013653D02*
X023673Y013653D01*
X023607Y013494D02*
X013026Y013494D01*
X041658Y004301D02*
X041818Y004301D01*
X041818Y004143D02*
X041658Y004143D01*
D32*
X039738Y020680D03*
X028738Y031430D03*
X026988Y028430D03*
X026688Y026930D03*
X018888Y023730D03*
D33*
X018343Y023185D01*
X018343Y022480D01*
X021443Y022480D02*
X023843Y022480D01*
X036738Y020180D02*
X036738Y012180D01*
X037838Y011080D01*
X040788Y011080D01*
X040788Y015780D02*
X038638Y015780D01*
X037738Y016680D01*
X037738Y019680D01*
X038738Y020680D01*
X039738Y020680D01*
X039738Y023180D02*
X036738Y020180D01*
X039738Y023180D02*
X045238Y023180D01*
X046738Y024680D01*
X046738Y032180D01*
X045504Y033414D01*
X043238Y033414D01*
M02*
